<?xml version="1.0" encoding="utf-8"?>
<!-- Generator: Adobe Illustrator 19.1.0, SVG Export Plug-In . SVG Version: 6.00 Build 0)  -->
<svg version="1.1" id="图层_1" xmlns="http://www.w3.org/2000/svg" xmlns:xlink="http://www.w3.org/1999/xlink" x="0px" y="0px"
	 viewBox="0 0 1463.4 938.6" style="enable-background:new 0 0 1463.4 938.6;" xml:space="preserve">
<style type="text/css">
	.st0{fill:#A0D2D0;}
	.st1{fill:#72BBAE;}
	.st2{fill:#FFFFFF;}
	.st3{fill:#E9F3F0;}
	.st4{fill:#8E7856;}
	.st5{fill:#A2D6CD;}
	.st6{fill:#EEF5F5;}
	.st7{fill:#4E9B8B;}
	.st8{fill:#89AEA2;}
	.st9{fill:#837C6B;}
	.st10{fill:#736A5B;}
	.st11{fill:#674536;}
	.st12{fill:#DFBC2F;}
	.st13{fill:#474739;}
	.st14{fill:#474646;}
	.st15{fill:#E29D6C;}
	.st16{fill:#D18A5B;}
	.st17{fill:#A13324;}
</style>
<rect class="st0" width="1463.4" height="938.6"/>
<g>
	<g>
		<polygon class="st1" points="13.8,491.4 190.1,149.6 386.4,524.9 		"/>
		<g>
			<path class="st2" d="M191.7,141.4c-17.3-1.9-32.4,37.4-46.1,70.8c-13.7,33.4-46.6,84-38.8,94.3c7.8,10.2,44,11.8,70.8-10.2
				c26.8-22,52.7-6.7,73.6,0c20.9,6.7,24.2-11.2,14.6-29.1C256.2,249.4,212.9,143.7,191.7,141.4z"/>
			<path class="st3" d="M251.1,296.3c20.9,6.7,24.2-11.2,14.6-29.1c1.6,22.9-30.8,4-56.7,4.4c-26,0.5-53.5,25.1-74.2,29
				c-20.6,3.9-22.6-20.2-22.6-20.3c-5.5,12.4-8.5,22.2-5.5,26.1c7.8,10.2,44,11.8,70.8-10.2C204.3,274.3,230.2,289.6,251.1,296.3z"
				/>
		</g>
	</g>
	<g>
		<polygon class="st1" points="637.8,555.8 461,227 264.2,588.1 		"/>
		<g>
			<path class="st2" d="M458.1,212.9c13.8-1.6,25.8,31.9,36.7,60.5c10.9,28.5,37.1,71.7,30.9,80.5c-6.2,8.7-35,10.1-56.2-8.7
				c-21.3-18.8-41.9-5.7-58.5,0c-16.6,5.7-19.2-9.6-11.6-24.8C406.8,305.1,441.2,214.9,458.1,212.9z"/>
			<path class="st3" d="M410.9,345.2c-16.6,5.7-19.2-9.6-11.6-24.8c-1.3,19.5,24.4,3.4,45.1,3.8c20.6,0.4,42.5,21.4,58.9,24.8
				c16.4,3.3,17.9-17.2,17.9-17.3c4.4,10.6,6.7,19,4.4,22.3c-6.2,8.7-35,10.1-56.2-8.7C448.1,326.4,427.4,339.5,410.9,345.2z"/>
		</g>
	</g>
	<g>
		<polygon class="st1" points="1094.5,501.4 1269,144.2 1463.4,536.5 		"/>
		<g>
			<path class="st2" d="M1270.6,135.6c-17.2-2-32.1,39.1-45.7,74c-13.6,34.9-46.2,87.8-38.4,98.5c7.7,10.7,43.6,12.4,70.1-10.6
				c26.5-23,52.2-7,72.8,0c20.7,7,23.9-11.7,14.5-30.4C1334.5,248.5,1291.6,138.1,1270.6,135.6z"/>
			<path class="st3" d="M1329.4,297.5c20.7,7,23.9-11.7,14.5-30.4c1.6,23.9-30.5,4.1-56.2,4.6c-25.7,0.5-53,26.2-73.4,30.3
				c-20.4,4.1-22.3-21.1-22.4-21.2c-5.5,13-8.4,23.2-5.5,27.3c7.7,10.7,43.6,12.4,70.1-10.6C1283,274.6,1308.7,290.6,1329.4,297.5z"
				/>
		</g>
	</g>
	<g>
		<path class="st2" d="M3.1,471.9c0,0,114.9-16.6,234.7,15.2c152.2,40.3,284.6-4.4,396.8-17c112.3-12.6,240,5.1,358.8,16
			c192.4,17.7,312.8-54.4,469.9-57.1v509.6H3.1V471.9z"/>
		<g>
			<path class="st4" d="M84.3,806c0,0-2.7-2.1-5.1-0.9c-3.5,1.8-5.3,0.9-5.3,0.9v-22.2h10.4V806z"/>
			<g>
				<g>
					<path class="st5" d="M107.7,739.4c0,0,16.3,13.7,29.8,7.1c0,0-27.8-22.6-33.9-43.4c0,0,10.9,4.2,23.5,0
						c0,0-27.4-20.8-31.3-49.3c0,0,3.9,2.4,15.6,3.6c0,0-33.5-31.5-33.5-85.6c0,54.1-33.5,85.6-33.5,85.6
						c11.7-1.2,15.6-3.6,15.6-3.6c-3.9,28.5-31.3,49.3-31.3,49.3c12.6,4.2,23.5,0,23.5,0c-6.1,20.8-33.9,43.4-33.9,43.4
						c13.5,6.5,29.8-7.1,29.8-7.1c-7.2,27.3-29.8,47.6-29.8,47.6c26.9,11.9,59.5,8.3,59.5,8.3s32.6,3.6,59.5-8.3
						C137.5,786.9,114.9,766.7,107.7,739.4z"/>
				</g>
				<path class="st2" d="M25.6,732.5c2.5-6.4,18-27.8,24.3-25.2c6.2,2.6,9.5,9.1,16.8,6.1c7.3-3.1,18,1.7,23,9.9
					c5,8.2-2.4,25-17.3,23.5c-14.9-1.6-25.2-1.6-32.9,6.6c-7.8,8.2-26.8,0.8-25.8-6.6C14.6,739.4,22.3,740.7,25.6,732.5z"/>
			</g>
		</g>
		<path class="st6" d="M715.4,770.3c0,0,25.6-10,62,0c36.4,10,107,0,107,0s-62.9,21.9-98.9,18.9C749.6,786.2,740.3,768,715.4,770.3z
			"/>
		<path class="st6" d="M104.5,682.6c0,0,18.9-8.7,45.8,0c26.9,8.6,79,0,79,0s-46.5,19-73,16.4C129.7,696.4,122.9,680.7,104.5,682.6z
			"/>
		<path class="st6" d="M209,855.5c0,0,19.1-9,46.3,0c27.2,9,79.9,0,79.9,0s-47,19.6-73.8,17C234.5,869.8,227.6,853.5,209,855.5z"/>
		<path class="st6" d="M1182.2,703.1c0,0,18.9-8.7,45.8,0c26.9,8.6,79,0,79,0s-46.5,19-73,16.4
			C1207.4,716.9,1200.5,701.1,1182.2,703.1z"/>
		<path class="st6" d="M1251.6,912.5c0,0,18.9-8.7,45.8,0c26.9,8.6,79,0,79,0s-46.5,19-73,16.4
			C1276.8,926.3,1270,910.5,1251.6,912.5z"/>
		<g>
			<g>
				<g>
					<path class="st7" d="M81.7,450.4c0,0,7.1,6,13,3.1c0,0-12.2-9.9-14.9-19c0,0,4.8,1.8,10.3,0c0,0-12-9.1-13.7-21.6
						c0,0,1.7,1,6.9,1.6c0,0-14.7-13.8-14.7-37.5c0,23.7-14.7,37.5-14.7,37.5c5.1-0.5,6.9-1.6,6.9-1.6
						c-1.7,12.5-13.7,21.6-13.7,21.6c5.5,1.8,10.3,0,10.3,0c-2.7,9.1-14.9,19-14.9,19c5.9,2.9,13-3.1,13-3.1
						c-3.1,12-13,20.8-13,20.8c11.8,5.2,26.1,3.6,26.1,3.6s14.3,1.6,26.1-3.6C94.7,471.3,84.8,462.4,81.7,450.4z"/>
				</g>
			</g>
			<g>
				<g>
					<path class="st7" d="M134.8,458.9c0,0,7.1,6,13,3.1c0,0-12.2-9.9-14.9-19c0,0,4.8,1.8,10.3,0c0,0-12-9.1-13.7-21.6
						c0,0,1.7,1,6.9,1.6c0,0-14.7-13.8-14.7-37.5c0,23.7-14.7,37.5-14.7,37.5c5.1-0.5,6.9-1.6,6.9-1.6
						c-1.7,12.5-13.7,21.6-13.7,21.6c5.5,1.8,10.3,0,10.3,0c-2.7,9.1-14.9,19-14.9,19c5.9,2.9,13-3.1,13-3.1
						c-3.1,12-13,20.8-13,20.8c11.8,5.2,26.1,3.7,26.1,3.7s14.3,1.6,26.1-3.7C147.9,479.7,138,470.8,134.8,458.9z"/>
				</g>
			</g>
			<g>
				<g>
					<path class="st7" d="M180,460c0,0,5.6,4.7,10.3,2.5c0,0-9.6-7.8-11.7-15c0,0,3.8,1.4,8.1,0c0,0-9.4-7.2-10.8-17
						c0,0,1.3,0.8,5.4,1.2c0,0-11.5-10.9-11.5-29.5c0,18.7-11.5,29.5-11.5,29.5c4-0.4,5.4-1.2,5.4-1.2c-1.4,9.8-10.8,17-10.8,17
						c4.3,1.4,8.1,0,8.1,0c-2.1,7.2-11.7,15-11.7,15c4.6,2.3,10.3-2.5,10.3-2.5c-2.5,9.4-10.3,16.4-10.3,16.4
						c9.3,4.1,20.5,2.9,20.5,2.9s11.2,1.2,20.5-2.9C190.2,476.4,182.4,469.4,180,460z"/>
				</g>
			</g>
			<g>
				<g>
					<path class="st7" d="M238.7,463.7c0,0,6,5.1,11,2.6c0,0-10.3-8.4-12.5-16c0,0,4,1.5,8.7,0c0,0-10.1-7.7-11.6-18.2
						c0,0,1.4,0.9,5.8,1.3c0,0-12.4-11.6-12.4-31.6c0,20-12.4,31.6-12.4,31.6c4.3-0.4,5.8-1.3,5.8-1.3
						c-1.4,10.5-11.6,18.2-11.6,18.2c4.7,1.5,8.7,0,8.7,0c-2.2,7.7-12.5,16-12.5,16c5,2.4,11-2.6,11-2.6c-2.6,10.1-11,17.6-11,17.6
						c10,4.4,22,3.1,22,3.1s12,1.3,22-3.1C249.7,481.3,241.4,473.8,238.7,463.7z"/>
				</g>
			</g>
			<g>
				<g>
					<path class="st7" d="M293.7,474.6c0,0,7.1,6,13,3.1c0,0-12.2-9.9-14.9-19c0,0,4.8,1.8,10.3,0c0,0-12-9.1-13.7-21.6
						c0,0,1.7,1,6.9,1.6c0,0-14.7-13.8-14.7-37.5c0,23.7-14.7,37.5-14.7,37.5c5.1-0.5,6.9-1.6,6.9-1.6
						c-1.7,12.5-13.7,21.6-13.7,21.6c5.5,1.8,10.3,0,10.3,0c-2.7,9.1-14.9,19-14.9,19c5.9,2.9,13-3.1,13-3.1
						c-3.1,12-13,20.8-13,20.8c11.8,5.2,26.1,3.7,26.1,3.7s14.3,1.6,26.1-3.7C306.7,495.5,296.8,486.6,293.7,474.6z"/>
				</g>
			</g>
			<g>
				<g>
					<path class="st8" d="M342.3,481.9c0,0,5.6,4.7,10.3,2.5c0,0-9.6-7.8-11.7-15c0,0,3.8,1.4,8.1,0c0,0-9.4-7.2-10.8-17
						c0,0,1.3,0.8,5.4,1.2c0,0-11.5-10.9-11.5-29.5c0,18.7-11.5,29.5-11.5,29.5c4-0.4,5.4-1.2,5.4-1.2c-1.4,9.8-10.8,17-10.8,17
						c4.3,1.4,8.1,0,8.1,0c-2.1,7.2-11.7,15-11.7,15c4.6,2.3,10.3-2.5,10.3-2.5c-2.5,9.4-10.3,16.4-10.3,16.4
						c9.3,4.1,20.5,2.9,20.5,2.9s11.2,1.2,20.5-2.9C352.6,498.3,344.8,491.3,342.3,481.9z"/>
				</g>
			</g>
			<g>
				<g>
					<path class="st7" d="M445.8,490.3c0,0,7.1,6,13,3.1c0,0-12.2-9.9-14.9-19c0,0,4.8,1.8,10.3,0c0,0-12-9.1-13.7-21.6
						c0,0,1.7,1,6.9,1.6c0,0-14.7-13.8-14.7-37.5c0,23.7-14.7,37.5-14.7,37.5c5.1-0.5,6.9-1.6,6.9-1.6
						c-1.7,12.5-13.7,21.6-13.7,21.6c5.5,1.8,10.3,0,10.3,0c-2.7,9.1-14.9,19-14.9,19c5.9,2.9,13-3.1,13-3.1
						c-3.1,12-13,20.8-13,20.8c11.8,5.2,26.1,3.7,26.1,3.7s14.3,1.6,26.1-3.7C458.8,511.1,448.9,502.3,445.8,490.3z"/>
				</g>
			</g>
			<g>
				<g>
					<path class="st7" d="M509,482.6c0,0,8.3,7,15.1,3.6c0,0-14.2-11.5-17.2-22.1c0,0,5.5,2.1,11.9,0c0,0-13.9-10.6-15.9-25.1
						c0,0,2,1.2,8,1.8c0,0-17-16-17-43.6c0,27.5-17,43.6-17,43.6c6-0.6,8-1.8,8-1.8c-2,14.5-15.9,25.1-15.9,25.1
						c6.4,2.1,11.9,0,11.9,0c-3.1,10.6-17.2,22.1-17.2,22.1c6.9,3.3,15.1-3.6,15.1-3.6c-3.6,13.9-15.1,24.2-15.1,24.2
						c13.7,6.1,30.3,4.2,30.3,4.2s16.6,1.8,30.3-4.2C524.1,506.8,512.7,496.5,509,482.6z"/>
				</g>
			</g>
			<g>
				<g>
					<path class="st7" d="M556.2,474.9c0,0,5.6,4.7,10.3,2.5c0,0-9.6-7.8-11.7-15c0,0,3.8,1.4,8.1,0c0,0-9.4-7.2-10.8-17
						c0,0,1.3,0.8,5.4,1.2c0,0-11.5-10.9-11.5-29.5c0,18.7-11.5,29.5-11.5,29.5c4-0.4,5.4-1.2,5.4-1.2c-1.4,9.8-10.8,17-10.8,17
						c4.3,1.4,8.1,0,8.1,0c-2.1,7.2-11.7,15-11.7,15c4.6,2.3,10.3-2.5,10.3-2.5c-2.5,9.4-10.3,16.4-10.3,16.4
						c9.3,4.1,20.5,2.9,20.5,2.9s11.2,1.2,20.5-2.9C566.4,491.3,558.6,484.4,556.2,474.9z"/>
				</g>
			</g>
			<g>
				<g>
					<path class="st7" d="M763.2,458.1c0,0,7.1,6,13,3.1c0,0-12.2-9.9-14.9-19c0,0,4.8,1.8,10.3,0c0,0-12-9.1-13.7-21.6
						c0,0,1.7,1,6.9,1.6c0,0-14.7-13.8-14.7-37.5c0,23.7-14.7,37.5-14.7,37.5c5.1-0.5,6.9-1.6,6.9-1.6
						c-1.7,12.5-13.7,21.6-13.7,21.6c5.5,1.8,10.3,0,10.3,0c-2.7,9.1-14.9,19-14.9,19c5.9,2.9,13-3.1,13-3.1
						c-3.1,12-13,20.8-13,20.8c11.8,5.2,26.1,3.6,26.1,3.6s14.3,1.6,26.1-3.6C776.2,478.9,766.3,470.1,763.2,458.1z"/>
				</g>
			</g>
			<g>
				<g>
					<path class="st7" d="M831,472.6c0,0,8.6,7.2,15.7,3.8c0,0-14.7-11.9-17.9-23c0,0,5.7,2.2,12.4,0c0,0-14.5-11-16.5-26.1
						c0,0,2.1,1.3,8.3,1.9c0,0-17.7-16.7-17.7-45.3c0,28.6-17.7,45.3-17.7,45.3c6.2-0.6,8.3-1.9,8.3-1.9
						c-2.1,15.1-16.5,26.1-16.5,26.1c6.7,2.2,12.4,0,12.4,0c-3.2,11-17.9,23-17.9,23c7.1,3.5,15.7-3.8,15.7-3.8
						c-3.8,14.5-15.7,25.1-15.7,25.1c14.2,6.3,31.5,4.4,31.5,4.4s17.2,1.9,31.5-4.4C846.8,497.7,834.8,487,831,472.6z"/>
				</g>
			</g>
			<g>
				<g>
					<path class="st7" d="M890.1,469.5c0,0,7.1,6,13,3.1c0,0-12.2-9.9-14.9-19c0,0,4.8,1.8,10.3,0c0,0-12-9.1-13.7-21.6
						c0,0,1.7,1,6.9,1.6c0,0-14.7-13.8-14.7-37.5c0,23.7-14.7,37.5-14.7,37.5c5.1-0.5,6.9-1.6,6.9-1.6
						c-1.7,12.5-13.7,21.6-13.7,21.6c5.5,1.8,10.3,0,10.3,0c-2.7,9.1-14.9,19-14.9,19c5.9,2.9,13-3.1,13-3.1
						c-3.1,12-13,20.8-13,20.8c11.8,5.2,26.1,3.7,26.1,3.7s14.3,1.6,26.1-3.7C903.1,490.3,893.2,481.5,890.1,469.5z"/>
				</g>
			</g>
			<g>
				<g>
					<path class="st7" d="M947.6,464.3c0,0,7.1,6,13,3.1c0,0-12.2-9.9-14.9-19c0,0,4.8,1.8,10.3,0c0,0-12-9.1-13.7-21.6
						c0,0,1.7,1,6.9,1.6c0,0-14.7-13.8-14.7-37.5c0,23.7-14.7,37.5-14.7,37.5c5.1-0.5,6.9-1.6,6.9-1.6
						c-1.7,12.5-13.7,21.6-13.7,21.6c5.5,1.8,10.3,0,10.3,0c-2.7,9.1-14.9,19-14.9,19c5.9,2.9,13-3.1,13-3.1
						c-3.1,12-13,20.8-13,20.8c11.8,5.2,26.1,3.7,26.1,3.7s14.3,1.6,26.1-3.7C960.6,485.1,950.7,476.2,947.6,464.3z"/>
				</g>
			</g>
			<g>
				<g>
					<path class="st7" d="M1011.4,473.3c0,0,8.6,7.2,15.7,3.8c0,0-14.7-11.9-17.9-22.9c0,0,5.7,2.2,12.4,0c0,0-14.5-11-16.5-26.1
						c0,0,2.1,1.3,8.3,1.9c0,0-17.7-16.7-17.7-45.3c0,28.6-17.7,45.3-17.7,45.3c6.2-0.6,8.3-1.9,8.3-1.9
						c-2.1,15.1-16.5,26.1-16.5,26.1c6.7,2.2,12.4,0,12.4,0c-3.2,11-17.9,22.9-17.9,22.9c7.1,3.5,15.7-3.8,15.7-3.8
						c-3.8,14.5-15.7,25.1-15.7,25.1c14.2,6.3,31.5,4.4,31.5,4.4s17.2,1.9,31.5-4.4C1027.1,498.5,1015.1,487.8,1011.4,473.3z"/>
				</g>
			</g>
			<g>
				<g>
					<path class="st7" d="M1084.4,471.7c0,0,8.6,7.2,15.7,3.8c0,0-14.7-11.9-17.9-22.9c0,0,5.7,2.2,12.4,0c0,0-14.5-11-16.5-26.1
						c0,0,2.1,1.3,8.3,1.9c0,0-17.7-16.7-17.7-45.3c0,28.6-17.7,45.3-17.7,45.3c6.2-0.6,8.3-1.9,8.3-1.9
						c-2.1,15.1-16.5,26.1-16.5,26.1c6.7,2.2,12.4,0,12.4,0c-3.2,11-17.9,22.9-17.9,22.9c7.1,3.5,15.7-3.8,15.7-3.8
						c-3.8,14.5-15.7,25.1-15.7,25.1c14.2,6.3,31.5,4.4,31.5,4.4s17.2,1.9,31.5-4.4C1100.1,496.8,1088.2,486.2,1084.4,471.7z"/>
				</g>
			</g>
			<g>
				<g>
					<path class="st7" d="M1203.8,450.1c0,0,7.1,6,13,3.1c0,0-12.2-9.9-14.9-19c0,0,4.8,1.8,10.3,0c0,0-12-9.1-13.7-21.6
						c0,0,1.7,1,6.9,1.6c0,0-14.7-13.8-14.7-37.5c0,23.7-14.7,37.5-14.7,37.5c5.1-0.5,6.9-1.6,6.9-1.6
						c-1.7,12.5-13.7,21.6-13.7,21.6c5.5,1.8,10.3,0,10.3,0c-2.7,9.1-14.9,19-14.9,19c5.9,2.9,13-3.1,13-3.1
						c-3.1,12-13,20.8-13,20.8c11.8,5.2,26.1,3.6,26.1,3.6s14.3,1.6,26.1-3.6C1216.8,471,1206.9,462.1,1203.8,450.1z"/>
				</g>
			</g>
			<g>
				<g>
					<path class="st7" d="M1257.6,464.3c0,0,7.1,6,13,3.1c0,0-12.2-9.9-14.9-19c0,0,4.8,1.8,10.3,0c0,0-12-9.1-13.7-21.6
						c0,0,1.7,1,6.9,1.6c0,0-14.7-13.8-14.7-37.5c0,23.7-14.7,37.5-14.7,37.5c5.1-0.5,6.9-1.6,6.9-1.6
						c-1.7,12.5-13.7,21.6-13.7,21.6c5.5,1.8,10.3,0,10.3,0c-2.7,9.1-14.9,19-14.9,19c5.9,2.9,13-3.1,13-3.1
						c-3.1,12-13,20.8-13,20.8c11.8,5.2,26.1,3.7,26.1,3.7s14.3,1.6,26.1-3.7C1270.7,485.1,1260.8,476.2,1257.6,464.3z"/>
				</g>
			</g>
			<g>
				<g>
					<path class="st7" d="M1317.4,446.2c0,0,8.6,7.2,15.7,3.8c0,0-14.7-11.9-17.9-22.9c0,0,5.7,2.2,12.4,0c0,0-14.5-11-16.5-26.1
						c0,0,2.1,1.3,8.3,1.9c0,0-17.7-16.7-17.7-45.3c0,28.6-17.7,45.3-17.7,45.3c6.2-0.6,8.3-1.9,8.3-1.9
						c-2.1,15.1-16.5,26.1-16.5,26.1c6.7,2.2,12.4,0,12.4,0c-3.2,11-17.9,22.9-17.9,22.9c7.1,3.5,15.7-3.8,15.7-3.8
						c-3.8,14.5-15.7,25.1-15.7,25.1c14.2,6.3,31.5,4.4,31.5,4.4s17.2,1.9,31.5-4.4C1333.1,471.4,1321.2,460.7,1317.4,446.2z"/>
				</g>
			</g>
			<g>
				<g>
					<path class="st7" d="M1374.1,433.5c0,0,7.1,6,13,3.1c0,0-12.2-9.9-14.9-19c0,0,4.8,1.8,10.3,0c0,0-12-9.1-13.7-21.6
						c0,0,1.7,1,6.9,1.6c0,0-14.7-13.8-14.7-37.5c0,23.7-14.7,37.5-14.7,37.5c5.1-0.5,6.9-1.6,6.9-1.6
						c-1.7,12.5-13.7,21.6-13.7,21.6c5.5,1.8,10.3,0,10.3,0c-2.7,9.1-14.9,19-14.9,19c5.9,2.9,13-3.1,13-3.1
						c-3.1,12-13,20.8-13,20.8c11.8,5.2,26.1,3.6,26.1,3.6s14.3,1.6,26.1-3.6C1387.1,454.3,1377.2,445.5,1374.1,433.5z"/>
				</g>
			</g>
		</g>
		<g>
			<path class="st4" d="M1363.2,806c0,0,2.7-2.1,5.1-0.9c3.5,1.8,5.3,0.9,5.3,0.9v-22.2h-10.4V806z"/>
			<g>
				<g>
					<path class="st5" d="M1339.8,739.4c0,0-16.3,13.7-29.8,7.1c0,0,27.8-22.6,33.9-43.4c0,0-10.9,4.2-23.5,0
						c0,0,27.4-20.8,31.3-49.3c0,0-3.9,2.4-15.6,3.6c0,0,33.5-31.5,33.5-85.6c0,54.1,33.5,85.6,33.5,85.6
						c-11.7-1.2-15.6-3.6-15.6-3.6c3.9,28.5,31.3,49.3,31.3,49.3c-12.6,4.2-23.5,0-23.5,0c6.1,20.8,33.9,43.4,33.9,43.4
						c-13.5,6.5-29.8-7.1-29.8-7.1c7.2,27.3,29.8,47.6,29.8,47.6c-26.9,11.9-59.5,8.3-59.5,8.3s-32.6,3.6-59.5-8.3
						C1310,786.9,1332.6,766.7,1339.8,739.4z"/>
				</g>
				<path class="st2" d="M1421.9,732.5c-2.5-6.4-18-27.8-24.3-25.2c-6.2,2.6-9.5,9.1-16.8,6.1c-7.3-3.1-18,1.7-23,9.9
					c-5,8.2,2.4,25,17.3,23.5c14.9-1.6,25.2-1.6,32.9,6.6c7.8,8.2,26.8,0.8,25.8-6.6C1432.9,739.4,1425.2,740.7,1421.9,732.5z"/>
			</g>
		</g>
		<g>
			<path class="st4" d="M117.7,566.7c0,0-2.2-1.3-4.1-0.5c-2.8,1.1-4.3,0.5-4.3,0.5v-13.3h8.4V566.7z"/>
			<g>
				<path class="st5" d="M136.2,525.4c0,0,12.4,8.5,22.6,4.4c0,0-21.1-14-25.8-26.9c0,0,8.3,2.6,17.8,0c0,0-20.8-12.9-23.8-30.6
					c0,0,3,1.5,11.9,2.2c0,0-25.4-19.5-25.4-53.1c0,33.6-25.4,53.1-25.4,53.1c8.9-0.7,11.9-2.2,11.9-2.2
					c-3,17.7-23.8,30.6-23.8,30.6c9.6,2.6,17.8,0,17.8,0c-4.6,12.9-25.8,26.9-25.8,26.9c10.2,4.1,22.6-4.4,22.6-4.4
					c-5.4,17-22.6,29.5-22.6,29.5c20.5,7.4,45.3,5.2,45.3,5.2s24.8,2.2,45.3-5.2C158.8,554.9,141.6,542.4,136.2,525.4z"/>
				<path class="st2" d="M143.4,471.5c-4-4.5-12.6-12.6-19.8-27.6c-7.2-15.1-5-25.1-10.1-25.9c-5.1-0.8-12.9,26.9-17.8,37.7
					c-4.9,10.8-11.8,13.1-15,17.7c-3.1,4.5,8.2,3.8,12.4,2.4c-3.5,4.2-9.8,11.1-13.3,13.5c-7.8,5.3-15.5,9.9-5.6,13.4
					c6,2.1,16-10.1,20.7-14.3c13.1-11.3,30.2-14.7,37.8-11.9C140.5,479.4,147.4,476.1,143.4,471.5z"/>
			</g>
		</g>
		<g>
			<path class="st4" d="M225.3,567.9c0,0-2.2-1.3-4.1-0.5c-2.8,1.1-4.3,0.5-4.3,0.5v-13.3h8.4V567.9z"/>
			<g>
				<g>
					<path class="st5" d="M244.3,528c0,0,13.3,8.2,24.2,4.3c0,0-22.6-13.5-27.6-26c0,0,8.8,2.5,19.1,0c0,0-22.3-12.5-25.5-29.5
						c0,0,3.2,1.4,12.7,2.1c0,0-27.2-18.9-27.2-51.3c0,32.4-27.2,51.3-27.2,51.3c9.5-0.7,12.7-2.1,12.7-2.1
						c-3.2,17.1-25.5,29.5-25.5,29.5c10.3,2.5,19.1,0,19.1,0c-4.9,12.5-27.6,26-27.6,26c11,3.9,24.2-4.3,24.2-4.3
						c-5.8,16.4-24.2,28.5-24.2,28.5c21.9,7.1,48.4,5,48.4,5s26.5,2.1,48.4-5C268.5,556.5,250.1,544.4,244.3,528z"/>
				</g>
				<path class="st2" d="M192.1,474.9c-2.2,2.9-1.2,6.4,3.3,5.5c4.5-0.8,6.3-4.1,12.6-5.5c6.3-1.4,10.4,5.3,15.5,4.7
					c5.1-0.6,13.9,3.5,14.8,11.8c0.9,8.3,4.1,13.7,8.4,15.8c4.3,2.1,15.5,2.5,15.9-1.6c0.4-4.1-12.2-9.2-15.9-12.9
					c-3.7-3.7-9.5-12.1-4.5-12.1c5.1,0,9.7-0.8,6.5-4.9c-3.3-4.1-21-22.5-23.4-32c-2.4-9.4-1.7-18.4-5.2-18
					C216.6,426.2,206.8,455.7,192.1,474.9z"/>
				<path class="st2" d="M177.5,523.9c2.1-3.8,14.7-16.7,19.7-15.1c5.1,1.6,7.7,5.5,13.6,3.6c5.9-1.8,14.7,1,18.7,5.9
					c4.1,4.9-2,15-14.1,14.1c-12.2-0.9-20.5-0.9-26.8,4c-6.3,4.9-21.8,0.4-21-4C168.5,528,174.8,528.8,177.5,523.9z"/>
				<path class="st2" d="M243.1,522.9c6.4-4.5,13.4-5,16.9-0.6c3.5,4.4,15.5,13.3,12.4,16C269.3,540.9,236.6,527.4,243.1,522.9z"/>
			</g>
		</g>
		<g>
			<path class="st4" d="M497,593.3c0,0-2.2-1.3-4.1-0.5c-2.8,1.1-4.3,0.5-4.3,0.5V580h8.4V593.3z"/>
			<g>
				<g>
					<path class="st5" d="M472.3,547.7c0,0-11.3,9.6-20.6,5c0,0,19.2-15.9,23.4-30.5c0,0-7.5,2.9-16.2,0c0,0,18.9-14.6,21.6-34.7
						c0,0-2.7,1.7-10.8,2.5c0,0,23.1-22.2,23.1-60.2c0,38.1,23.1,60.2,23.1,60.2c-8.1-0.8-10.8-2.5-10.8-2.5
						c2.7,20.1,21.6,34.7,21.6,34.7c-8.7,2.9-16.2,0-16.2,0c4.2,14.6,23.4,30.5,23.4,30.5c-9.3,4.6-20.6-5-20.6-5
						c5,19.2,20.6,33.5,20.6,33.5c-18.6,8.4-41.1,5.9-41.1,5.9s-22.5,2.5-41.1-5.9C451.7,581.2,467.3,567,472.3,547.7z"/>
				</g>
				<path class="st2" d="M516.6,485.4c1.9,3.4,1,7.5-2.8,6.5c-3.8-1-5.4-4.8-10.7-6.5c-5.4-1.7-8.8,6.3-13.1,5.5
					c-4.3-0.7-11.8,4.2-12.6,13.9c-0.7,9.7-3.5,16-7.1,18.5c-3.6,2.5-13.1,3-13.5-1.8c-0.3-4.8,10.4-10.8,13.5-15.2
					c3.1-4.3,8.1-14.2,3.8-14.2c-4.3,0-8.3-1-5.5-5.8c2.8-4.8,17.8-26.5,19.9-37.5c2.1-11.1,1.5-21.7,4.4-21.2
					C495.8,428.1,504.1,462.8,516.6,485.4z"/>
				<path class="st2" d="M529,542.9c-1.7-4.5-12.4-19.6-16.8-17.7c-4.3,1.8-6.6,6.4-11.6,4.3c-5-2.2-12.4,1.2-15.9,7
					c-3.5,5.8,1.7,17.6,12,16.5c10.3-1.1,17.4-1.1,22.8,4.7c5.4,5.8,18.5,0.5,17.8-4.7C536.6,547.7,531.3,548.7,529,542.9z"/>
				<path class="st2" d="M473.3,541.6c-5.4-5.3-11.4-5.9-14.3-0.7c-2.9,5.2-13.1,15.7-10.5,18.8C451,562.8,478.8,547,473.3,541.6z"
					/>
			</g>
		</g>
		<g>
			<g>
				<g>
					<g>
						<polygon class="st9" points="324.7,440.2 306.3,457.1 306.3,405.1 324.7,405.1 						"/>
						<rect x="318.9" y="405.1" class="st10" width="5.8" height="35.1"/>
					</g>
					<g>
						<path class="st2" d="M335,398.9c0,4.7-4.1,8.5-9.1,8.5h-20.3c-5,0-9.1-3.8-9.1-8.5l0,0c0-4.7,4.1-8.5,9.1-8.5H326
							C331,390.4,335,394.2,335,398.9L335,398.9z"/>
						<path class="st6" d="M305.6,407.4H326c5,0,9.1-3.8,9.1-8.5c0-2.3-1-4.4-2.6-6c0.4,9.8-12.1,10.8-22.5,10.6
							c-10.4-0.2-13.3-4.6-13.3-4.6C296.6,403.6,300.6,407.4,305.6,407.4z"/>
					</g>
				</g>
				<g>
					<g>
						<polygon class="st6" points="356.6,421.6 291.5,479.1 291.5,610.1 421.7,610.1 421.7,479.1 						"/>
						<g>
							<g>
								<g>
									<path class="st11" d="M336.2,475.4c0,11.3,9.1,20.5,20.4,20.5c11.3,0,20.4-9.2,20.4-20.5c0-11.3-9.1-20.5-20.4-20.5
										C345.3,454.9,336.2,464.1,336.2,475.4z"/>
									<path class="st12" d="M339.7,475.4c0,9.4,7.6,17,16.9,17c9.3,0,16.9-7.6,16.9-17c0-9.4-7.6-17-16.9-17
										C347.3,458.4,339.7,466.1,339.7,475.4z"/>
								</g>
								<polygon class="st11" points="338.4,472.6 353.8,472.6 353.8,457.1 359.4,457.1 359.4,472.6 374.8,472.6 374.8,478.3 
									359.4,478.3 359.4,493.8 353.8,493.8 353.8,478.3 338.4,478.3 								"/>
							</g>
							<g>
								<g>
									<polygon class="st12" points="337.2,533.3 340.2,522.6 352.2,515.1 364.2,515.6 373.2,522.4 374.2,529.7 374.6,533.1 
																			"/>
								</g>
								<g>
									<path class="st11" d="M379,533.3v76.9h-44.7v-76.9c0-6.7,4-19.2,18.9-21.1l2.9-0.3l0.6,0l3.3,0.2
										C374.9,514.1,379,526.6,379,533.3z M366,519.9l-6.3,11.1h13.2C372.4,528,370.8,522.9,366,519.9z M350.6,518.3l6,10.5
										l6-10.5c-1.6-0.5-3.4-0.9-5.6-0.9l-0.5,0l-0.4,0C354.1,517.4,352.2,517.7,350.6,518.3z M340.3,531h13.2l-6.3-11.1
										C342.3,522.9,340.8,528,340.3,531z M373.2,604.9v-69.6H340v69.6H373.2z"/>
									<g>
										<path class="st11" d="M349,568.9c0,1.3-1.2,2.4-2.6,2.4c-1.4,0-2.6-1.1-2.6-2.4c0-1.3,1.2-2.4,2.6-2.4
											C347.8,566.5,349,567.6,349,568.9z"/>
										<path class="st11" d="M343.8,538.6h24.8v28.8h-16.9c0,0-1.3-4.4-7.9-3.6V538.6z"/>
										<path class="st11" d="M343.8,601.2h24.8v-30.5h-16.9c0,0-1.3,4.4-7.9,3.6V601.2z"/>
									</g>
								</g>
							</g>
						</g>
					</g>
					<path class="st2" d="M435.7,468.3l-72.1-62c-2-1.7-4.5-2.5-7-2.4c-2.5-0.1-5,0.7-7,2.4l-72.1,62c-4.4,3.8-4.8,10.7-0.8,15.3
						c4,4.7,10.7,5.4,15.2,1.6l64.7-55.7l64.7,55.7c4.4,3.8,11.2,3.1,15.2-1.6C440.5,479,440.1,472.1,435.7,468.3z"/>
				</g>
				<path class="st6" d="M356.6,421.6c-5.6,0-54.3,43.1-65.1,52.1c-10.8,9-17.5,4.2-17.5,4.2c0.3,2,1.2,4,2.6,5.7
					c4,4.7,10.7,5.4,15.2,1.6l64.7-55.7l64.7,55.7c4.4,3.8,11.2,3.1,15.2-1.6c4-4.7,3.6-11.5-0.8-15.3
					C424.5,484.5,363.6,421.6,356.6,421.6z"/>
			</g>
			<path class="st2" d="M259.8,614.8c10.8-6.7,27.5-15.9,44.7-11.8c17.2,4.1,41.4,8.7,64.7,3.7c23.3-5,56.3-12.4,86.6,1.7v16.3
				H259.8V614.8z"/>
		</g>
		<g>
			<g>
				<g>
					<g>
						<polygon class="st9" points="609.5,416.2 585.5,438.2 585.5,370.6 609.5,370.6 						"/>
						<rect x="601.9" y="370.6" class="st10" width="7.6" height="45.6"/>
					</g>
					<g>
						<path class="st2" d="M622.8,362.6c0,6.1-5.3,11-11.8,11h-26.4c-6.5,0-11.8-4.9-11.8-11l0,0c0-6.1,5.3-11,11.8-11h26.4
							C617.6,351.6,622.8,356.5,622.8,362.6L622.8,362.6z"/>
						<path class="st6" d="M584.7,373.7h26.4c6.5,0,11.8-4.9,11.8-11c0-3-1.3-5.8-3.4-7.8c0.5,12.7-15.7,14-29.2,13.7
							c-13.5-0.3-17.3-6-17.3-6C572.9,368.7,578.2,373.7,584.7,373.7z"/>
					</g>
				</g>
				<g>
					<g>
						<polygon class="st6" points="650.9,392.1 566.4,466.7 566.4,636.8 735.3,636.8 735.3,466.7 						"/>
						<g>
							<g>
								<g>
									<path class="st13" d="M624.4,462c0,14.7,11.9,26.6,26.5,26.6c14.6,0,26.5-11.9,26.5-26.6s-11.8-26.6-26.5-26.6
										C636.3,435.4,624.4,447.3,624.4,462z"/>
									<path class="st12" d="M629,462c0,12.2,9.8,22.1,21.9,22.1c12.1,0,21.9-9.9,21.9-22.1c0-12.2-9.8-22.1-21.9-22.1
										C638.8,439.9,629,449.8,629,462z"/>
								</g>
								<polygon class="st13" points="627.2,458.3 647.2,458.3 647.2,438.2 654.6,438.2 654.6,458.3 674.6,458.3 674.6,465.7 
									654.6,465.7 654.6,485.9 647.2,485.9 647.2,465.7 627.2,465.7 								"/>
							</g>
							<g>
								<g>
									<polygon class="st12" points="625.6,537.2 629.6,523.3 645.1,513.5 660.8,514.2 672.4,523 673.7,532.5 674.3,536.9 
																			"/>
								</g>
								<g>
									<path class="st13" d="M679.9,537.2V637h-58.1v-99.8c0-8.7,5.3-25,24.6-27.4l3.8-0.3l0.8,0l4.3,0.3
										C674.7,512.2,679.9,528.5,679.9,537.2z M663.1,519.7l-8.2,14.4h17.1C671.4,530.2,669.4,523.7,663.1,519.7z M643.1,517.6
										l7.8,13.6l7.8-13.6c-2.1-0.7-4.4-1.1-7.2-1.2l-0.6,0l-0.5,0C647.6,516.5,645.2,516.9,643.1,517.6z M629.7,534.1h17.1
										l-8.2-14.4C632.4,523.7,630.3,530.2,629.7,534.1z M672.4,630.1v-90.4h-43v90.4H672.4z"/>
									<g>
										<path class="st13" d="M641,583.3c0,1.7-1.5,3.1-3.3,3.1c-1.9,0-3.4-1.4-3.4-3.1c0-1.7,1.5-3.1,3.4-3.1
											C639.5,580.2,641,581.6,641,583.3z"/>
										<path class="st13" d="M634.3,544.1h32.3v37.3h-22c0,0-1.7-5.8-10.3-4.6V544.1z"/>
										<path class="st13" d="M634.3,625.3h32.3v-39.6h-22c0,0-1.7,5.8-10.3,4.6V625.3z"/>
									</g>
								</g>
							</g>
						</g>
					</g>
					<path class="st2" d="M753.6,452.7l-93.6-80.5c-2.6-2.2-5.8-3.3-9.1-3.2c-3.2-0.1-6.5,0.9-9.1,3.2l-93.6,80.5
						c-5.7,4.9-6.2,13.8-1.1,19.9c5.1,6.1,14,6.9,19.7,2l84.1-72.3l84.1,72.3c5.7,4.9,14.6,4,19.7-2
						C759.8,466.6,759.3,457.7,753.6,452.7z"/>
				</g>
				<path class="st6" d="M650.9,392.1c-7.3,0-70.5,56-84.5,67.7c-14,11.7-22.7,5.4-22.7,5.4c0.4,2.6,1.5,5.2,3.4,7.4
					c5.1,6.1,14,6.9,19.7,2l84.1-72.3l84.1,72.3c5.7,4.9,14.6,4,19.7-2c5.1-6.1,4.7-15-1.1-19.9
					C739.1,473.7,659.9,392.1,650.9,392.1z"/>
			</g>
			<path class="st2" d="M779.5,643c-14-8.7-35.7-20.6-58-15.3c-22.3,5.4-53.8,11.3-84,4.8c-30.2-6.5-73.1-16.1-112.4,2.1v21.1h254.4
				V643z"/>
		</g>
		<g>
			<path class="st4" d="M1339.3,536.3c0,0,2.1-1.1,4.1-0.5c2.8,1,4.2,0.5,4.2,0.5v-11.9h-8.3V536.3z"/>
			<g>
				<g>
					<path class="st5" d="M1363.7,495.4c0,0,11.1,8.6,20.2,4.5c0,0-18.9-14.3-23-27.4c0,0,7.4,2.6,16,0c0,0-18.6-13.1-21.3-31.1
						c0,0,2.7,1.5,10.6,2.2c0,0-22.7-19.9-22.7-54c0,34.1-22.7,54-22.7,54c8-0.8,10.6-2.2,10.6-2.2c-2.7,18-21.3,31.1-21.3,31.1
						c8.6,2.6,16,0,16,0c-4.1,13.1-23,27.4-23,27.4c9.2,4.1,20.2-4.5,20.2-4.5c-4.9,17.3-20.2,30-20.2,30
						c18.3,7.5,40.5,5.3,40.5,5.3s22.2,2.2,40.5-5.3C1383.9,525.4,1368.6,512.6,1363.7,495.4z"/>
				</g>
				<path class="st2" d="M1320.1,439.4c-1.8,3-1,6.7,2.7,5.8c3.7-0.9,5.3-4.3,10.5-5.8c5.3-1.5,8.7,5.6,12.9,5
					c4.3-0.6,11.6,3.7,12.4,12.4c0.7,8.7,3.5,14.4,7,16.6c3.6,2.2,12.9,2.7,13.3-1.6c0.3-4.3-10.2-9.7-13.3-13.6
					c-3.1-3.9-8-12.7-3.7-12.7c4.2,0,8.1-0.9,5.4-5.2c-2.7-4.3-17.5-23.8-19.6-33.7c-2-9.9-1.4-19.4-4.4-19
					C1340.5,388.1,1332.3,419.2,1320.1,439.4z"/>
				<path class="st2" d="M1307.9,491.1c1.7-4,12.2-17.6,16.5-15.9c4.3,1.7,6.5,5.8,11.4,3.8c4.9-1.9,12.2,1.1,15.6,6.3
					c3.4,5.2-1.6,15.8-11.8,14.8c-10.2-1-17.1-1-22.4,4.2c-5.3,5.2-18.2,0.5-17.5-4.2C1300.4,495.4,1305.7,496.2,1307.9,491.1z"/>
				<path class="st2" d="M1362.7,489.9c5.4-4.8,11.2-5.3,14.1-0.7c2.9,4.7,12.9,14,10.4,16.9
					C1384.6,508.9,1357.3,494.7,1362.7,489.9z"/>
			</g>
		</g>
		<path class="st6" d="M319.3,608.3c0,0,57.6,18.8,43.8,51.9c-13.8,33.1-45.2,73.6,4.9,115.3c76.7,63.9,82.3,92.5,56.4,163.1h220.2
			c0,0-7.1-105.1-91-144.5c-83.8-39.4-146.1-79.5-129.3-124.1c16.9-44.6-39.6-63.7-60.3-65.3L319.3,608.3z"/>
		<path class="st6" d="M619.3,629.3c0,0-35.7,20.2-55.4,58.1c-22.7,43.6,4.3,89,30.5,147.5c25,56-10.5,74.4-53.3,103.7h169.4
			c0,0,38-37.7,19-92.8c-19-55.1-103.3-82.1-94.4-139.2c8.9-57.2,36.7-62,42.3-71.8L619.3,629.3z"/>
		<g>
			<ellipse class="st6" cx="924.5" cy="540.9" rx="89.3" ry="15.2"/>
			<g>
				<polygon class="st12" points="864.4,403.1 859.8,383.9 864.4,382.6 875,382.8 879.8,383.7 875.6,403.1 872.4,402.4 867.4,402.3 
									"/>
				<path class="st14" d="M877.9,527.5l-2.6-25.6c0,0-2.2-2-0.6-3.6c0,0,0.6-0.8,0.6-1.6c0-0.8-0.6-1.3-0.6-1.3s-1.9-1.3-0.5-3.1
					l-1-1.8v-34.6c0,0,1.7-0.6,1.7-1.8c0-0.8-1.7-1.5-1.7-1.5h0v-47.8c1.8-0.3,3.1-0.8,3.1-0.8l4.1-20.2l0.7,0.1l1.8-0.6l-5.1-1.5
					c-0.5-0.6-1.7-2.1-1.8-3.7l-1.3-0.4c0,0-1.3-3.7-4.2-4.5c-0.4-1.3,0.5-1.8,0.5-1.8l-0.7-1c0.7-2-0.6-3.2-0.6-3.2
					c-1.3,1.6-0.4,3.3-0.4,3.3l-0.6,0.9c0.7,0.5,0.7,1.2,0.5,1.7c-3,0.8-4.3,4.5-4.3,4.5l-1.3,0.4c-0.1,1.7-1.5,3.1-1.9,3.5l-5,1.6
					l1.7,0.6l0.9-0.2L864,404c0,0,1,0.4,2.5,0.8v47.8c0,0-1.7,0.5-1.7,1.5c0,1,1.7,1.8,1.7,1.8v34.6l-1,1.8c1.4,1.8-0.5,3.1-0.5,3.1
					s-0.6,0.6-0.6,1.3c0,0.7,0.6,1.6,0.6,1.6c1.6,1.8-0.6,3.6-0.6,3.6l-2.6,25.6v4.5l-3.1,2.3v3.4h22.4v-3.4l-3.1-2.3V527.5z
					 M874,383.3l-1.7,18.6l-4.9,0l-2.4-18.6H874z M875.3,402.5l-1.9-0.4l1.7-18.6l3.9,0.8L875.3,402.5z M864.9,402.5l-4.3-18.3
					l3.2-0.8l2.4,18.7L864.9,402.5z"/>
			</g>
			<g>
				<g>
					<g>
						<rect x="900" y="496.3" class="st14" width="4" height="37.2"/>
						<rect x="975.1" y="496.3" class="st14" width="4" height="37.2"/>
					</g>
					<g>
						<g>
							<g>
								<rect x="894" y="491.7" class="st15" width="91.2" height="8.8"/>
								<circle class="st14" cx="902.4" cy="496.1" r="0.8"/>
							</g>
							<path class="st14" d="M978.2,496.1c0,0.4-0.3,0.8-0.8,0.8c-0.4,0-0.8-0.3-0.8-0.8c0-0.4,0.3-0.8,0.8-0.8
								C977.9,495.4,978.2,495.7,978.2,496.1z"/>
						</g>
						<g>
							<rect x="894" y="501.9" class="st15" width="91.2" height="8.8"/>
							<g>
								<circle class="st14" cx="902.5" cy="506.3" r="0.8"/>
								<circle class="st14" cx="977.5" cy="506.3" r="0.8"/>
							</g>
						</g>
						<g>
							<rect x="894" y="512" class="st15" width="91.2" height="8.8"/>
							<g>
								<circle class="st14" cx="902.5" cy="516.4" r="0.8"/>
								<circle class="st14" cx="977.5" cy="516.4" r="0.8"/>
							</g>
						</g>
					</g>
				</g>
				<g>
					<polygon class="st16" points="985.2,522.2 939.6,522.2 894,522.2 887.3,524 887.3,526.6 939.6,526.6 991.8,526.6 991.8,524 
											"/>
					<g>
						<rect x="889.2" y="526.6" class="st14" width="4" height="11"/>
						<rect x="985.9" y="526.6" class="st14" width="4" height="11"/>
					</g>
				</g>
			</g>
		</g>
		<g>
			<path class="st4" d="M791,563.1c0,0,2.4-1.3,4.5-0.5c3.1,1.1,4.7,0.5,4.7,0.5v-13.3H791V563.1z"/>
			<g>
				<g>
					<path class="st5" d="M818.1,517.5c0,0,12.3,9.6,22.6,5c0,0-21.1-15.9-25.7-30.5c0,0,8.2,2.9,17.8,0c0,0-20.8-14.6-23.7-34.7
						c0,0,3,1.7,11.9,2.5c0,0-25.4-22.2-25.4-60.2c0,38.1-25.4,60.2-25.4,60.2c8.9-0.8,11.9-2.5,11.9-2.5
						c-3,20.1-23.7,34.7-23.7,34.7c9.6,2.9,17.8,0,17.8,0c-4.6,14.6-25.7,30.5-25.7,30.5c10.2,4.6,22.6-5,22.6-5
						c-5.4,19.2-22.6,33.5-22.6,33.5c20.4,8.4,45.1,5.9,45.1,5.9s24.7,2.5,45.1-5.9C840.7,550.9,823.6,536.7,818.1,517.5z"/>
				</g>
				<path class="st2" d="M769.6,455.1c-2,3.4-1.1,7.5,3,6.5c4.2-1,5.9-4.8,11.8-6.5c5.9-1.7,9.7,6.3,14.4,5.5
					c4.7-0.7,13,4.2,13.8,13.9c0.8,9.7,3.9,16,7.8,18.5c4,2.5,14.4,3,14.8-1.8c0.4-4.8-11.4-10.8-14.8-15.2
					c-3.4-4.3-8.9-14.2-4.2-14.2c4.7,0,9.1-1,6-5.8c-3-4.8-19.5-26.5-21.8-37.5c-2.3-11.1-1.6-21.7-4.9-21.2
					C792.3,397.8,783.2,432.5,769.6,455.1z"/>
				<path class="st2" d="M755.9,512.6c1.9-4.5,13.6-19.6,18.4-17.7c4.7,1.9,7.2,6.4,12.7,4.3c5.5-2.2,13.6,1.2,17.4,7
					c3.8,5.8-1.8,17.6-13.1,16.5c-11.3-1.1-19.1-1.1-25,4.7c-5.9,5.8-20.3,0.5-19.5-4.7C747.6,517.4,753.5,518.4,755.9,512.6z"/>
				<path class="st2" d="M817,511.4c6-5.3,12.5-5.9,15.7-0.7c3.2,5.2,14.4,15.7,11.6,18.8C841.5,532.6,811,516.7,817,511.4z"/>
			</g>
		</g>
		<g>
			<path class="st4" d="M1048.7,565.8c0,0,2.3-1.4,4.4-0.6c3,1.1,4.5,0.6,4.5,0.6v-14.2h-8.9V565.8z"/>
			<g>
				<path class="st5" d="M1029.1,521.7c0,0-13.1,9.1-24,4.7c0,0,22.4-15,27.3-28.8c0,0-8.8,2.8-18.9,0c0,0,22-13.8,25.2-32.7
					c0,0-3.1,1.6-12.6,2.4c0,0,26.9-20.9,26.9-56.8c0,35.9,26.9,56.8,26.9,56.8c-9.4-0.8-12.6-2.4-12.6-2.4
					c3.2,18.9,25.2,32.7,25.2,32.7c-10.1,2.8-18.9,0-18.9,0c4.9,13.8,27.3,28.8,27.3,28.8c-10.9,4.3-24-4.7-24-4.7
					c5.8,18.1,24,31.6,24,31.6c-21.7,7.9-47.9,5.5-47.9,5.5s-26.2,2.4-47.9-5.5C1005.1,553.3,1023.3,539.9,1029.1,521.7z"/>
				<path class="st2" d="M1021.4,464.1c4.3-4.8,13.3-13.4,21-29.5c7.6-16.1,5.2-26.9,10.7-27.7c5.4-0.8,13.6,28.7,18.8,40.3
					c5.2,11.5,12.5,14,15.9,18.9c3.3,4.8-8.7,4-13.2,2.6c3.7,4.5,10.3,11.8,14.1,14.4c8.2,5.7,16.4,10.6,6,14.3
					c-6.4,2.3-16.9-10.8-22-15.2c-13.9-12.1-32-15.7-40.1-12.7C1024.5,472.5,1017.1,468.9,1021.4,464.1z"/>
			</g>
		</g>
		<g>
			<g>
				<g>
					<g>
						<polygon class="st9" points="1124.1,432.8 1105.7,449.7 1105.7,397.7 1124.1,397.7 						"/>
						<rect x="1118.3" y="397.7" class="st10" width="5.8" height="35.1"/>
					</g>
					<g>
						<path class="st2" d="M1134.5,391.5c0,4.7-4.1,8.5-9.1,8.5h-20.3c-5,0-9.1-3.8-9.1-8.5l0,0c0-4.7,4.1-8.5,9.1-8.5h20.3
							C1130.4,383,1134.5,386.8,1134.5,391.5L1134.5,391.5z"/>
						<path class="st6" d="M1105.1,400h20.3c5,0,9.1-3.8,9.1-8.5c0-2.3-1-4.4-2.6-6c0.4,9.8-12.1,10.8-22.5,10.6
							c-10.4-0.2-13.3-4.6-13.3-4.6C1096,396.2,1100.1,400,1105.1,400z"/>
					</g>
				</g>
				<g>
					<g>
						<polygon class="st6" points="1156,414.2 1091,471.7 1091,602.7 1221.1,602.7 1221.1,471.7 						"/>
						<g>
							<g>
								<g>
									<path class="st13" d="M1135.7,468.1c0,11.3,9.1,20.5,20.4,20.5c11.3,0,20.4-9.2,20.4-20.5c0-11.3-9.1-20.5-20.4-20.5
										C1144.8,447.6,1135.7,456.7,1135.7,468.1z"/>
									<path class="st12" d="M1139.2,468.1c0,9.4,7.6,17,16.9,17c9.3,0,16.9-7.6,16.9-17c0-9.4-7.6-17-16.9-17
										C1146.7,451.1,1139.2,458.7,1139.2,468.1z"/>
								</g>
								<polygon class="st13" points="1137.8,465.2 1153.2,465.2 1153.2,449.7 1158.9,449.7 1158.9,465.2 1174.3,465.2 
									1174.3,470.9 1158.9,470.9 1158.9,486.4 1153.2,486.4 1153.2,470.9 1137.8,470.9 								"/>
							</g>
							<g>
								<g>
									<polygon class="st12" points="1136.6,526 1139.6,515.3 1151.6,507.7 1163.7,508.3 1172.6,515 1173.6,522.4 1174.1,525.7 
																			"/>
								</g>
								<g>
									<path class="st13" d="M1178.4,526v76.9h-44.7V526c0-6.7,4-19.2,18.9-21.1l2.9-0.3l0.6,0l3.3,0.2
										C1174.4,506.7,1178.4,519.3,1178.4,526z M1165.5,512.5l-6.3,11.1h13.2C1171.9,520.6,1170.3,515.6,1165.5,512.5z
										 M1150.1,510.9l6,10.5l6-10.5c-1.6-0.5-3.4-0.9-5.6-0.9l-0.5,0l-0.4,0C1153.5,510,1151.7,510.4,1150.1,510.9z
										 M1139.7,523.6h13.2l-6.3-11.1C1141.8,515.6,1140.2,520.6,1139.7,523.6z M1172.6,597.5v-69.6h-33.1v69.6H1172.6z"/>
									<g>
										<path class="st17" d="M1148.4,561.5c0,1.3-1.2,2.4-2.6,2.4c-1.4,0-2.6-1.1-2.6-2.4c0-1.3,1.2-2.4,2.6-2.4
											C1147.3,559.1,1148.4,560.2,1148.4,561.5z"/>
										<path class="st13" d="M1143.2,531.3h24.8V560h-16.9c0,0-1.3-4.4-7.9-3.6V531.3z"/>
										<path class="st13" d="M1143.2,593.8h24.8v-30.5h-16.9c0,0-1.3,4.5-7.9,3.6V593.8z"/>
									</g>
								</g>
							</g>
						</g>
					</g>
					<path class="st2" d="M1235.1,460.9l-72.1-62c-2-1.7-4.5-2.5-7-2.4c-2.5-0.1-5,0.7-7,2.4l-72.1,62c-4.4,3.8-4.8,10.7-0.8,15.3
						c4,4.7,10.7,5.4,15.2,1.6l64.7-55.7l64.7,55.7c4.4,3.8,11.2,3.1,15.2-1.6C1239.9,471.6,1239.5,464.7,1235.1,460.9z"/>
				</g>
				<path class="st6" d="M1156,414.2c-5.6,0-54.3,43.1-65.1,52.1c-10.8,9-17.5,4.2-17.5,4.2c0.3,2,1.2,4,2.6,5.7
					c4,4.7,10.7,5.4,15.2,1.6l64.7-55.7l64.7,55.7c4.4,3.8,11.2,3.1,15.2-1.6c4-4.7,3.6-11.5-0.8-15.3
					C1224,477.1,1163,414.2,1156,414.2z"/>
			</g>
			<path class="st2" d="M1041.3,607.5c13.8-6.7,35.2-15.9,57.3-11.8c22.1,4.1,53.1,8.7,83,3.7c29.9-5,72.3-12.4,111.1,1.7v16.3
				h-251.4V607.5z"/>
		</g>
		<g>
			<path class="st4" d="M1267,627.8c0,0-2.2-1.7-4.1-0.7c-2.8,1.5-4.3,0.7-4.3,0.7v-18h8.4V627.8z"/>
			<g>
				<g>
					<path class="st5" d="M1286,573.6c0,0,13.3,11.1,24.2,5.8c0,0-22.6-18.4-27.6-35.3c0,0,8.8,3.4,19.1,0c0,0-22.3-16.9-25.5-40.2
						c0,0,3.2,1.9,12.7,2.9c0,0-27.2-25.6-27.2-69.7c0,44-27.2,69.7-27.2,69.7c9.5-1,12.7-2.9,12.7-2.9
						c-3.2,23.2-25.5,40.2-25.5,40.2c10.3,3.4,19.1,0,19.1,0c-4.9,16.9-27.6,35.3-27.6,35.3c11,5.3,24.2-5.8,24.2-5.8
						c-5.8,22.3-24.2,38.7-24.2,38.7c21.9,9.7,48.4,6.8,48.4,6.8s26.5,2.9,48.4-6.8C1310.3,612.3,1291.9,595.8,1286,573.6z"/>
				</g>
				<path class="st2" d="M1233.9,501.4c-2.2,3.9-1.2,8.6,3.3,7.5c4.5-1.1,6.3-5.6,12.6-7.5c6.3-2,10.4,7.2,15.5,6.4
					c5.1-0.8,13.9,4.8,14.8,16.1c0.9,11.2,4.1,18.6,8.4,21.4c4.3,2.9,15.5,3.4,15.9-2.1c0.4-5.6-12.2-12.5-15.9-17.5
					c-3.7-5-9.5-16.4-4.5-16.4c5.1,0,9.7-1.1,6.5-6.7c-3.3-5.6-21-30.6-23.4-43.4c-2.4-12.8-1.7-25.1-5.2-24.5
					C1258.3,435.1,1248.5,475.2,1233.9,501.4z"/>
				<path class="st2" d="M1219.2,568c2.1-5.2,14.7-22.7,19.7-20.5c5.1,2.1,7.7,7.4,13.6,4.9c5.9-2.5,14.7,1.4,18.7,8.1
					c4.1,6.7-2,20.4-14.1,19.1c-12.2-1.3-20.5-1.3-26.8,5.4c-6.3,6.7-21.8,0.6-21-5.4C1210.3,573.5,1216.6,574.7,1219.2,568z"/>
				<path class="st2" d="M1284.8,566.5c6.4-6.2,13.4-6.9,16.9-0.9c3.5,6,15.5,18.1,12.4,21.7C1311.1,591,1278.4,572.7,1284.8,566.5z
					"/>
			</g>
		</g>
		<path class="st6" d="M1112,600.7c0,0,43.8,22.7-3.2,69.4c-47,46.7-154.1,26.5-141.3,150.9c10.6,102.9-195.9,117.6-195.9,117.6
			h348.8c0,0,80.6-47.8,56.8-108.9s-54.1-73.2-20.4-128.8c33.7-55.7,24.9-64.1,0-101L1112,600.7z"/>
	</g>
</g>
<path class="st2" d="M1002.3,411.7c3.3,0,6,2.7,6,6c0,3.3-2.7,6-6,6c-3.3,0-6-2.7-6-6C996.3,414.4,999,411.7,1002.3,411.7z"/>
<path class="st2" d="M1107.2,411.7c3.3,0,6,2.7,6,6c0,3.3-2.7,6-6,6c-3.3,0-6-2.7-6-6C1101.2,414.4,1103.9,411.7,1107.2,411.7z"/>
<path class="st2" d="M1177.8,362.4c4.4,0,8,3.6,8,8c0,4.4-3.6,8-8,8c-4.4,0-8-3.6-8-8C1169.8,365.9,1173.4,362.4,1177.8,362.4z"/>
<path class="st2" d="M1253,423.4c3.3,0,6,2.7,6,6c0,3.3-2.7,6-6,6c-3.3,0-6-2.7-6-6C1247,426.1,1249.7,423.4,1253,423.4z"/>
<path class="st2" d="M1287.6,331.8c4.4,0,8,3.6,8,8c0,4.4-3.6,8-8,8c-4.4,0-8-3.6-8-8C1279.6,335.3,1283.2,331.8,1287.6,331.8z"/>
<path class="st2" d="M176.4,208.3c0,3.3-2.6,5.9-5.9,5.9c-3.3,0-5.9-2.6-5.9-5.9c0-3.3,2.6-5.9,5.9-5.9
	C173.8,202.4,176.4,205,176.4,208.3z"/>
<path class="st2" d="M469.7,283.4c0,4.3-3.5,7.8-7.8,7.8c-4.3,0-7.8-3.5-7.8-7.8c0-4.3,3.5-7.8,7.8-7.8
	C466.2,275.6,469.7,279.1,469.7,283.4z"/>
<path class="st2" d="M526.3,343.2c2.5-2.1,6.2-1.8,8.3,0.7c2.1,2.5,1.8,6.2-0.7,8.3c-2.5,2.1-6.2,1.8-8.3-0.7
	C523.5,349,523.8,345.3,526.3,343.2z"/>
<path class="st2" d="M634.6,368.4c2.5-2.1,6.2-1.8,8.3,0.7c2.1,2.5,1.8,6.2-0.7,8.3c-2.5,2.1-6.2,1.8-8.3-0.7
	C631.8,374.2,632.1,370.5,634.6,368.4z"/>
<path class="st2" d="M1334.2,236.9c2.3,3.7,1.2,8.7-2.5,11c-3.7,2.4-8.7,1.2-11-2.5c-2.3-3.7-1.2-8.7,2.5-11
	C1326.9,232.1,1331.9,233.2,1334.2,236.9z"/>
<path class="st2" d="M536.8,429.5c2.3,3.7,1.2,8.7-2.5,11c-3.7,2.4-8.7,1.2-11-2.5c-2.3-3.7-1.2-8.7,2.5-11
	C529.6,424.6,534.5,425.7,536.8,429.5z"/>
</svg>
