<?xml version="1.0" encoding="utf-8"?>
<!-- Generator: Adobe Illustrator 19.1.0, SVG Export Plug-In . SVG Version: 6.00 Build 0)  -->
<svg version="1.1" id="图层_1" xmlns="http://www.w3.org/2000/svg" xmlns:xlink="http://www.w3.org/1999/xlink" x="0px" y="0px"
	 viewBox="120 -73.6 1463.4 938.6" style="enable-background:new 120 -73.6 1463.4 938.6;" xml:space="preserve">
<style type="text/css">
	.st0{fill:#A0D2D0;}
	.st1{fill:#72BBAE;}
	.st2{fill:#FFFFFF;}
	.st3{fill:#E9F3F0;}
	.st4{fill:#8E7856;}
	.st5{fill:#A2D6CD;}
	.st6{fill:#EEF5F5;}
	.st7{fill:#4E9B8B;}
	.st8{fill:#89AEA2;}
	.st9{fill:#837C6B;}
	.st10{fill:#736A5B;}
	.st11{fill:#674536;}
	.st12{fill:#DFBC2F;}
	.st13{fill:#474646;}
	.st14{fill:#E29D6C;}
	.st15{fill:#D18A5B;}
	.st16{font-family:'AdobeSongStd-Light-GBpc-EUC-H';}
	.st17{font-size:14px;}
</style>
<rect x="120" y="-73.6" class="st0" width="1463.4" height="938.6"/>
<g>
	<g>
		<polygon class="st1" points="130.7,520.8 307,179 503.3,554.3 		"/>
		<g>
			<path class="st2" d="M308.6,170.8c-17.3-1.9-32.4,37.4-46.1,70.8s-46.6,84-38.8,94.3c7.8,10.2,44,11.8,70.8-10.2
				c26.8-22,52.7-6.7,73.6,0c20.9,6.7,24.2-11.2,14.6-29.1C373.1,278.8,329.8,173.1,308.6,170.8z"/>
			<path class="st3" d="M368,325.7c20.9,6.7,24.2-11.2,14.6-29.1c1.6,22.9-30.8,4-56.7,4.4c-26,0.5-53.5,25.1-74.2,29
				c-20.6,3.9-22.6-20.2-22.6-20.3c-5.5,12.4-8.5,22.2-5.5,26.1c7.8,10.2,44,11.8,70.8-10.2C321.2,303.7,347.1,319,368,325.7z"/>
		</g>
	</g>
	<g>
		<polygon class="st1" points="754.7,585.2 577.9,256.4 381.1,617.5 		"/>
		<g>
			<path class="st2" d="M575,242.3c13.8-1.6,25.8,31.9,36.7,60.5c10.9,28.5,37.1,71.7,30.9,80.5c-6.2,8.7-35,10.1-56.2-8.7
				c-21.3-18.8-41.9-5.7-58.5,0s-19.2-9.6-11.6-24.8C523.7,334.5,558.1,244.3,575,242.3z"/>
			<path class="st3" d="M527.8,374.6c-16.6,5.7-19.2-9.6-11.6-24.8c-1.3,19.5,24.4,3.4,45.1,3.8c20.6,0.4,42.5,21.4,58.9,24.8
				c16.4,3.3,17.9-17.2,17.9-17.3c4.4,10.6,6.7,19,4.4,22.3c-6.2,8.7-35,10.1-56.2-8.7C565,355.8,544.3,368.9,527.8,374.6z"/>
		</g>
	</g>
	<g>
		<polygon class="st1" points="1211.4,530.8 1385.9,173.6 1580.3,565.9 		"/>
		<g>
			<path class="st2" d="M1387.5,165c-17.2-2-32.1,39.1-45.7,74s-46.2,87.8-38.4,98.5c7.7,10.7,43.6,12.4,70.1-10.6s52.2-7,72.8,0
				c20.7,7,23.9-11.7,14.5-30.4C1451.4,277.9,1408.5,167.5,1387.5,165z"/>
			<path class="st3" d="M1446.3,326.9c20.7,7,23.9-11.7,14.5-30.4c1.6,23.9-30.5,4.1-56.2,4.6s-53,26.2-73.4,30.3
				c-20.4,4.1-22.3-21.1-22.4-21.2c-5.5,13-8.4,23.2-5.5,27.3c7.7,10.7,43.6,12.4,70.1-10.6C1399.9,304,1425.6,320,1446.3,326.9z"/>
		</g>
	</g>
	<g>
		<path class="st2" d="M120,501.3c0,0,114.9-16.6,234.7,15.2c152.2,40.3,284.6-4.4,396.8-17c112.3-12.6,240,5.1,358.8,16
			c192.4,17.7,312.8-54.4,469.9-57.1V968H120V501.3z"/>
		<g>
			<path class="st4" d="M201.2,835.4c0,0-2.7-2.1-5.1-0.9c-3.5,1.8-5.3,0.9-5.3,0.9v-22.2h10.4V835.4z"/>
			<g>
				<g>
					<path class="st5" d="M224.6,768.8c0,0,16.3,13.7,29.8,7.1c0,0-27.8-22.6-33.9-43.4c0,0,10.9,4.2,23.5,0
						c0,0-27.4-20.8-31.3-49.3c0,0,3.9,2.4,15.6,3.6c0,0-33.5-31.5-33.5-85.6c0,54.1-33.5,85.6-33.5,85.6
						c11.7-1.2,15.6-3.6,15.6-3.6c-3.9,28.5-31.3,49.3-31.3,49.3c12.6,4.2,23.5,0,23.5,0c-6.1,20.8-33.9,43.4-33.9,43.4
						c13.5,6.5,29.8-7.1,29.8-7.1c-7.2,27.3-29.8,47.6-29.8,47.6c26.9,11.9,59.5,8.3,59.5,8.3s32.6,3.6,59.5-8.3
						C254.4,816.3,231.8,796.1,224.6,768.8z"/>
				</g>
				<path class="st2" d="M142.5,761.9c2.5-6.4,18-27.8,24.3-25.2c6.2,2.6,9.5,9.1,16.8,6.1c7.3-3.1,18,1.7,23,9.9
					c5,8.2-2.4,25-17.3,23.5c-14.9-1.6-25.2-1.6-32.9,6.6c-7.8,8.2-26.8,0.8-25.8-6.6C131.5,768.8,139.2,770.1,142.5,761.9z"/>
			</g>
		</g>
		<path class="st6" d="M832.3,799.7c0,0,25.6-10,62,0s107,0,107,0s-62.9,21.9-98.9,18.9C866.5,815.6,857.2,797.4,832.3,799.7z"/>
		<path class="st6" d="M221.4,712c0,0,18.9-8.7,45.8,0c26.9,8.6,79,0,79,0s-46.5,19-73,16.4C246.6,725.8,239.8,710.1,221.4,712z"/>
		<path class="st6" d="M325.9,884.9c0,0,19.1-9,46.3,0s79.9,0,79.9,0s-47,19.6-73.8,17C351.4,899.2,344.5,882.9,325.9,884.9z"/>
		<path class="st6" d="M1299.1,732.5c0,0,18.9-8.7,45.8,0c26.9,8.6,79,0,79,0s-46.5,19-73,16.4
			C1324.3,746.3,1317.4,730.5,1299.1,732.5z"/>
		<path class="st6" d="M1368.5,941.9c0,0,18.9-8.7,45.8,0c26.9,8.6,79,0,79,0s-46.5,19-73,16.4
			C1393.7,955.7,1386.9,939.9,1368.5,941.9z"/>
		<g>
			<g>
				<g>
					<path class="st7" d="M198.6,479.8c0,0,7.1,6,13,3.1c0,0-12.2-9.9-14.9-19c0,0,4.8,1.8,10.3,0c0,0-12-9.1-13.7-21.6
						c0,0,1.7,1,6.9,1.6c0,0-14.7-13.8-14.7-37.5c0,23.7-14.7,37.5-14.7,37.5c5.1-0.5,6.9-1.6,6.9-1.6
						c-1.7,12.5-13.7,21.6-13.7,21.6c5.5,1.8,10.3,0,10.3,0c-2.7,9.1-14.9,19-14.9,19c5.9,2.9,13-3.1,13-3.1
						c-3.1,12-13,20.8-13,20.8c11.8,5.2,26.1,3.6,26.1,3.6s14.3,1.6,26.1-3.6C211.6,500.7,201.7,491.8,198.6,479.8z"/>
				</g>
			</g>
			<g>
				<g>
					<path class="st7" d="M251.7,488.3c0,0,7.1,6,13,3.1c0,0-12.2-9.9-14.9-19c0,0,4.8,1.8,10.3,0c0,0-12-9.1-13.7-21.6
						c0,0,1.7,1,6.9,1.6c0,0-14.7-13.8-14.7-37.5c0,23.7-14.7,37.5-14.7,37.5c5.1-0.5,6.9-1.6,6.9-1.6
						c-1.7,12.5-13.7,21.6-13.7,21.6c5.5,1.8,10.3,0,10.3,0c-2.7,9.1-14.9,19-14.9,19c5.9,2.9,13-3.1,13-3.1
						c-3.1,12-13,20.8-13,20.8c11.8,5.2,26.1,3.7,26.1,3.7s14.3,1.6,26.1-3.7C264.8,509.1,254.9,500.2,251.7,488.3z"/>
				</g>
			</g>
			<g>
				<g>
					<path class="st7" d="M296.9,489.4c0,0,5.6,4.7,10.3,2.5c0,0-9.6-7.8-11.7-15c0,0,3.8,1.4,8.1,0c0,0-9.4-7.2-10.8-17
						c0,0,1.3,0.8,5.4,1.2c0,0-11.5-10.9-11.5-29.5c0,18.7-11.5,29.5-11.5,29.5c4-0.4,5.4-1.2,5.4-1.2c-1.4,9.8-10.8,17-10.8,17
						c4.3,1.4,8.1,0,8.1,0c-2.1,7.2-11.7,15-11.7,15c4.6,2.3,10.3-2.5,10.3-2.5c-2.5,9.4-10.3,16.4-10.3,16.4
						c9.3,4.1,20.5,2.9,20.5,2.9s11.2,1.2,20.5-2.9C307.1,505.8,299.3,498.8,296.9,489.4z"/>
				</g>
			</g>
			<g>
				<g>
					<path class="st7" d="M355.6,493.1c0,0,6,5.1,11,2.6c0,0-10.3-8.4-12.5-16c0,0,4,1.5,8.7,0c0,0-10.1-7.7-11.6-18.2
						c0,0,1.4,0.9,5.8,1.3c0,0-12.4-11.6-12.4-31.6c0,20-12.4,31.6-12.4,31.6c4.3-0.4,5.8-1.3,5.8-1.3
						c-1.4,10.5-11.6,18.2-11.6,18.2c4.7,1.5,8.7,0,8.7,0c-2.2,7.7-12.5,16-12.5,16c5,2.4,11-2.6,11-2.6c-2.6,10.1-11,17.6-11,17.6
						c10,4.4,22,3.1,22,3.1s12,1.3,22-3.1C366.6,510.7,358.3,503.2,355.6,493.1z"/>
				</g>
			</g>
			<g>
				<g>
					<path class="st7" d="M410.6,504c0,0,7.1,6,13,3.1c0,0-12.2-9.9-14.9-19c0,0,4.8,1.8,10.3,0c0,0-12-9.1-13.7-21.6
						c0,0,1.7,1,6.9,1.6c0,0-14.7-13.8-14.7-37.5c0,23.7-14.7,37.5-14.7,37.5c5.1-0.5,6.9-1.6,6.9-1.6C388,479,376,488.1,376,488.1
						c5.5,1.8,10.3,0,10.3,0c-2.7,9.1-14.9,19-14.9,19c5.9,2.9,13-3.1,13-3.1c-3.1,12-13,20.8-13,20.8c11.8,5.2,26.1,3.7,26.1,3.7
						s14.3,1.6,26.1-3.7C423.6,524.9,413.7,516,410.6,504z"/>
				</g>
			</g>
			<g>
				<g>
					<path class="st8" d="M459.2,511.3c0,0,5.6,4.7,10.3,2.5c0,0-9.6-7.8-11.7-15c0,0,3.8,1.4,8.1,0c0,0-9.4-7.2-10.8-17
						c0,0,1.3,0.8,5.4,1.2c0,0-11.5-10.9-11.5-29.5c0,18.7-11.5,29.5-11.5,29.5c4-0.4,5.4-1.2,5.4-1.2c-1.4,9.8-10.8,17-10.8,17
						c4.3,1.4,8.1,0,8.1,0c-2.1,7.2-11.7,15-11.7,15c4.6,2.3,10.3-2.5,10.3-2.5c-2.5,9.4-10.3,16.4-10.3,16.4
						c9.3,4.1,20.5,2.9,20.5,2.9s11.2,1.2,20.5-2.9C469.5,527.7,461.7,520.7,459.2,511.3z"/>
				</g>
			</g>
			<g>
				<g>
					<path class="st7" d="M562.7,519.7c0,0,7.1,6,13,3.1c0,0-12.2-9.9-14.9-19c0,0,4.8,1.8,10.3,0c0,0-12-9.1-13.7-21.6
						c0,0,1.7,1,6.9,1.6c0,0-14.7-13.8-14.7-37.5c0,23.7-14.7,37.5-14.7,37.5c5.1-0.5,6.9-1.6,6.9-1.6
						c-1.7,12.5-13.7,21.6-13.7,21.6c5.5,1.8,10.3,0,10.3,0c-2.7,9.1-14.9,19-14.9,19c5.9,2.9,13-3.1,13-3.1
						c-3.1,12-13,20.8-13,20.8c11.8,5.2,26.1,3.7,26.1,3.7s14.3,1.6,26.1-3.7C575.7,540.5,565.8,531.7,562.7,519.7z"/>
				</g>
			</g>
			<g>
				<g>
					<path class="st7" d="M625.9,512c0,0,8.3,7,15.1,3.6c0,0-14.2-11.5-17.2-22.1c0,0,5.5,2.1,11.9,0c0,0-13.9-10.6-15.9-25.1
						c0,0,2,1.2,8,1.8c0,0-17-16-17-43.6c0,27.5-17,43.6-17,43.6c6-0.6,8-1.8,8-1.8c-2,14.5-15.9,25.1-15.9,25.1
						c6.4,2.1,11.9,0,11.9,0c-3.1,10.6-17.2,22.1-17.2,22.1c6.9,3.3,15.1-3.6,15.1-3.6c-3.6,13.9-15.1,24.2-15.1,24.2
						c13.7,6.1,30.3,4.2,30.3,4.2s16.6,1.8,30.3-4.2C641,536.2,629.6,525.9,625.9,512z"/>
				</g>
			</g>
			<g>
				<g>
					<path class="st7" d="M673.1,504.3c0,0,5.6,4.7,10.3,2.5c0,0-9.6-7.8-11.7-15c0,0,3.8,1.4,8.1,0c0,0-9.4-7.2-10.8-17
						c0,0,1.3,0.8,5.4,1.2c0,0-11.5-10.9-11.5-29.5c0,18.7-11.5,29.5-11.5,29.5c4-0.4,5.4-1.2,5.4-1.2c-1.4,9.8-10.8,17-10.8,17
						c4.3,1.4,8.1,0,8.1,0c-2.1,7.2-11.7,15-11.7,15c4.6,2.3,10.3-2.5,10.3-2.5c-2.5,9.4-10.3,16.4-10.3,16.4
						c9.3,4.1,20.5,2.9,20.5,2.9s11.2,1.2,20.5-2.9C683.3,520.7,675.5,513.8,673.1,504.3z"/>
				</g>
			</g>
			<g>
				<g>
					<path class="st7" d="M880.1,487.5c0,0,7.1,6,13,3.1c0,0-12.2-9.9-14.9-19c0,0,4.8,1.8,10.3,0c0,0-12-9.1-13.7-21.6
						c0,0,1.7,1,6.9,1.6c0,0-14.7-13.8-14.7-37.5c0,23.7-14.7,37.5-14.7,37.5c5.1-0.5,6.9-1.6,6.9-1.6
						c-1.7,12.5-13.7,21.6-13.7,21.6c5.5,1.8,10.3,0,10.3,0c-2.7,9.1-14.9,19-14.9,19c5.9,2.9,13-3.1,13-3.1
						c-3.1,12-13,20.8-13,20.8c11.8,5.2,26.1,3.6,26.1,3.6s14.3,1.6,26.1-3.6C893.1,508.3,883.2,499.5,880.1,487.5z"/>
				</g>
			</g>
			<g>
				<g>
					<path class="st7" d="M947.9,502c0,0,8.6,7.2,15.7,3.8c0,0-14.7-11.9-17.9-23c0,0,5.7,2.2,12.4,0c0,0-14.5-11-16.5-26.1
						c0,0,2.1,1.3,8.3,1.9c0,0-17.7-16.7-17.7-45.3c0,28.6-17.7,45.3-17.7,45.3c6.2-0.6,8.3-1.9,8.3-1.9
						c-2.1,15.1-16.5,26.1-16.5,26.1c6.7,2.2,12.4,0,12.4,0c-3.2,11-17.9,23-17.9,23c7.1,3.5,15.7-3.8,15.7-3.8
						c-3.8,14.5-15.7,25.1-15.7,25.1c14.2,6.3,31.5,4.4,31.5,4.4s17.2,1.9,31.5-4.4C963.7,527.1,951.7,516.4,947.9,502z"/>
				</g>
			</g>
			<g>
				<g>
					<path class="st7" d="M1007,498.9c0,0,7.1,6,13,3.1c0,0-12.2-9.9-14.9-19c0,0,4.8,1.8,10.3,0c0,0-12-9.1-13.7-21.6
						c0,0,1.7,1,6.9,1.6c0,0-14.7-13.8-14.7-37.5c0,23.7-14.7,37.5-14.7,37.5c5.1-0.5,6.9-1.6,6.9-1.6
						c-1.7,12.5-13.7,21.6-13.7,21.6c5.5,1.8,10.3,0,10.3,0c-2.7,9.1-14.9,19-14.9,19c5.9,2.9,13-3.1,13-3.1
						c-3.1,12-13,20.8-13,20.8c11.8,5.2,26.1,3.7,26.1,3.7s14.3,1.6,26.1-3.7C1020,519.7,1010.1,510.9,1007,498.9z"/>
				</g>
			</g>
			<g>
				<g>
					<path class="st7" d="M1064.5,493.7c0,0,7.1,6,13,3.1c0,0-12.2-9.9-14.9-19c0,0,4.8,1.8,10.3,0c0,0-12-9.1-13.7-21.6
						c0,0,1.7,1,6.9,1.6c0,0-14.7-13.8-14.7-37.5c0,23.7-14.7,37.5-14.7,37.5c5.1-0.5,6.9-1.6,6.9-1.6
						c-1.7,12.5-13.7,21.6-13.7,21.6c5.5,1.8,10.3,0,10.3,0c-2.7,9.1-14.9,19-14.9,19c5.9,2.9,13-3.1,13-3.1
						c-3.1,12-13,20.8-13,20.8c11.8,5.2,26.1,3.7,26.1,3.7s14.3,1.6,26.1-3.7C1077.5,514.5,1067.6,505.6,1064.5,493.7z"/>
				</g>
			</g>
			<g>
				<g>
					<path class="st7" d="M1128.3,502.7c0,0,8.6,7.2,15.7,3.8c0,0-14.7-11.9-17.9-22.9c0,0,5.7,2.2,12.4,0c0,0-14.5-11-16.5-26.1
						c0,0,2.1,1.3,8.3,1.9c0,0-17.7-16.7-17.7-45.3c0,28.6-17.7,45.3-17.7,45.3c6.2-0.6,8.3-1.9,8.3-1.9
						c-2.1,15.1-16.5,26.1-16.5,26.1c6.7,2.2,12.4,0,12.4,0c-3.2,11-17.9,22.9-17.9,22.9c7.1,3.5,15.7-3.8,15.7-3.8
						c-3.8,14.5-15.7,25.1-15.7,25.1c14.2,6.3,31.5,4.4,31.5,4.4s17.2,1.9,31.5-4.4C1144,527.9,1132,517.2,1128.3,502.7z"/>
				</g>
			</g>
			<g>
				<g>
					<path class="st7" d="M1201.3,501.1c0,0,8.6,7.2,15.7,3.8c0,0-14.7-11.9-17.9-22.9c0,0,5.7,2.2,12.4,0c0,0-14.5-11-16.5-26.1
						c0,0,2.1,1.3,8.3,1.9c0,0-17.7-16.7-17.7-45.3c0,28.6-17.7,45.3-17.7,45.3c6.2-0.6,8.3-1.9,8.3-1.9
						c-2.1,15.1-16.5,26.1-16.5,26.1c6.7,2.2,12.4,0,12.4,0c-3.2,11-17.9,22.9-17.9,22.9c7.1,3.5,15.7-3.8,15.7-3.8
						c-3.8,14.5-15.7,25.1-15.7,25.1c14.2,6.3,31.5,4.4,31.5,4.4s17.2,1.9,31.5-4.4C1217,526.2,1205.1,515.6,1201.3,501.1z"/>
				</g>
			</g>
			<g>
				<g>
					<path class="st7" d="M1320.7,479.5c0,0,7.1,6,13,3.1c0,0-12.2-9.9-14.9-19c0,0,4.8,1.8,10.3,0c0,0-12-9.1-13.7-21.6
						c0,0,1.7,1,6.9,1.6c0,0-14.7-13.8-14.7-37.5c0,23.7-14.7,37.5-14.7,37.5c5.1-0.5,6.9-1.6,6.9-1.6
						c-1.7,12.5-13.7,21.6-13.7,21.6c5.5,1.8,10.3,0,10.3,0c-2.7,9.1-14.9,19-14.9,19c5.9,2.9,13-3.1,13-3.1
						c-3.1,12-13,20.8-13,20.8c11.8,5.2,26.1,3.6,26.1,3.6s14.3,1.6,26.1-3.6C1333.7,500.4,1323.8,491.5,1320.7,479.5z"/>
				</g>
			</g>
			<g>
				<g>
					<path class="st7" d="M1374.5,493.7c0,0,7.1,6,13,3.1c0,0-12.2-9.9-14.9-19c0,0,4.8,1.8,10.3,0c0,0-12-9.1-13.7-21.6
						c0,0,1.7,1,6.9,1.6c0,0-14.7-13.8-14.7-37.5c0,23.7-14.7,37.5-14.7,37.5c5.1-0.5,6.9-1.6,6.9-1.6
						c-1.7,12.5-13.7,21.6-13.7,21.6c5.5,1.8,10.3,0,10.3,0c-2.7,9.1-14.9,19-14.9,19c5.9,2.9,13-3.1,13-3.1
						c-3.1,12-13,20.8-13,20.8c11.8,5.2,26.1,3.7,26.1,3.7s14.3,1.6,26.1-3.7C1387.6,514.5,1377.7,505.6,1374.5,493.7z"/>
				</g>
			</g>
			<g>
				<g>
					<path class="st7" d="M1434.3,475.6c0,0,8.6,7.2,15.7,3.8c0,0-14.7-11.9-17.9-22.9c0,0,5.7,2.2,12.4,0c0,0-14.5-11-16.5-26.1
						c0,0,2.1,1.3,8.3,1.9c0,0-17.7-16.7-17.7-45.3c0,28.6-17.7,45.3-17.7,45.3c6.2-0.6,8.3-1.9,8.3-1.9
						c-2.1,15.1-16.5,26.1-16.5,26.1c6.7,2.2,12.4,0,12.4,0c-3.2,11-17.9,22.9-17.9,22.9c7.1,3.5,15.7-3.8,15.7-3.8
						c-3.8,14.5-15.7,25.1-15.7,25.1c14.2,6.3,31.5,4.4,31.5,4.4s17.2,1.9,31.5-4.4C1450,500.8,1438.1,490.1,1434.3,475.6z"/>
				</g>
			</g>
			<g>
				<g>
					<path class="st7" d="M1491,462.9c0,0,7.1,6,13,3.1c0,0-12.2-9.9-14.9-19c0,0,4.8,1.8,10.3,0c0,0-12-9.1-13.7-21.6
						c0,0,1.7,1,6.9,1.6c0,0-14.7-13.8-14.7-37.5c0,23.7-14.7,37.5-14.7,37.5c5.1-0.5,6.9-1.6,6.9-1.6
						c-1.7,12.5-13.7,21.6-13.7,21.6c5.5,1.8,10.3,0,10.3,0c-2.7,9.1-14.9,19-14.9,19c5.9,2.9,13-3.1,13-3.1
						c-3.1,12-13,20.8-13,20.8c11.8,5.2,26.1,3.6,26.1,3.6s14.3,1.6,26.1-3.6C1504,483.7,1494.1,474.9,1491,462.9z"/>
				</g>
			</g>
		</g>
		<g>
			<path class="st4" d="M1480.1,835.4c0,0,2.7-2.1,5.1-0.9c3.5,1.8,5.3,0.9,5.3,0.9v-22.2h-10.4V835.4z"/>
			<g>
				<g>
					<path class="st5" d="M1456.7,768.8c0,0-16.3,13.7-29.8,7.1c0,0,27.8-22.6,33.9-43.4c0,0-10.9,4.2-23.5,0
						c0,0,27.4-20.8,31.3-49.3c0,0-3.9,2.4-15.6,3.6c0,0,33.5-31.5,33.5-85.6c0,54.1,33.5,85.6,33.5,85.6
						c-11.7-1.2-15.6-3.6-15.6-3.6c3.9,28.5,31.3,49.3,31.3,49.3c-12.6,4.2-23.5,0-23.5,0c6.1,20.8,33.9,43.4,33.9,43.4
						c-13.5,6.5-29.8-7.1-29.8-7.1c7.2,27.3,29.8,47.6,29.8,47.6c-26.9,11.9-59.5,8.3-59.5,8.3s-32.6,3.6-59.5-8.3
						C1426.9,816.3,1449.5,796.1,1456.7,768.8z"/>
				</g>
				<path class="st2" d="M1538.8,761.9c-2.5-6.4-18-27.8-24.3-25.2c-6.2,2.6-9.5,9.1-16.8,6.1c-7.3-3.1-18,1.7-23,9.9
					c-5,8.2,2.4,25,17.3,23.5c14.9-1.6,25.2-1.6,32.9,6.6c7.8,8.2,26.8,0.8,25.8-6.6C1549.8,768.8,1542.1,770.1,1538.8,761.9z"/>
			</g>
		</g>
		<g>
			<path class="st4" d="M234.6,596.1c0,0-2.2-1.3-4.1-0.5c-2.8,1.1-4.3,0.5-4.3,0.5v-13.3h8.4V596.1z"/>
			<g>
				<path class="st5" d="M253.1,554.8c0,0,12.4,8.5,22.6,4.4c0,0-21.1-14-25.8-26.9c0,0,8.3,2.6,17.8,0c0,0-20.8-12.9-23.8-30.6
					c0,0,3,1.5,11.9,2.2c0,0-25.4-19.5-25.4-53.1c0,33.6-25.4,53.1-25.4,53.1c8.9-0.7,11.9-2.2,11.9-2.2
					c-3,17.7-23.8,30.6-23.8,30.6c9.6,2.6,17.8,0,17.8,0c-4.6,12.9-25.8,26.9-25.8,26.9c10.2,4.1,22.6-4.4,22.6-4.4
					c-5.4,17-22.6,29.5-22.6,29.5c20.5,7.4,45.3,5.2,45.3,5.2s24.8,2.2,45.3-5.2C275.7,584.3,258.5,571.8,253.1,554.8z"/>
				<path class="st2" d="M260.3,500.9c-4-4.5-12.6-12.6-19.8-27.6c-7.2-15.1-5-25.1-10.1-25.9s-12.9,26.9-17.8,37.7
					c-4.9,10.8-11.8,13.1-15,17.7c-3.1,4.5,8.2,3.8,12.4,2.4c-3.5,4.2-9.8,11.1-13.3,13.5c-7.8,5.3-15.5,9.9-5.6,13.4
					c6,2.1,16-10.1,20.7-14.3c13.1-11.3,30.2-14.7,37.8-11.9C257.4,508.8,264.3,505.5,260.3,500.9z"/>
			</g>
		</g>
		<g>
			<path class="st4" d="M342.2,597.3c0,0-2.2-1.3-4.1-0.5c-2.8,1.1-4.3,0.5-4.3,0.5V584h8.4L342.2,597.3L342.2,597.3z"/>
			<g>
				<g>
					<path class="st5" d="M361.2,557.4c0,0,13.3,8.2,24.2,4.3c0,0-22.6-13.5-27.6-26c0,0,8.8,2.5,19.1,0c0,0-22.3-12.5-25.5-29.5
						c0,0,3.2,1.4,12.7,2.1c0,0-27.2-18.9-27.2-51.3c0,32.4-27.2,51.3-27.2,51.3c9.5-0.7,12.7-2.1,12.7-2.1
						c-3.2,17.1-25.5,29.5-25.5,29.5c10.3,2.5,19.1,0,19.1,0c-4.9,12.5-27.6,26-27.6,26c11,3.9,24.2-4.3,24.2-4.3
						c-5.8,16.4-24.2,28.5-24.2,28.5c21.9,7.1,48.4,5,48.4,5s26.5,2.1,48.4-5C385.4,585.9,367,573.8,361.2,557.4z"/>
				</g>
				<path class="st2" d="M309,504.3c-2.2,2.9-1.2,6.4,3.3,5.5c4.5-0.8,6.3-4.1,12.6-5.5s10.4,5.3,15.5,4.7
					c5.1-0.6,13.9,3.5,14.8,11.8c0.9,8.3,4.1,13.7,8.4,15.8c4.3,2.1,15.5,2.5,15.9-1.6s-12.2-9.2-15.9-12.9
					c-3.7-3.7-9.5-12.1-4.5-12.1c5.1,0,9.7-0.8,6.5-4.9c-3.3-4.1-21-22.5-23.4-32c-2.4-9.4-1.7-18.4-5.2-18
					C333.5,455.6,323.7,485.1,309,504.3z"/>
				<path class="st2" d="M294.4,553.3c2.1-3.8,14.7-16.7,19.7-15.1c5.1,1.6,7.7,5.5,13.6,3.6c5.9-1.8,14.7,1,18.7,5.9
					c4.1,4.9-2,15-14.1,14.1c-12.2-0.9-20.5-0.9-26.8,4c-6.3,4.9-21.8,0.4-21-4C285.4,557.4,291.7,558.2,294.4,553.3z"/>
				<path class="st2" d="M360,552.3c6.4-4.5,13.4-5,16.9-0.6s15.5,13.3,12.4,16C386.2,570.3,353.5,556.8,360,552.3z"/>
			</g>
		</g>
		<g>
			<path class="st4" d="M613.9,622.7c0,0-2.2-1.3-4.1-0.5c-2.8,1.1-4.3,0.5-4.3,0.5v-13.3h8.4L613.9,622.7L613.9,622.7z"/>
			<g>
				<g>
					<path class="st5" d="M589.2,577.1c0,0-11.3,9.6-20.6,5c0,0,19.2-15.9,23.4-30.5c0,0-7.5,2.9-16.2,0c0,0,18.9-14.6,21.6-34.7
						c0,0-2.7,1.7-10.8,2.5c0,0,23.1-22.2,23.1-60.2c0,38.1,23.1,60.2,23.1,60.2c-8.1-0.8-10.8-2.5-10.8-2.5
						c2.7,20.1,21.6,34.7,21.6,34.7c-8.7,2.9-16.2,0-16.2,0c4.2,14.6,23.4,30.5,23.4,30.5c-9.3,4.6-20.6-5-20.6-5
						c5,19.2,20.6,33.5,20.6,33.5c-18.6,8.4-41.1,5.9-41.1,5.9s-22.5,2.5-41.1-5.9C568.6,610.6,584.2,596.4,589.2,577.1z"/>
				</g>
				<path class="st2" d="M633.5,514.8c1.9,3.4,1,7.5-2.8,6.5s-5.4-4.8-10.7-6.5c-5.4-1.7-8.8,6.3-13.1,5.5
					c-4.3-0.7-11.8,4.2-12.6,13.9c-0.7,9.7-3.5,16-7.1,18.5s-13.1,3-13.5-1.8c-0.3-4.8,10.4-10.8,13.5-15.2
					c3.1-4.3,8.1-14.2,3.8-14.2s-8.3-1-5.5-5.8s17.8-26.5,19.9-37.5c2.1-11.1,1.5-21.7,4.4-21.2C612.7,457.5,621,492.2,633.5,514.8z
					"/>
				<path class="st2" d="M645.9,572.3c-1.7-4.5-12.4-19.6-16.8-17.7c-4.3,1.8-6.6,6.4-11.6,4.3c-5-2.2-12.4,1.2-15.9,7
					c-3.5,5.8,1.7,17.6,12,16.5c10.3-1.1,17.4-1.1,22.8,4.7c5.4,5.8,18.5,0.5,17.8-4.7C653.5,577.1,648.2,578.1,645.9,572.3z"/>
				<path class="st2" d="M590.2,571c-5.4-5.3-11.4-5.9-14.3-0.7c-2.9,5.2-13.1,15.7-10.5,18.8C567.9,592.2,595.7,576.4,590.2,571z"
					/>
			</g>
		</g>
		<g>
			<g>
				<g>
					<g>
						<polygon class="st9" points="441.6,469.6 423.2,486.5 423.2,434.5 441.6,434.5 						"/>
						<rect x="435.8" y="434.5" class="st10" width="5.8" height="35.1"/>
					</g>
					<g>
						<path class="st2" d="M451.9,428.3c0,4.7-4.1,8.5-9.1,8.5h-20.3c-5,0-9.1-3.8-9.1-8.5l0,0c0-4.7,4.1-8.5,9.1-8.5h20.4
							C447.9,419.8,451.9,423.6,451.9,428.3L451.9,428.3z"/>
						<path class="st6" d="M422.5,436.8h20.4c5,0,9.1-3.8,9.1-8.5c0-2.3-1-4.4-2.6-6c0.4,9.8-12.1,10.8-22.5,10.6
							c-10.4-0.2-13.3-4.6-13.3-4.6C413.5,433,417.5,436.8,422.5,436.8z"/>
					</g>
				</g>
				<g>
					<g>
						<polygon class="st6" points="473.5,451 408.4,508.5 408.4,639.5 538.6,639.5 538.6,508.5 						"/>
						<g>
							<g>
								<g>
									<path class="st11" d="M453.1,504.8c0,11.3,9.1,20.5,20.4,20.5s20.4-9.2,20.4-20.5c0-11.3-9.1-20.5-20.4-20.5
										S453.1,493.5,453.1,504.8z"/>
									<path class="st12" d="M456.6,504.8c0,9.4,7.6,17,16.9,17s16.9-7.6,16.9-17s-7.6-17-16.9-17S456.6,495.5,456.6,504.8z"/>
								</g>
								<polygon class="st11" points="455.3,502 470.7,502 470.7,486.5 476.3,486.5 476.3,502 491.7,502 491.7,507.7 476.3,507.7 
									476.3,523.2 470.7,523.2 470.7,507.7 455.3,507.7 								"/>
							</g>
							<g>
								<g>
									<polygon class="st12" points="454.1,562.7 457.1,552 469.1,544.5 481.1,545 490.1,551.8 491.1,559.1 491.5,562.5 									
										"/>
								</g>
								<g>
									<path class="st11" d="M495.9,562.7v76.9h-44.7v-76.9c0-6.7,4-19.2,18.9-21.1l2.9-0.3h0.6l3.3,0.2
										C491.8,543.5,495.9,556,495.9,562.7z M482.9,549.3l-6.3,11.1h13.2C489.3,557.4,487.7,552.3,482.9,549.3z M467.5,547.7
										l6,10.5l6-10.5c-1.6-0.5-3.4-0.9-5.6-0.9h-0.5H473C471,546.8,469.1,547.1,467.5,547.7z M457.2,560.4h13.2l-6.3-11.1
										C459.2,552.3,457.7,557.4,457.2,560.4z M490.1,634.3v-69.6h-33.2v69.6H490.1z"/>
									<g>
										<path class="st11" d="M465.9,598.3c0,1.3-1.2,2.4-2.6,2.4c-1.4,0-2.6-1.1-2.6-2.4c0-1.3,1.2-2.4,2.6-2.4
											S465.9,597,465.9,598.3z"/>
										<path class="st11" d="M460.7,568h24.8v28.8h-16.9c0,0-1.3-4.4-7.9-3.6L460.7,568L460.7,568z"/>
										<path class="st11" d="M460.7,630.6h24.8v-30.5h-16.9c0,0-1.3,4.4-7.9,3.6L460.7,630.6L460.7,630.6z"/>
									</g>
								</g>
							</g>
						</g>
					</g>
					<path class="st2" d="M552.6,497.7l-72.1-62c-2-1.7-4.5-2.5-7-2.4c-2.5-0.1-5,0.7-7,2.4l-72.1,62c-4.4,3.8-4.8,10.7-0.8,15.3
						c4,4.7,10.7,5.4,15.2,1.6l64.7-55.7l64.7,55.7c4.4,3.8,11.2,3.1,15.2-1.6C557.4,508.4,557,501.5,552.6,497.7z"/>
				</g>
				<path class="st6" d="M473.5,451c-5.6,0-54.3,43.1-65.1,52.1s-17.5,4.2-17.5,4.2c0.3,2,1.2,4,2.6,5.7c4,4.7,10.7,5.4,15.2,1.6
					l64.7-55.7l64.7,55.7c4.4,3.8,11.2,3.1,15.2-1.6s3.6-11.5-0.8-15.3C541.4,513.9,480.5,451,473.5,451z"/>
			</g>
			<path class="st2" d="M376.7,644.2c10.8-6.7,27.5-15.9,44.7-11.8s41.4,8.7,64.7,3.7s56.3-12.4,86.6,1.7v16.3h-196V644.2z"/>
		</g>
		<g>
			<path class="st2" d="M896.4,672.4c-14-8.7-35.7-20.6-58-15.3c-22.3,5.4-53.8,11.3-84,4.8S681.3,645.8,642,664v21.1h254.4V672.4z"
				/>
		</g>
		<g>
			<path class="st4" d="M1456.2,565.7c0,0,2.1-1.1,4.1-0.5c2.8,1,4.2,0.5,4.2,0.5v-11.9h-8.3L1456.2,565.7L1456.2,565.7z"/>
			<g>
				<g>
					<path class="st5" d="M1480.6,524.8c0,0,11.1,8.6,20.2,4.5c0,0-18.9-14.3-23-27.4c0,0,7.4,2.6,16,0c0,0-18.6-13.1-21.3-31.1
						c0,0,2.7,1.5,10.6,2.2c0,0-22.7-19.9-22.7-54c0,34.1-22.7,54-22.7,54c8-0.8,10.6-2.2,10.6-2.2c-2.7,18-21.3,31.1-21.3,31.1
						c8.6,2.6,16,0,16,0c-4.1,13.1-23,27.4-23,27.4c9.2,4.1,20.2-4.5,20.2-4.5c-4.9,17.3-20.2,30-20.2,30
						c18.3,7.5,40.5,5.3,40.5,5.3s22.2,2.2,40.5-5.3C1500.8,554.8,1485.5,542,1480.6,524.8z"/>
				</g>
				<path class="st2" d="M1437,468.8c-1.8,3-1,6.7,2.7,5.8c3.7-0.9,5.3-4.3,10.5-5.8c5.3-1.5,8.7,5.6,12.9,5
					c4.3-0.6,11.6,3.7,12.4,12.4c0.7,8.7,3.5,14.4,7,16.6c3.6,2.2,12.9,2.7,13.3-1.6c0.3-4.3-10.2-9.7-13.3-13.6
					c-3.1-3.9-8-12.7-3.7-12.7c4.2,0,8.1-0.9,5.4-5.2c-2.7-4.3-17.5-23.8-19.6-33.7c-2-9.9-1.4-19.4-4.4-19
					C1457.4,417.5,1449.2,448.6,1437,468.8z"/>
				<path class="st2" d="M1424.8,520.5c1.7-4,12.2-17.6,16.5-15.9s6.5,5.8,11.4,3.8c4.9-1.9,12.2,1.1,15.6,6.3
					c3.4,5.2-1.6,15.8-11.8,14.8c-10.2-1-17.1-1-22.4,4.2s-18.2,0.5-17.5-4.2C1417.3,524.8,1422.6,525.6,1424.8,520.5z"/>
				<path class="st2" d="M1479.6,519.3c5.4-4.8,11.2-5.3,14.1-0.7c2.9,4.7,12.9,14,10.4,16.9
					C1501.5,538.3,1474.2,524.1,1479.6,519.3z"/>
			</g>
		</g>
		<path class="st6" d="M436.2,637.7c0,0,57.6,18.8,43.8,51.9c-13.8,33.1-45.2,73.6,4.9,115.3c76.7,63.9,82.3,92.5,56.4,163.1h220.2
			c0,0-7.1-105.1-91-144.5c-83.8-39.4-146.1-79.5-129.3-124.1c16.9-44.6-39.6-63.7-60.3-65.3L436.2,637.7z"/>
		<g>
			<ellipse class="st6" cx="1041.4" cy="570.3" rx="89.3" ry="15.2"/>
			<g>
				<polygon class="st12" points="981.3,432.5 976.7,413.3 981.3,412 991.9,412.2 996.7,413.1 992.5,432.5 989.3,431.8 984.3,431.7 
									"/>
				<path class="st13" d="M994.8,556.9l-2.6-25.6c0,0-2.2-2-0.6-3.6c0,0,0.6-0.8,0.6-1.6c0-0.8-0.6-1.3-0.6-1.3s-1.9-1.3-0.5-3.1
					l-1-1.8v-34.6c0,0,1.7-0.6,1.7-1.8c0-0.8-1.7-1.5-1.7-1.5l0,0v-47.8c1.8-0.3,3.1-0.8,3.1-0.8l4.1-20.2l0.7,0.1l1.8-0.6l-5.1-1.5
					c-0.5-0.6-1.7-2.1-1.8-3.7l-1.3-0.4c0,0-1.3-3.7-4.2-4.5c-0.4-1.3,0.5-1.8,0.5-1.8l-0.7-1c0.7-2-0.6-3.2-0.6-3.2
					c-1.3,1.6-0.4,3.3-0.4,3.3l-0.6,0.9c0.7,0.5,0.7,1.2,0.5,1.7c-3,0.8-4.3,4.5-4.3,4.5l-1.3,0.4c-0.1,1.7-1.5,3.1-1.9,3.5l-5,1.6
					l1.7,0.6l0.9-0.2l4.7,20.5c0,0,1,0.4,2.5,0.8V482c0,0-1.7,0.5-1.7,1.5s1.7,1.8,1.7,1.8v34.6l-1,1.8c1.4,1.8-0.5,3.1-0.5,3.1
					s-0.6,0.6-0.6,1.3c0,0.7,0.6,1.6,0.6,1.6c1.6,1.8-0.6,3.6-0.6,3.6l-2.6,25.6v4.5l-3.1,2.3v3.4H998v-3.4l-3.1-2.3L994.8,556.9
					L994.8,556.9z M990.9,412.7l-1.7,18.6h-4.9l-2.4-18.6H990.9z M992.2,431.9l-1.9-0.4l1.7-18.6l3.9,0.8L992.2,431.9z M981.8,431.9
					l-4.3-18.3l3.2-0.8l2.4,18.7L981.8,431.9z"/>
			</g>
			<g>
				<g>
					<g>
						<rect x="1016.9" y="525.7" class="st13" width="4" height="37.2"/>
						<rect x="1092" y="525.7" class="st13" width="4" height="37.2"/>
					</g>
					<g>
						<g>
							<g>
								<rect x="1010.9" y="521.1" class="st14" width="91.2" height="8.8"/>
								<circle class="st13" cx="1019.3" cy="525.5" r="0.8"/>
							</g>
							<path class="st13" d="M1095.1,525.5c0,0.4-0.3,0.8-0.8,0.8c-0.4,0-0.8-0.3-0.8-0.8c0-0.4,0.3-0.8,0.8-0.8
								C1094.8,524.8,1095.1,525.1,1095.1,525.5z"/>
						</g>
						<g>
							<rect x="1010.9" y="531.3" class="st14" width="91.2" height="8.8"/>
							<g>
								<circle class="st13" cx="1019.4" cy="535.7" r="0.8"/>
								<circle class="st13" cx="1094.4" cy="535.7" r="0.8"/>
							</g>
						</g>
						<g>
							<rect x="1010.9" y="541.4" class="st14" width="91.2" height="8.8"/>
							<g>
								<circle class="st13" cx="1019.4" cy="545.8" r="0.8"/>
								<circle class="st13" cx="1094.4" cy="545.8" r="0.8"/>
							</g>
						</g>
					</g>
				</g>
				<g>
					<polygon class="st15" points="1102.1,551.6 1056.5,551.6 1010.9,551.6 1004.2,553.4 1004.2,556 1056.5,556 1108.7,556 
						1108.7,553.4 					"/>
					<g>
						<rect x="1006.1" y="556" class="st13" width="4" height="11"/>
						<rect x="1102.8" y="556" class="st13" width="4" height="11"/>
					</g>
				</g>
			</g>
		</g>
		<g>
			<path class="st4" d="M907.9,592.5c0,0,2.4-1.3,4.5-0.5c3.1,1.1,4.7,0.5,4.7,0.5v-13.3h-9.2V592.5z"/>
			<g>
				<g>
					<path class="st5" d="M935,546.9c0,0,12.3,9.6,22.6,5c0,0-21.1-15.9-25.7-30.5c0,0,8.2,2.9,17.8,0c0,0-20.8-14.6-23.7-34.7
						c0,0,3,1.7,11.9,2.5c0,0-25.4-22.2-25.4-60.2c0,38.1-25.4,60.2-25.4,60.2c8.9-0.8,11.9-2.5,11.9-2.5
						c-3,20.1-23.7,34.7-23.7,34.7c9.6,2.9,17.8,0,17.8,0c-4.6,14.6-25.7,30.5-25.7,30.5c10.2,4.6,22.6-5,22.6-5
						c-5.4,19.2-22.6,33.5-22.6,33.5c20.4,8.4,45.1,5.9,45.1,5.9s24.7,2.5,45.1-5.9C957.6,580.3,940.5,566.1,935,546.9z"/>
				</g>
				<path class="st2" d="M886.5,484.5c-2,3.4-1.1,7.5,3,6.5c4.2-1,5.9-4.8,11.8-6.5s9.7,6.3,14.4,5.5c4.7-0.7,13,4.2,13.8,13.9
					c0.8,9.7,3.9,16,7.8,18.5c4,2.5,14.4,3,14.8-1.8s-11.4-10.8-14.8-15.2c-3.4-4.3-8.9-14.2-4.2-14.2c4.7,0,9.1-1,6-5.8
					c-3-4.8-19.5-26.5-21.8-37.5c-2.3-11.1-1.6-21.7-4.9-21.2C909.2,427.2,900.1,461.9,886.5,484.5z"/>
				<path class="st2" d="M872.8,542c1.9-4.5,13.6-19.6,18.4-17.7c4.7,1.9,7.2,6.4,12.7,4.3c5.5-2.2,13.6,1.2,17.4,7
					c3.8,5.8-1.8,17.6-13.1,16.5c-11.3-1.1-19.1-1.1-25,4.7c-5.9,5.8-20.3,0.5-19.5-4.7C864.5,546.8,870.4,547.8,872.8,542z"/>
				<path class="st2" d="M933.9,540.8c6-5.3,12.5-5.9,15.7-0.7c3.2,5.2,14.4,15.7,11.6,18.8C958.4,562,927.9,546.1,933.9,540.8z"/>
			</g>
		</g>
		<g>
			<path class="st4" d="M1165.6,595.2c0,0,2.3-1.4,4.4-0.6c3,1.1,4.5,0.6,4.5,0.6V581h-8.9V595.2z"/>
			<path class="st4" d="M1274.9,594.5c0,0,2.3-1.4,4.4-0.6c3,1.1,4.5,0.6,4.5,0.6v-14.2h-8.9V594.5z"/>
			<g>
				<path class="st5" d="M1146,551.1c0,0-13.1,9.1-24,4.7c0,0,22.4-15,27.3-28.8c0,0-8.8,2.8-18.9,0c0,0,22-13.8,25.2-32.7
					c0,0-3.1,1.6-12.6,2.4c0,0,26.9-20.9,26.9-56.8c0,35.9,26.9,56.8,26.9,56.8c-9.4-0.8-12.6-2.4-12.6-2.4
					c3.2,18.9,25.2,32.7,25.2,32.7c-10.1,2.8-18.9,0-18.9,0c4.9,13.8,27.3,28.8,27.3,28.8c-10.9,4.3-24-4.7-24-4.7
					c5.8,18.1,24,31.6,24,31.6c-21.7,7.9-47.9,5.5-47.9,5.5s-26.2,2.4-47.9-5.5C1122,582.7,1140.2,569.3,1146,551.1z"/>
				<path class="st2" d="M1138.3,493.5c4.3-4.8,13.3-13.4,21-29.5c7.6-16.1,5.2-26.9,10.7-27.7c5.4-0.8,13.6,28.7,18.8,40.3
					c5.2,11.5,12.5,14,15.9,18.9c3.3,4.8-8.7,4-13.2,2.6c3.7,4.5,10.3,11.8,14.1,14.4c8.2,5.7,16.4,10.6,6,14.3
					c-6.4,2.3-16.9-10.8-22-15.2c-13.9-12.1-32-15.7-40.1-12.7C1141.4,501.9,1134,498.3,1138.3,493.5z"/>
			</g>
		</g>
		<g>
			<path class="st2" d="M1158.2,636.9c13.8-6.7,35.2-15.9,57.3-11.8c22.1,4.1,53.1,8.7,83,3.7s72.3-12.4,111.1,1.7v16.3h-251.4
				V636.9z"/>
		</g>
		<g>
			<path class="st4" d="M1383.9,657.2c0,0-2.2-1.7-4.1-0.7c-2.8,1.5-4.3,0.7-4.3,0.7v-18h8.4V657.2z"/>
			<g>
				<g>
					<path class="st5" d="M1402.9,603c0,0,13.3,11.1,24.2,5.8c0,0-22.6-18.4-27.6-35.3c0,0,8.8,3.4,19.1,0c0,0-22.3-16.9-25.5-40.2
						c0,0,3.2,1.9,12.7,2.9c0,0-27.2-25.6-27.2-69.7c0,44-27.2,69.7-27.2,69.7c9.5-1,12.7-2.9,12.7-2.9
						c-3.2,23.2-25.5,40.2-25.5,40.2c10.3,3.4,19.1,0,19.1,0c-4.9,16.9-27.6,35.3-27.6,35.3c11,5.3,24.2-5.8,24.2-5.8
						c-5.8,22.3-24.2,38.7-24.2,38.7c21.9,9.7,48.4,6.8,48.4,6.8s26.5,2.9,48.4-6.8C1427.2,641.7,1408.8,625.2,1402.9,603z"/>
				</g>
				<g>
					<path class="st5" d="M1299.4,538.5c0,0,13.3,11.1,24.2,5.8c0,0-22.6-18.4-27.6-35.3c0,0,8.8,3.4,19.1,0
						c0,0-22.3-16.9-25.5-40.2c0,0,3.2,1.9,12.7,2.9c0,0-27.2-25.6-27.2-69.7c0,44-27.2,69.7-27.2,69.7c9.5-1,12.7-2.9,12.7-2.9
						c-3.2,23.2-25.5,40.2-25.5,40.2c10.3,3.4,19.1,0,19.1,0c-4.9,16.9-27.6,35.3-27.6,35.3c11,5.3,24.2-5.8,24.2-5.8
						c-5.8,22.3-24.2,38.7-24.2,38.7c21.9,9.7,48.4,6.8,48.4,6.8s26.5,2.9,48.4-6.8C1323.7,577.2,1305.3,560.7,1299.4,538.5z"/>
				</g>
				<path class="st2" d="M1350.8,530.8c-2.2,3.9-1.2,8.6,3.3,7.5c4.5-1.1,6.3-5.6,12.6-7.5c6.3-2,10.4,7.2,15.5,6.4
					s13.9,4.8,14.8,16.1c0.9,11.2,4.1,18.6,8.4,21.4c4.3,2.9,15.5,3.4,15.9-2.1c0.4-5.6-12.2-12.5-15.9-17.5
					c-3.7-5-9.5-16.4-4.5-16.4c5.1,0,9.7-1.1,6.5-6.7c-3.3-5.6-21-30.6-23.4-43.4s-1.7-25.1-5.2-24.5
					C1375.2,464.5,1365.4,504.6,1350.8,530.8z"/>
				<path class="st2" d="M1248.8,475.3c-2.2,3.9-1.2,8.6,3.3,7.5s6.3-5.6,12.6-7.5c6.3-2,10.4,7.2,15.5,6.4
					c5.1-0.8,13.9,4.8,14.8,16.1c0.9,11.2,4.1,18.6,8.4,21.4c4.3,2.9,15.5,3.4,15.9-2.1c0.4-5.6-12.2-12.5-15.9-17.5
					c-3.7-5-9.5-16.4-4.5-16.4c5.1,0,9.7-1.1,6.5-6.7c-3.3-5.6-21-30.6-23.4-43.4s-1.7-25.1-5.2-24.5
					C1273.2,409,1263.4,449.1,1248.8,475.3z"/>
				<path class="st2" d="M1336.1,597.4c2.1-5.2,14.7-22.7,19.7-20.5c5.1,2.1,7.7,7.4,13.6,4.9s14.7,1.4,18.7,8.1
					c4.1,6.7-2,20.4-14.1,19.1c-12.2-1.3-20.5-1.3-26.8,5.4c-6.3,6.7-21.8,0.6-21-5.4C1327.2,602.9,1333.5,604.1,1336.1,597.4z"/>
				<path class="st2" d="M1401.7,595.9c6.4-6.2,13.4-6.9,16.9-0.9s15.5,18.1,12.4,21.7C1428,620.4,1395.3,602.1,1401.7,595.9z"/>
			</g>
		</g>
	</g>
</g>
<path class="st2" d="M1119.2,441.1c3.3,0,6,2.7,6,6s-2.7,6-6,6s-6-2.7-6-6C1113.2,443.8,1115.9,441.1,1119.2,441.1z"/>
<path class="st2" d="M1224.1,441.1c3.3,0,6,2.7,6,6s-2.7,6-6,6s-6-2.7-6-6C1218.1,443.8,1220.8,441.1,1224.1,441.1z"/>
<path class="st2" d="M1294.7,391.8c4.4,0,8,3.6,8,8s-3.6,8-8,8s-8-3.6-8-8C1286.7,395.3,1290.3,391.8,1294.7,391.8z"/>
<path class="st2" d="M1369.9,452.8c3.3,0,6,2.7,6,6s-2.7,6-6,6s-6-2.7-6-6S1366.6,452.8,1369.9,452.8z"/>
<path class="st2" d="M1404.5,361.2c4.4,0,8,3.6,8,8s-3.6,8-8,8s-8-3.6-8-8C1396.5,364.7,1400.1,361.2,1404.5,361.2z"/>
<path class="st2" d="M293.3,237.7c0,3.3-2.6,5.9-5.9,5.9s-5.9-2.6-5.9-5.9c0-3.3,2.6-5.9,5.9-5.9
	C290.7,231.8,293.3,234.4,293.3,237.7z"/>
<path class="st2" d="M586.6,312.8c0,4.3-3.5,7.8-7.8,7.8s-7.8-3.5-7.8-7.8c0-4.3,3.5-7.8,7.8-7.8S586.6,308.5,586.6,312.8z"/>
<path class="st2" d="M643.2,372.6c2.5-2.1,6.2-1.8,8.3,0.7s1.8,6.2-0.7,8.3c-2.5,2.1-6.2,1.8-8.3-0.7S640.7,374.7,643.2,372.6z"/>
<path class="st2" d="M751.5,397.8c2.5-2.1,6.2-1.8,8.3,0.7s1.8,6.2-0.7,8.3c-2.5,2.1-6.2,1.8-8.3-0.7
	C748.7,403.6,749,399.9,751.5,397.8z"/>
<path class="st2" d="M1451.1,266.3c2.3,3.7,1.2,8.7-2.5,11c-3.7,2.4-8.7,1.2-11-2.5c-2.3-3.7-1.2-8.7,2.5-11
	C1443.8,261.5,1448.8,262.6,1451.1,266.3z"/>
<path class="st2" d="M653.7,458.9c2.3,3.7,1.2,8.7-2.5,11c-3.7,2.4-8.7,1.2-11-2.5s-1.2-8.7,2.5-11
	C646.5,454,651.4,455.1,653.7,458.9z"/>
<text transform="matrix(1 0 0 1 140.131 854.7075)" class="st16 st17">Pictures from freepik.com</text>
</svg>
