<?xml version="1.0" encoding="utf-8"?>
<!-- Generator: Adobe Illustrator 19.1.0, SVG Export Plug-In . SVG Version: 6.00 Build 0)  -->
<svg version="1.1" id="图层_1" xmlns="http://www.w3.org/2000/svg" xmlns:xlink="http://www.w3.org/1999/xlink" x="0px" y="0px"
	 viewBox="120 -73.6 1463.4 938.6" style="enable-background:new 120 -73.6 1463.4 938.6;" xml:space="preserve">
<style type="text/css">
	.st0{fill:#A0D2D0;}
	.st1{fill:#72BBAE;}
	.st2{fill:#FFFFFF;}
	.st3{fill:#E9F3F0;}
	.st4{fill:#8E7856;}
	.st5{fill:#A2D6CD;}
	.st6{fill:#EEF5F5;}
	.st7{fill:#4E9B8B;}
	.st8{font-family:'AdobeSongStd-Light-GBpc-EUC-H';}
	.st9{font-size:14px;}
</style>
<rect x="121.5" y="-74.6" class="st0" width="1463.4" height="938.6"/>
<g>
	<g>
		<polygon class="st1" points="132.2,522.8 308.5,181 504.8,556.3 		"/>
		<g>
			<path class="st2" d="M310.1,172.8c-17.3-1.9-32.4,37.4-46.1,70.8s-46.6,84-38.8,94.3c7.8,10.2,44,11.8,70.8-10.2s52.7-6.7,73.6,0
				s24.2-11.2,14.6-29.1C374.6,280.8,331.3,175.1,310.1,172.8z"/>
			<path class="st3" d="M369.5,327.7c20.9,6.7,24.2-11.2,14.6-29.1c1.6,22.9-30.8,4-56.7,4.4c-26,0.5-53.5,25.1-74.2,29
				c-20.6,3.9-22.6-20.2-22.6-20.3c-5.5,12.4-8.5,22.2-5.5,26.1c7.8,10.2,44,11.8,70.8-10.2C322.7,305.7,348.6,321,369.5,327.7z"/>
		</g>
	</g>
	<g>
		<polygon class="st1" points="756.2,587.2 579.4,258.4 382.6,619.5 		"/>
		<g>
			<path class="st2" d="M576.5,244.3c13.8-1.6,25.8,31.9,36.7,60.5c10.9,28.5,37.1,71.7,30.9,80.5c-6.2,8.7-35,10.1-56.2-8.7
				c-21.3-18.8-41.9-5.7-58.5,0s-19.2-9.6-11.6-24.8C525.2,336.5,559.6,246.3,576.5,244.3z"/>
			<path class="st3" d="M529.3,376.6c-16.6,5.7-19.2-9.6-11.6-24.8c-1.3,19.5,24.4,3.4,45.1,3.8c20.6,0.4,42.5,21.4,58.9,24.8
				c16.4,3.3,17.9-17.2,17.9-17.3c4.4,10.6,6.7,19,4.4,22.3c-6.2,8.7-35,10.1-56.2-8.7C566.5,357.8,545.8,370.9,529.3,376.6z"/>
		</g>
	</g>
	<g>
		<polygon class="st1" points="1212.9,532.8 1387.4,175.6 1581.8,567.9 		"/>
		<g>
			<path class="st2" d="M1389,167c-17.2-2-32.1,39.1-45.7,74s-46.2,87.8-38.4,98.5c7.7,10.7,43.6,12.4,70.1-10.6s52.2-7,72.8,0
				c20.7,7,23.9-11.7,14.5-30.4C1452.9,279.9,1410,169.5,1389,167z"/>
			<path class="st3" d="M1447.8,328.9c20.7,7,23.9-11.7,14.5-30.4c1.6,23.9-30.5,4.1-56.2,4.6s-53,26.2-73.4,30.3
				c-20.4,4.1-22.3-21.1-22.4-21.2c-5.5,13-8.4,23.2-5.5,27.3c7.7,10.7,43.6,12.4,70.1-10.6C1401.4,306,1427.1,322,1447.8,328.9z"/>
		</g>
	</g>
	<g>
		<path class="st2" d="M121.5,503.3c0,0,114.9-16.6,234.7,15.2c152.2,40.3,284.6-4.4,396.8-17c112.3-12.6,240,5.1,358.8,16
			c192.4,17.7,312.8-54.4,469.9-57.1V970H121.5V503.3z"/>
		<g>
			<path class="st4" d="M202.7,837.4c0,0-2.7-2.1-5.1-0.9c-3.5,1.8-5.3,0.9-5.3,0.9v-22.2h10.4L202.7,837.4L202.7,837.4z"/>
			<g>
				<g>
					<path class="st5" d="M226.1,770.8c0,0,16.3,13.7,29.8,7.1c0,0-27.8-22.6-33.9-43.4c0,0,10.9,4.2,23.5,0
						c0,0-27.4-20.8-31.3-49.3c0,0,3.9,2.4,15.6,3.6c0,0-33.5-31.5-33.5-85.6c0,54.1-33.5,85.6-33.5,85.6
						c11.7-1.2,15.6-3.6,15.6-3.6c-3.9,28.5-31.3,49.3-31.3,49.3c12.6,4.2,23.5,0,23.5,0c-6.1,20.8-33.9,43.4-33.9,43.4
						c13.5,6.5,29.8-7.1,29.8-7.1c-7.2,27.3-29.8,47.6-29.8,47.6c26.9,11.9,59.5,8.3,59.5,8.3s32.6,3.6,59.5-8.3
						C255.9,818.3,233.3,798.1,226.1,770.8z"/>
				</g>
				<path class="st2" d="M144,763.9c2.5-6.4,18-27.8,24.3-25.2c6.2,2.6,9.5,9.1,16.8,6.1c7.3-3.1,18,1.7,23,9.9s-2.4,25-17.3,23.5
					c-14.9-1.6-25.2-1.6-32.9,6.6c-7.8,8.2-26.8,0.8-25.8-6.6C133,770.8,140.7,772.1,144,763.9z"/>
			</g>
		</g>
		<path class="st6" d="M833.8,801.7c0,0,25.6-10,62,0s107,0,107,0s-62.9,21.9-98.9,18.9C868,817.6,858.7,799.4,833.8,801.7z"/>
		<path class="st6" d="M222.9,714c0,0,18.9-8.7,45.8,0c26.9,8.6,79,0,79,0s-46.5,19-73,16.4C248.1,727.8,241.3,712.1,222.9,714z"/>
		<path class="st6" d="M327.4,886.9c0,0,19.1-9,46.3,0s79.9,0,79.9,0s-47,19.6-73.8,17C352.9,901.2,346,884.9,327.4,886.9z"/>
		<path class="st6" d="M1300.6,734.5c0,0,18.9-8.7,45.8,0c26.9,8.6,79,0,79,0s-46.5,19-73,16.4
			C1325.8,748.3,1318.9,732.5,1300.6,734.5z"/>
		<path class="st6" d="M1370,943.9c0,0,18.9-8.7,45.8,0c26.9,8.6,79,0,79,0s-46.5,19-73,16.4C1395.2,957.7,1388.4,941.9,1370,943.9z
			"/>
		<g>
			<g>
				<g>
					<path class="st7" d="M200.1,481.8c0,0,7.1,6,13,3.1c0,0-12.2-9.9-14.9-19c0,0,4.8,1.8,10.3,0c0,0-12-9.1-13.7-21.6
						c0,0,1.7,1,6.9,1.6c0,0-14.7-13.8-14.7-37.5c0,23.7-14.7,37.5-14.7,37.5c5.1-0.5,6.9-1.6,6.9-1.6
						c-1.7,12.5-13.7,21.6-13.7,21.6c5.5,1.8,10.3,0,10.3,0c-2.7,9.1-14.9,19-14.9,19c5.9,2.9,13-3.1,13-3.1
						c-3.1,12-13,20.8-13,20.8c11.8,5.2,26.1,3.6,26.1,3.6s14.3,1.6,26.1-3.6C213.1,502.7,203.2,493.8,200.1,481.8z"/>
				</g>
			</g>
			<g>
				<g>
					<path class="st7" d="M253.2,490.3c0,0,7.1,6,13,3.1c0,0-12.2-9.9-14.9-19c0,0,4.8,1.8,10.3,0c0,0-12-9.1-13.7-21.6
						c0,0,1.7,1,6.9,1.6c0,0-14.7-13.8-14.7-37.5c0,23.7-14.7,37.5-14.7,37.5c5.1-0.5,6.9-1.6,6.9-1.6
						c-1.7,12.5-13.7,21.6-13.7,21.6c5.5,1.8,10.3,0,10.3,0c-2.7,9.1-14.9,19-14.9,19c5.9,2.9,13-3.1,13-3.1
						c-3.1,12-13,20.8-13,20.8c11.8,5.2,26.1,3.7,26.1,3.7s14.3,1.6,26.1-3.7C266.3,511.1,256.4,502.2,253.2,490.3z"/>
				</g>
			</g>
			<g>
				<g>
					<path class="st7" d="M298.4,491.4c0,0,5.6,4.7,10.3,2.5c0,0-9.6-7.8-11.7-15c0,0,3.8,1.4,8.1,0c0,0-9.4-7.2-10.8-17
						c0,0,1.3,0.8,5.4,1.2c0,0-11.5-10.9-11.5-29.5c0,18.7-11.5,29.5-11.5,29.5c4-0.4,5.4-1.2,5.4-1.2c-1.4,9.8-10.8,17-10.8,17
						c4.3,1.4,8.1,0,8.1,0c-2.1,7.2-11.7,15-11.7,15c4.6,2.3,10.3-2.5,10.3-2.5c-2.5,9.4-10.3,16.4-10.3,16.4
						c9.3,4.1,20.5,2.9,20.5,2.9s11.2,1.2,20.5-2.9C308.6,507.8,300.8,500.8,298.4,491.4z"/>
				</g>
			</g>
			<g>
				<g>
					<path class="st7" d="M357.1,495.1c0,0,6,5.1,11,2.6c0,0-10.3-8.4-12.5-16c0,0,4,1.5,8.7,0c0,0-10.1-7.7-11.6-18.2
						c0,0,1.4,0.9,5.8,1.3c0,0-12.4-11.6-12.4-31.6c0,20-12.4,31.6-12.4,31.6c4.3-0.4,5.8-1.3,5.8-1.3
						c-1.4,10.5-11.6,18.2-11.6,18.2c4.7,1.5,8.7,0,8.7,0c-2.2,7.7-12.5,16-12.5,16c5,2.4,11-2.6,11-2.6c-2.6,10.1-11,17.6-11,17.6
						c10,4.4,22,3.1,22,3.1s12,1.3,22-3.1C368.1,512.7,359.8,505.2,357.1,495.1z"/>
				</g>
			</g>
			<g>
				<g>
					<path class="st7" d="M412.1,506c0,0,7.1,6,13,3.1c0,0-12.2-9.9-14.9-19c0,0,4.8,1.8,10.3,0c0,0-12-9.1-13.7-21.6
						c0,0,1.7,1,6.9,1.6c0,0-14.7-13.8-14.7-37.5c0,23.7-14.7,37.5-14.7,37.5c5.1-0.5,6.9-1.6,6.9-1.6
						c-1.7,12.5-13.7,21.6-13.7,21.6c5.5,1.8,10.3,0,10.3,0c-2.7,9.1-14.9,19-14.9,19c5.9,2.9,13-3.1,13-3.1
						c-3.1,12-13,20.8-13,20.8c11.8,5.2,26.1,3.7,26.1,3.7s14.3,1.6,26.1-3.7C425.1,526.9,415.2,518,412.1,506z"/>
				</g>
			</g>
			<g>
				<g>
					<path class="st7" d="M460.7,513.3c0,0,5.6,4.7,10.3,2.5c0,0-9.6-7.8-11.7-15c0,0,3.8,1.4,8.1,0c0,0-9.4-7.2-10.8-17
						c0,0,1.3,0.8,5.4,1.2c0,0-11.5-10.9-11.5-29.5c0,18.7-11.5,29.5-11.5,29.5c4-0.4,5.4-1.2,5.4-1.2c-1.4,9.8-10.8,17-10.8,17
						c4.3,1.4,8.1,0,8.1,0c-2.1,7.2-11.7,15-11.7,15c4.6,2.3,10.3-2.5,10.3-2.5c-2.5,9.4-10.3,16.4-10.3,16.4
						c9.3,4.1,20.5,2.9,20.5,2.9s11.2,1.2,20.5-2.9C471,529.7,463.2,522.7,460.7,513.3z"/>
				</g>
			</g>
			<g>
				<g>
					<path class="st7" d="M564.2,521.7c0,0,7.1,6,13,3.1c0,0-12.2-9.9-14.9-19c0,0,4.8,1.8,10.3,0c0,0-12-9.1-13.7-21.6
						c0,0,1.7,1,6.9,1.6c0,0-14.7-13.8-14.7-37.5c0,23.7-14.7,37.5-14.7,37.5c5.1-0.5,6.9-1.6,6.9-1.6
						c-1.7,12.5-13.7,21.6-13.7,21.6c5.5,1.8,10.3,0,10.3,0c-2.7,9.1-14.9,19-14.9,19c5.9,2.9,13-3.1,13-3.1
						c-3.1,12-13,20.8-13,20.8c11.8,5.2,26.1,3.7,26.1,3.7s14.3,1.6,26.1-3.7C577.2,542.5,567.3,533.7,564.2,521.7z"/>
				</g>
			</g>
			<g>
				<g>
					<path class="st7" d="M627.4,514c0,0,8.3,7,15.1,3.6c0,0-14.2-11.5-17.2-22.1c0,0,5.5,2.1,11.9,0c0,0-13.9-10.6-15.9-25.1
						c0,0,2,1.2,8,1.8c0,0-17-16-17-43.6c0,27.5-17,43.6-17,43.6c6-0.6,8-1.8,8-1.8c-2,14.5-15.9,25.1-15.9,25.1
						c6.4,2.1,11.9,0,11.9,0c-3.1,10.6-17.2,22.1-17.2,22.1c6.9,3.3,15.1-3.6,15.1-3.6c-3.6,13.9-15.1,24.2-15.1,24.2
						c13.7,6.1,30.3,4.2,30.3,4.2s16.6,1.8,30.3-4.2C642.5,538.2,631.1,527.9,627.4,514z"/>
				</g>
			</g>
			<g>
				<g>
					<path class="st7" d="M674.6,506.3c0,0,5.6,4.7,10.3,2.5c0,0-9.6-7.8-11.7-15c0,0,3.8,1.4,8.1,0c0,0-9.4-7.2-10.8-17
						c0,0,1.3,0.8,5.4,1.2c0,0-11.5-10.9-11.5-29.5c0,18.7-11.5,29.5-11.5,29.5c4-0.4,5.4-1.2,5.4-1.2c-1.4,9.8-10.8,17-10.8,17
						c4.3,1.4,8.1,0,8.1,0c-2.1,7.2-11.7,15-11.7,15c4.6,2.3,10.3-2.5,10.3-2.5c-2.5,9.4-10.3,16.4-10.3,16.4
						c9.3,4.1,20.5,2.9,20.5,2.9s11.2,1.2,20.5-2.9C684.8,522.7,677,515.8,674.6,506.3z"/>
				</g>
			</g>
			<g>
				<g>
					<path class="st7" d="M881.6,489.5c0,0,7.1,6,13,3.1c0,0-12.2-9.9-14.9-19c0,0,4.8,1.8,10.3,0c0,0-12-9.1-13.7-21.6
						c0,0,1.7,1,6.9,1.6c0,0-14.7-13.8-14.7-37.5c0,23.7-14.7,37.5-14.7,37.5c5.1-0.5,6.9-1.6,6.9-1.6
						c-1.7,12.5-13.7,21.6-13.7,21.6c5.5,1.8,10.3,0,10.3,0c-2.7,9.1-14.9,19-14.9,19c5.9,2.9,13-3.1,13-3.1
						c-3.1,12-13,20.8-13,20.8c11.8,5.2,26.1,3.6,26.1,3.6s14.3,1.6,26.1-3.6C894.6,510.3,884.7,501.5,881.6,489.5z"/>
				</g>
			</g>
			<g>
				<g>
					<path class="st7" d="M949.4,504c0,0,8.6,7.2,15.7,3.8c0,0-14.7-11.9-17.9-23c0,0,5.7,2.2,12.4,0c0,0-14.5-11-16.5-26.1
						c0,0,2.1,1.3,8.3,1.9c0,0-17.7-16.7-17.7-45.3c0,28.6-17.7,45.3-17.7,45.3c6.2-0.6,8.3-1.9,8.3-1.9
						c-2.1,15.1-16.5,26.1-16.5,26.1c6.7,2.2,12.4,0,12.4,0c-3.2,11-17.9,23-17.9,23c7.1,3.5,15.7-3.8,15.7-3.8
						c-3.8,14.5-15.7,25.1-15.7,25.1c14.2,6.3,31.5,4.4,31.5,4.4s17.2,1.9,31.5-4.4C965.2,529.1,953.2,518.4,949.4,504z"/>
				</g>
			</g>
			<g>
				<g>
					<path class="st7" d="M1008.5,500.9c0,0,7.1,6,13,3.1c0,0-12.2-9.9-14.9-19c0,0,4.8,1.8,10.3,0c0,0-12-9.1-13.7-21.6
						c0,0,1.7,1,6.9,1.6c0,0-14.7-13.8-14.7-37.5c0,23.7-14.7,37.5-14.7,37.5c5.1-0.5,6.9-1.6,6.9-1.6
						c-1.7,12.5-13.7,21.6-13.7,21.6c5.5,1.8,10.3,0,10.3,0c-2.7,9.1-14.9,19-14.9,19c5.9,2.9,13-3.1,13-3.1
						c-3.1,12-13,20.8-13,20.8c11.8,5.2,26.1,3.7,26.1,3.7s14.3,1.6,26.1-3.7C1021.5,521.7,1011.6,512.9,1008.5,500.9z"/>
				</g>
			</g>
			<g>
				<g>
					<path class="st7" d="M1066,495.7c0,0,7.1,6,13,3.1c0,0-12.2-9.9-14.9-19c0,0,4.8,1.8,10.3,0c0,0-12-9.1-13.7-21.6
						c0,0,1.7,1,6.9,1.6c0,0-14.7-13.8-14.7-37.5c0,23.7-14.7,37.5-14.7,37.5c5.1-0.5,6.9-1.6,6.9-1.6
						c-1.7,12.5-13.7,21.6-13.7,21.6c5.5,1.8,10.3,0,10.3,0c-2.7,9.1-14.9,19-14.9,19c5.9,2.9,13-3.1,13-3.1
						c-3.1,12-13,20.8-13,20.8c11.8,5.2,26.1,3.7,26.1,3.7s14.3,1.6,26.1-3.7C1079,516.5,1069.1,507.6,1066,495.7z"/>
				</g>
			</g>
			<g>
				<g>
					<path class="st7" d="M1129.8,504.7c0,0,8.6,7.2,15.7,3.8c0,0-14.7-11.9-17.9-22.9c0,0,5.7,2.2,12.4,0c0,0-14.5-11-16.5-26.1
						c0,0,2.1,1.3,8.3,1.9c0,0-17.7-16.7-17.7-45.3c0,28.6-17.7,45.3-17.7,45.3c6.2-0.6,8.3-1.9,8.3-1.9
						c-2.1,15.1-16.5,26.1-16.5,26.1c6.7,2.2,12.4,0,12.4,0c-3.2,11-17.9,22.9-17.9,22.9c7.1,3.5,15.7-3.8,15.7-3.8
						c-3.8,14.5-15.7,25.1-15.7,25.1c14.2,6.3,31.5,4.4,31.5,4.4s17.2,1.9,31.5-4.4C1145.5,529.9,1133.5,519.2,1129.8,504.7z"/>
				</g>
			</g>
			<g>
				<g>
					<path class="st7" d="M1202.8,503.1c0,0,8.6,7.2,15.7,3.8c0,0-14.7-11.9-17.9-22.9c0,0,5.7,2.2,12.4,0c0,0-14.5-11-16.5-26.1
						c0,0,2.1,1.3,8.3,1.9c0,0-17.7-16.7-17.7-45.3c0,28.6-17.7,45.3-17.7,45.3c6.2-0.6,8.3-1.9,8.3-1.9
						c-2.1,15.1-16.5,26.1-16.5,26.1c6.7,2.2,12.4,0,12.4,0c-3.2,11-17.9,22.9-17.9,22.9c7.1,3.5,15.7-3.8,15.7-3.8
						c-3.8,14.5-15.7,25.1-15.7,25.1c14.2,6.3,31.5,4.4,31.5,4.4s17.2,1.9,31.5-4.4C1218.5,528.2,1206.6,517.6,1202.8,503.1z"/>
				</g>
			</g>
			<g>
				<g>
					<path class="st7" d="M1322.2,481.5c0,0,7.1,6,13,3.1c0,0-12.2-9.9-14.9-19c0,0,4.8,1.8,10.3,0c0,0-12-9.1-13.7-21.6
						c0,0,1.7,1,6.9,1.6c0,0-14.7-13.8-14.7-37.5c0,23.7-14.7,37.5-14.7,37.5c5.1-0.5,6.9-1.6,6.9-1.6
						c-1.7,12.5-13.7,21.6-13.7,21.6c5.5,1.8,10.3,0,10.3,0c-2.7,9.1-14.9,19-14.9,19c5.9,2.9,13-3.1,13-3.1
						c-3.1,12-13,20.8-13,20.8c11.8,5.2,26.1,3.6,26.1,3.6s14.3,1.6,26.1-3.6C1335.2,502.4,1325.3,493.5,1322.2,481.5z"/>
				</g>
			</g>
			<g>
				<g>
					<path class="st7" d="M1376,495.7c0,0,7.1,6,13,3.1c0,0-12.2-9.9-14.9-19c0,0,4.8,1.8,10.3,0c0,0-12-9.1-13.7-21.6
						c0,0,1.7,1,6.9,1.6c0,0-14.7-13.8-14.7-37.5c0,23.7-14.7,37.5-14.7,37.5c5.1-0.5,6.9-1.6,6.9-1.6
						c-1.7,12.5-13.7,21.6-13.7,21.6c5.5,1.8,10.3,0,10.3,0c-2.7,9.1-14.9,19-14.9,19c5.9,2.9,13-3.1,13-3.1
						c-3.1,12-13,20.8-13,20.8c11.8,5.2,26.1,3.7,26.1,3.7s14.3,1.6,26.1-3.7C1389.1,516.5,1379.2,507.6,1376,495.7z"/>
				</g>
			</g>
			<g>
				<g>
					<path class="st7" d="M1435.8,477.6c0,0,8.6,7.2,15.7,3.8c0,0-14.7-11.9-17.9-22.9c0,0,5.7,2.2,12.4,0c0,0-14.5-11-16.5-26.1
						c0,0,2.1,1.3,8.3,1.9c0,0-17.7-16.7-17.7-45.3c0,28.6-17.7,45.3-17.7,45.3c6.2-0.6,8.3-1.9,8.3-1.9
						c-2.1,15.1-16.5,26.1-16.5,26.1c6.7,2.2,12.4,0,12.4,0c-3.2,11-17.9,22.9-17.9,22.9c7.1,3.5,15.7-3.8,15.7-3.8
						c-3.8,14.5-15.7,25.1-15.7,25.1c14.2,6.3,31.5,4.4,31.5,4.4s17.2,1.9,31.5-4.4C1451.5,502.8,1439.6,492.1,1435.8,477.6z"/>
				</g>
			</g>
			<g>
				<g>
					<path class="st7" d="M1492.5,464.9c0,0,7.1,6,13,3.1c0,0-12.2-9.9-14.9-19c0,0,4.8,1.8,10.3,0c0,0-12-9.1-13.7-21.6
						c0,0,1.7,1,6.9,1.6c0,0-14.7-13.8-14.7-37.5c0,23.7-14.7,37.5-14.7,37.5c5.1-0.5,6.9-1.6,6.9-1.6
						c-1.7,12.5-13.7,21.6-13.7,21.6c5.5,1.8,10.3,0,10.3,0c-2.7,9.1-14.9,19-14.9,19c5.9,2.9,13-3.1,13-3.1
						c-3.1,12-13,20.8-13,20.8c11.8,5.2,26.1,3.6,26.1,3.6s14.3,1.6,26.1-3.6C1505.5,485.7,1495.6,476.9,1492.5,464.9z"/>
				</g>
			</g>
		</g>
		<g>
			<path class="st4" d="M1481.6,837.4c0,0,2.7-2.1,5.1-0.9c3.5,1.8,5.3,0.9,5.3,0.9v-22.2h-10.4V837.4z"/>
			<g>
				<g>
					<path class="st5" d="M1458.2,770.8c0,0-16.3,13.7-29.8,7.1c0,0,27.8-22.6,33.9-43.4c0,0-10.9,4.2-23.5,0
						c0,0,27.4-20.8,31.3-49.3c0,0-3.9,2.4-15.6,3.6c0,0,33.5-31.5,33.5-85.6c0,54.1,33.5,85.6,33.5,85.6
						c-11.7-1.2-15.6-3.6-15.6-3.6c3.9,28.5,31.3,49.3,31.3,49.3c-12.6,4.2-23.5,0-23.5,0c6.1,20.8,33.9,43.4,33.9,43.4
						c-13.5,6.5-29.8-7.1-29.8-7.1c7.2,27.3,29.8,47.6,29.8,47.6c-26.9,11.9-59.5,8.3-59.5,8.3s-32.6,3.6-59.5-8.3
						C1428.4,818.3,1451,798.1,1458.2,770.8z"/>
				</g>
				<path class="st2" d="M1540.3,763.9c-2.5-6.4-18-27.8-24.3-25.2c-6.2,2.6-9.5,9.1-16.8,6.1c-7.3-3.1-18,1.7-23,9.9
					s2.4,25,17.3,23.5c14.9-1.6,25.2-1.6,32.9,6.6c7.8,8.2,26.8,0.8,25.8-6.6C1551.3,770.8,1543.6,772.1,1540.3,763.9z"/>
			</g>
		</g>
		<g>
			<path class="st4" d="M236.1,598.1c0,0-2.2-1.3-4.1-0.5c-2.8,1.1-4.3,0.5-4.3,0.5v-13.3h8.4L236.1,598.1L236.1,598.1z"/>
			<g>
				<path class="st5" d="M254.6,556.8c0,0,12.4,8.5,22.6,4.4c0,0-21.1-14-25.8-26.9c0,0,8.3,2.6,17.8,0c0,0-20.8-12.9-23.8-30.6
					c0,0,3,1.5,11.9,2.2c0,0-25.4-19.5-25.4-53.1c0,33.6-25.4,53.1-25.4,53.1c8.9-0.7,11.9-2.2,11.9-2.2
					c-3,17.7-23.8,30.6-23.8,30.6c9.6,2.6,17.8,0,17.8,0c-4.6,12.9-25.8,26.9-25.8,26.9c10.2,4.1,22.6-4.4,22.6-4.4
					c-5.4,17-22.6,29.5-22.6,29.5c20.5,7.4,45.3,5.2,45.3,5.2s24.8,2.2,45.3-5.2C277.2,586.3,260,573.8,254.6,556.8z"/>
				<path class="st2" d="M261.8,502.9c-4-4.5-12.6-12.6-19.8-27.6c-7.2-15.1-5-25.1-10.1-25.9s-12.9,26.9-17.8,37.7
					c-4.9,10.8-11.8,13.1-15,17.7c-3.1,4.5,8.2,3.8,12.4,2.4c-3.5,4.2-9.8,11.1-13.3,13.5c-7.8,5.3-15.5,9.9-5.6,13.4
					c6,2.1,16-10.1,20.7-14.3c13.1-11.3,30.2-14.7,37.8-11.9C258.9,510.8,265.8,507.5,261.8,502.9z"/>
			</g>
		</g>
		<g>
			<path class="st4" d="M343.7,599.3c0,0-2.2-1.3-4.1-0.5c-2.8,1.1-4.3,0.5-4.3,0.5V586h8.4V599.3L343.7,599.3z"/>
			<g>
				<g>
					<path class="st5" d="M362.7,559.4c0,0,13.3,8.2,24.2,4.3c0,0-22.6-13.5-27.6-26c0,0,8.8,2.5,19.1,0c0,0-22.3-12.5-25.5-29.5
						c0,0,3.2,1.4,12.7,2.1c0,0-27.2-18.9-27.2-51.3c0,32.4-27.2,51.3-27.2,51.3c9.5-0.7,12.7-2.1,12.7-2.1
						c-3.2,17.1-25.5,29.5-25.5,29.5c10.3,2.5,19.1,0,19.1,0c-4.9,12.5-27.6,26-27.6,26c11,3.9,24.2-4.3,24.2-4.3
						c-5.8,16.4-24.2,28.5-24.2,28.5c21.9,7.1,48.4,5,48.4,5s26.5,2.1,48.4-5C386.9,587.9,368.5,575.8,362.7,559.4z"/>
				</g>
				<path class="st2" d="M310.5,506.3c-2.2,2.9-1.2,6.4,3.3,5.5c4.5-0.8,6.3-4.1,12.6-5.5s10.4,5.3,15.5,4.7
					c5.1-0.6,13.9,3.5,14.8,11.8s4.1,13.7,8.4,15.8s15.5,2.5,15.9-1.6s-12.2-9.2-15.9-12.9c-3.7-3.7-9.5-12.1-4.5-12.1
					c5.1,0,9.7-0.8,6.5-4.9c-3.3-4.1-21-22.5-23.4-32c-2.4-9.4-1.7-18.4-5.2-18C335,457.6,325.2,487.1,310.5,506.3z"/>
				<path class="st2" d="M295.9,555.3c2.1-3.8,14.7-16.7,19.7-15.1c5.1,1.6,7.7,5.5,13.6,3.6c5.9-1.8,14.7,1,18.7,5.9
					c4.1,4.9-2,15-14.1,14.1c-12.2-0.9-20.5-0.9-26.8,4s-21.8,0.4-21-4C286.9,559.4,293.2,560.2,295.9,555.3z"/>
				<path class="st2" d="M361.5,554.3c6.4-4.5,13.4-5,16.9-0.6s15.5,13.3,12.4,16C387.7,572.3,355,558.8,361.5,554.3z"/>
			</g>
		</g>
		<g>
			<path class="st4" d="M485.1,609.2c0,0-2.2-1.3-4.1-0.5c-2.8,1.1-4.3,0.5-4.3,0.5v-13.3h8.4L485.1,609.2L485.1,609.2z"/>
			<g>
				<g>
					<path class="st5" d="M460.4,558.7c0,0-11.3,9.6-20.6,5c0,0,19.2-15.9,23.4-30.5c0,0-7.5,2.9-16.2,0c0,0,18.9-14.6,21.6-34.7
						c0,0-2.7,1.7-10.8,2.5c0,0,23.1-22.2,23.1-60.2c0,38.1,23.1,60.2,23.1,60.2c-8.1-0.8-10.8-2.5-10.8-2.5
						c2.7,20.1,21.6,34.7,21.6,34.7c-8.7,2.9-16.2,0-16.2,0c4.2,14.6,23.4,30.5,23.4,30.5c-9.3,4.6-20.6-5-20.6-5
						c5,19.2,20.6,33.5,20.6,33.5c-18.6,8.4-41.1,5.9-41.1,5.9s-22.5,2.5-41.1-5.9C439.8,592.2,455.4,578,460.4,558.7z"/>
				</g>
				<path class="st2" d="M504.7,496.4c1.9,3.4,1,7.5-2.8,6.5s-5.4-4.8-10.7-6.5c-5.4-1.7-8.8,6.3-13.1,5.5
					c-4.3-0.7-11.8,4.2-12.6,13.9c-0.7,9.7-3.5,16-7.1,18.5s-13.1,3-13.5-1.8c-0.3-4.8,10.4-10.8,13.5-15.2
					c3.1-4.3,8.1-14.2,3.8-14.2s-8.3-1-5.5-5.8s17.8-26.5,19.9-37.5c2.1-11.1,1.5-21.7,4.4-21.2
					C483.9,439.1,492.2,473.8,504.7,496.4z"/>
				<path class="st2" d="M517.1,553.9c-1.7-4.5-12.4-19.6-16.8-17.7c-4.3,1.8-6.6,6.4-11.6,4.3c-5-2.2-12.4,1.2-15.9,7
					s1.7,17.6,12,16.5s17.4-1.1,22.8,4.7c5.4,5.8,18.5,0.5,17.8-4.7C524.7,558.7,519.4,559.7,517.1,553.9z"/>
				<path class="st2" d="M591.7,573c-5.4-5.3-11.4-5.9-14.3-0.7c-2.9,5.2-13.1,15.7-10.5,18.8C569.4,594.2,597.2,578.4,591.7,573z"
					/>
			</g>
		</g>
		<g>
			<path class="st2" d="M378.2,646.2c10.8-6.7,27.5-15.9,44.7-11.8s41.4,8.7,64.7,3.7s56.3-12.4,86.6,1.7v16.3h-196V646.2z"/>
		</g>
		<g>
			<path class="st2" d="M897.9,674.4c-14-8.7-35.7-20.6-58-15.3c-22.3,5.4-53.8,11.3-84,4.8s-73.1-16.1-112.4,2.1v21.1h254.4V674.4z
				"/>
		</g>
		<g>
			<path class="st4" d="M1457.7,567.7c0,0,2.1-1.1,4.1-0.5c2.8,1,4.2,0.5,4.2,0.5v-11.9h-8.3L1457.7,567.7L1457.7,567.7z"/>
			<g>
				<g>
					<path class="st5" d="M1482.1,526.8c0,0,11.1,8.6,20.2,4.5c0,0-18.9-14.3-23-27.4c0,0,7.4,2.6,16,0c0,0-18.6-13.1-21.3-31.1
						c0,0,2.7,1.5,10.6,2.2c0,0-22.7-19.9-22.7-54c0,34.1-22.7,54-22.7,54c8-0.8,10.6-2.2,10.6-2.2c-2.7,18-21.3,31.1-21.3,31.1
						c8.6,2.6,16,0,16,0c-4.1,13.1-23,27.4-23,27.4c9.2,4.1,20.2-4.5,20.2-4.5c-4.9,17.3-20.2,30-20.2,30
						c18.3,7.5,40.5,5.3,40.5,5.3s22.2,2.2,40.5-5.3C1502.3,556.8,1487,544,1482.1,526.8z"/>
				</g>
				<path class="st2" d="M1438.5,470.8c-1.8,3-1,6.7,2.7,5.8c3.7-0.9,5.3-4.3,10.5-5.8c5.3-1.5,8.7,5.6,12.9,5
					c4.3-0.6,11.6,3.7,12.4,12.4c0.7,8.7,3.5,14.4,7,16.6c3.6,2.2,12.9,2.7,13.3-1.6c0.3-4.3-10.2-9.7-13.3-13.6
					c-3.1-3.9-8-12.7-3.7-12.7c4.2,0,8.1-0.9,5.4-5.2c-2.7-4.3-17.5-23.8-19.6-33.7c-2-9.9-1.4-19.4-4.4-19
					C1458.9,419.5,1450.7,450.6,1438.5,470.8z"/>
				<path class="st2" d="M1426.3,522.5c1.7-4,12.2-17.6,16.5-15.9s6.5,5.8,11.4,3.8c4.9-1.9,12.2,1.1,15.6,6.3
					c3.4,5.2-1.6,15.8-11.8,14.8c-10.2-1-17.1-1-22.4,4.2s-18.2,0.5-17.5-4.2C1418.8,526.8,1424.1,527.6,1426.3,522.5z"/>
				<path class="st2" d="M1481.1,521.3c5.4-4.8,11.2-5.3,14.1-0.7c2.9,4.7,12.9,14,10.4,16.9C1503,540.3,1475.7,526.1,1481.1,521.3z
					"/>
			</g>
		</g>
		<g>
			<path class="st4" d="M773.8,591.5c0,0,2.4-1.3,4.5-0.5c3.1,1.1,4.7,0.5,4.7,0.5v-13.3h-9.2V591.5z"/>
			<g>
				<g>
					<path class="st5" d="M800.9,545.9c0,0,12.3,9.6,22.6,5c0,0-21.1-15.9-25.7-30.5c0,0,8.2,2.9,17.8,0c0,0-20.8-14.6-23.7-34.7
						c0,0,3,1.7,11.9,2.5c0,0-25.4-22.2-25.4-60.2c0,38.1-25.4,60.2-25.4,60.2c8.9-0.8,11.9-2.5,11.9-2.5
						c-3,20.1-23.7,34.7-23.7,34.7c9.6,2.9,17.8,0,17.8,0c-4.6,14.6-25.7,30.5-25.7,30.5c10.2,4.6,22.6-5,22.6-5
						c-5.4,19.2-22.6,33.5-22.6,33.5c20.4,8.4,45.1,5.9,45.1,5.9s24.7,2.5,45.1-5.9C823.5,579.3,806.4,565.1,800.9,545.9z"/>
				</g>
				<path class="st2" d="M752.4,483.5c-2,3.4-1.1,7.5,3,6.5c4.2-1,5.9-4.8,11.8-6.5s9.7,6.3,14.4,5.5c4.7-0.7,13,4.2,13.8,13.9
					s3.9,16,7.8,18.5c4,2.5,14.4,3,14.8-1.8s-11.4-10.8-14.8-15.2c-3.4-4.3-8.9-14.2-4.2-14.2s9.1-1,6-5.8
					c-3-4.8-19.5-26.5-21.8-37.5c-2.3-11.1-1.6-21.7-4.9-21.2C775.1,426.2,766,460.9,752.4,483.5z"/>
				<path class="st2" d="M738.7,541c1.9-4.5,13.6-19.6,18.4-17.7c4.7,1.9,7.2,6.4,12.7,4.3c5.5-2.2,13.6,1.2,17.4,7
					c3.8,5.8-1.8,17.6-13.1,16.5s-19.1-1.1-25,4.7s-20.3,0.5-19.5-4.7C730.4,545.8,736.3,546.8,738.7,541z"/>
				<path class="st2" d="M935.4,542.8c6-5.3,12.5-5.9,15.7-0.7s14.4,15.7,11.6,18.8C959.9,564,929.4,548.1,935.4,542.8z"/>
			</g>
		</g>
		<g>
			<path class="st4" d="M1167.1,597.2c0,0,2.3-1.4,4.4-0.6c3,1.1,4.5,0.6,4.5,0.6V583h-8.9V597.2z"/>
			<path class="st4" d="M1276.4,596.5c0,0,2.3-1.4,4.4-0.6c3,1.1,4.5,0.6,4.5,0.6v-14.2h-8.9V596.5z"/>
			<g>
				<path class="st5" d="M1147.5,553.1c0,0-13.1,9.1-24,4.7c0,0,22.4-15,27.3-28.8c0,0-8.8,2.8-18.9,0c0,0,22-13.8,25.2-32.7
					c0,0-3.1,1.6-12.6,2.4c0,0,26.9-20.9,26.9-56.8c0,35.9,26.9,56.8,26.9,56.8c-9.4-0.8-12.6-2.4-12.6-2.4
					c3.2,18.9,25.2,32.7,25.2,32.7c-10.1,2.8-18.9,0-18.9,0c4.9,13.8,27.3,28.8,27.3,28.8c-10.9,4.3-24-4.7-24-4.7
					c5.8,18.1,24,31.6,24,31.6c-21.7,7.9-47.9,5.5-47.9,5.5s-26.2,2.4-47.9-5.5C1123.5,584.7,1141.7,571.3,1147.5,553.1z"/>
				<path class="st2" d="M1139.8,495.5c4.3-4.8,13.3-13.4,21-29.5c7.6-16.1,5.2-26.9,10.7-27.7c5.4-0.8,13.6,28.7,18.8,40.3
					c5.2,11.5,12.5,14,15.9,18.9c3.3,4.8-8.7,4-13.2,2.6c3.7,4.5,10.3,11.8,14.1,14.4c8.2,5.7,16.4,10.6,6,14.3
					c-6.4,2.3-16.9-10.8-22-15.2c-13.9-12.1-32-15.7-40.1-12.7C1142.9,503.9,1135.5,500.3,1139.8,495.5z"/>
			</g>
		</g>
		<g>
			<path class="st2" d="M1159.7,638.9c13.8-6.7,35.2-15.9,57.3-11.8c22.1,4.1,53.1,8.7,83,3.7s72.3-12.4,111.1,1.7v16.3h-251.4
				V638.9z"/>
		</g>
		<g>
			<path class="st4" d="M1385.4,659.2c0,0-2.2-1.7-4.1-0.7c-2.8,1.5-4.3,0.7-4.3,0.7v-18h8.4V659.2z"/>
			<g>
				<g>
					<path class="st5" d="M1404.4,605c0,0,13.3,11.1,24.2,5.8c0,0-22.6-18.4-27.6-35.3c0,0,8.8,3.4,19.1,0c0,0-22.3-16.9-25.5-40.2
						c0,0,3.2,1.9,12.7,2.9c0,0-27.2-25.6-27.2-69.7c0,44-27.2,69.7-27.2,69.7c9.5-1,12.7-2.9,12.7-2.9
						c-3.2,23.2-25.5,40.2-25.5,40.2c10.3,3.4,19.1,0,19.1,0c-4.9,16.9-27.6,35.3-27.6,35.3c11,5.3,24.2-5.8,24.2-5.8
						c-5.8,22.3-24.2,38.7-24.2,38.7c21.9,9.7,48.4,6.8,48.4,6.8s26.5,2.9,48.4-6.8C1428.7,643.7,1410.3,627.2,1404.4,605z"/>
				</g>
				<g>
					<path class="st5" d="M1300.9,540.5c0,0,13.3,11.1,24.2,5.8c0,0-22.6-18.4-27.6-35.3c0,0,8.8,3.4,19.1,0
						c0,0-22.3-16.9-25.5-40.2c0,0,3.2,1.9,12.7,2.9c0,0-27.2-25.6-27.2-69.7c0,44-27.2,69.7-27.2,69.7c9.5-1,12.7-2.9,12.7-2.9
						c-3.2,23.2-25.5,40.2-25.5,40.2c10.3,3.4,19.1,0,19.1,0c-4.9,16.9-27.6,35.3-27.6,35.3c11,5.3,24.2-5.8,24.2-5.8
						c-5.8,22.3-24.2,38.7-24.2,38.7c21.9,9.7,48.4,6.8,48.4,6.8s26.5,2.9,48.4-6.8C1325.2,579.2,1306.8,562.7,1300.9,540.5z"/>
				</g>
				<path class="st2" d="M1352.3,532.8c-2.2,3.9-1.2,8.6,3.3,7.5s6.3-5.6,12.6-7.5c6.3-2,10.4,7.2,15.5,6.4s13.9,4.8,14.8,16.1
					c0.9,11.2,4.1,18.6,8.4,21.4c4.3,2.9,15.5,3.4,15.9-2.1c0.4-5.6-12.2-12.5-15.9-17.5c-3.7-5-9.5-16.4-4.5-16.4
					c5.1,0,9.7-1.1,6.5-6.7c-3.3-5.6-21-30.6-23.4-43.4s-1.7-25.1-5.2-24.5C1376.7,466.5,1366.9,506.6,1352.3,532.8z"/>
				<path class="st2" d="M1250.3,477.3c-2.2,3.9-1.2,8.6,3.3,7.5s6.3-5.6,12.6-7.5c6.3-2,10.4,7.2,15.5,6.4
					c5.1-0.8,13.9,4.8,14.8,16.1c0.9,11.2,4.1,18.6,8.4,21.4c4.3,2.9,15.5,3.4,15.9-2.1c0.4-5.6-12.2-12.5-15.9-17.5
					c-3.7-5-9.5-16.4-4.5-16.4c5.1,0,9.7-1.1,6.5-6.7c-3.3-5.6-21-30.6-23.4-43.4s-1.7-25.1-5.2-24.5
					C1274.7,411,1264.9,451.1,1250.3,477.3z"/>
				<path class="st2" d="M1337.6,599.4c2.1-5.2,14.7-22.7,19.7-20.5c5.1,2.1,7.7,7.4,13.6,4.9s14.7,1.4,18.7,8.1
					c4.1,6.7-2,20.4-14.1,19.1c-12.2-1.3-20.5-1.3-26.8,5.4s-21.8,0.6-21-5.4C1328.7,604.9,1335,606.1,1337.6,599.4z"/>
				<path class="st2" d="M1403.2,597.9c6.4-6.2,13.4-6.9,16.9-0.9s15.5,18.1,12.4,21.7C1429.5,622.4,1396.8,604.1,1403.2,597.9z"/>
			</g>
		</g>
	</g>
</g>
<path class="st2" d="M1120.7,443.1c3.3,0,6,2.7,6,6s-2.7,6-6,6s-6-2.7-6-6C1114.7,445.8,1117.4,443.1,1120.7,443.1z"/>
<path class="st2" d="M1225.6,443.1c3.3,0,6,2.7,6,6s-2.7,6-6,6s-6-2.7-6-6C1219.6,445.8,1222.3,443.1,1225.6,443.1z"/>
<path class="st2" d="M1296.2,393.8c4.4,0,8,3.6,8,8s-3.6,8-8,8s-8-3.6-8-8C1288.2,397.3,1291.8,393.8,1296.2,393.8z"/>
<path class="st2" d="M1371.4,454.8c3.3,0,6,2.7,6,6s-2.7,6-6,6s-6-2.7-6-6S1368.1,454.8,1371.4,454.8z"/>
<path class="st2" d="M1406,363.2c4.4,0,8,3.6,8,8s-3.6,8-8,8s-8-3.6-8-8C1398,366.7,1401.6,363.2,1406,363.2z"/>
<path class="st2" d="M294.8,239.7c0,3.3-2.6,5.9-5.9,5.9s-5.9-2.6-5.9-5.9s2.6-5.9,5.9-5.9C292.2,233.8,294.8,236.4,294.8,239.7z"/>
<path class="st2" d="M588.1,314.8c0,4.3-3.5,7.8-7.8,7.8s-7.8-3.5-7.8-7.8s3.5-7.8,7.8-7.8S588.1,310.5,588.1,314.8z"/>
<path class="st2" d="M644.7,374.6c2.5-2.1,6.2-1.8,8.3,0.7s1.8,6.2-0.7,8.3c-2.5,2.1-6.2,1.8-8.3-0.7S642.2,376.7,644.7,374.6z"/>
<path class="st2" d="M1452.6,268.3c2.3,3.7,1.2,8.7-2.5,11c-3.7,2.4-8.7,1.2-11-2.5s-1.2-8.7,2.5-11
	C1445.3,263.5,1450.3,264.6,1452.6,268.3z"/>
<path class="st2" d="M655.2,460.9c2.3,3.7,1.2,8.7-2.5,11c-3.7,2.4-8.7,1.2-11-2.5s-1.2-8.7,2.5-11C648,456,652.9,457.1,655.2,460.9
	z"/>
<text transform="matrix(1 0 0 1 141.6675 856.7075)" class="st8 st9">Pictures from freepik.com</text>
</svg>
