<?xml version="1.0" encoding="utf-8"?>
<!-- Generator: Adobe Illustrator 19.1.0, SVG Export Plug-In . SVG Version: 6.00 Build 0)  -->
<svg version="1.1" id="图层_1" xmlns="http://www.w3.org/2000/svg" xmlns:xlink="http://www.w3.org/1999/xlink" x="0px" y="0px"
	 viewBox="336 -163.6 1463.4 938.6" style="enable-background:new 336 -163.6 1463.4 938.6;" xml:space="preserve">
<style type="text/css">
	.st0{fill:#A0D2D0;}
	.st1{fill:#72BBAE;}
	.st2{fill:#FFFFFF;}
	.st3{fill:#E9F3F0;}
	.st4{fill:#8E7856;}
	.st5{fill:#A2D6CD;}
	.st6{fill:#EEF5F5;}
	.st7{fill:#4E9B8B;}
	.st8{fill:#89AEA2;}
	.st9{fill:#837C6B;}
	.st10{fill:#736A5B;}
	.st11{fill:#674536;}
	.st12{fill:#DFBC2F;}
	.st13{fill:#474646;}
	.st14{fill:#E29D6C;}
	.st15{fill:#D18A5B;}
</style>
<rect x="336" y="-163.6" class="st0" width="1463.4" height="938.6"/>
<g>
	<g>
		<polygon class="st1" points="346.7,430.8 523,89 719.3,464.3 		"/>
		<g>
			<path class="st2" d="M524.6,80.8c-17.3-1.9-32.4,37.4-46.1,70.8s-46.6,84-38.8,94.3c7.8,10.2,44,11.8,70.8-10.2s52.7-6.7,73.6,0
				c20.9,6.7,24.2-11.2,14.6-29.1C589.1,188.8,545.8,83.1,524.6,80.8z"/>
			<path class="st3" d="M584,235.7c20.9,6.7,24.2-11.2,14.6-29.1c1.6,22.9-30.8,4-56.7,4.4c-26,0.5-53.5,25.1-74.2,29
				c-20.6,3.9-22.6-20.2-22.6-20.3c-5.5,12.4-8.5,22.2-5.5,26.1c7.8,10.2,44,11.8,70.8-10.2C537.2,213.7,563.1,229,584,235.7z"/>
		</g>
	</g>
	<g>
		<polygon class="st1" points="970.7,495.2 793.9,166.4 597.1,527.5 		"/>
		<g>
			<path class="st2" d="M791,152.3c13.8-1.6,25.8,31.9,36.7,60.5c10.9,28.5,37.1,71.7,30.9,80.5c-6.2,8.7-35,10.1-56.2-8.7
				c-21.3-18.8-41.9-5.7-58.5,0c-16.6,5.7-19.2-9.6-11.6-24.8C739.7,244.5,774.1,154.3,791,152.3z"/>
			<path class="st3" d="M743.8,284.6c-16.6,5.7-19.2-9.6-11.6-24.8c-1.3,19.5,24.4,3.4,45.1,3.8c20.6,0.4,42.5,21.4,58.9,24.8
				c16.4,3.3,17.9-17.2,17.9-17.3c4.4,10.6,6.7,19,4.4,22.3c-6.2,8.7-35,10.1-56.2-8.7C781,265.8,760.3,278.9,743.8,284.6z"/>
		</g>
	</g>
	<g>
		<polygon class="st1" points="1427.4,440.8 1601.9,83.6 1796.3,475.9 		"/>
		<g>
			<path class="st2" d="M1603.5,75c-17.2-2-32.1,39.1-45.7,74s-46.2,87.8-38.4,98.5c7.7,10.7,43.6,12.4,70.1-10.6s52.2-7,72.8,0
				c20.7,7,23.9-11.7,14.5-30.4C1667.4,187.9,1624.5,77.5,1603.5,75z"/>
			<path class="st3" d="M1662.3,236.9c20.7,7,23.9-11.7,14.5-30.4c1.6,23.9-30.5,4.1-56.2,4.6s-53,26.2-73.4,30.3
				c-20.4,4.1-22.3-21.1-22.4-21.2c-5.5,13-8.4,23.2-5.5,27.3c7.7,10.7,43.6,12.4,70.1-10.6C1615.9,214,1641.6,230,1662.3,236.9z"/>
		</g>
	</g>
	<g>
		<path class="st2" d="M336,411.3c0,0,114.9-16.6,234.7,15.2c152.2,40.3,284.6-4.4,396.8-17c112.3-12.6,240,5.1,358.8,16
			c192.4,17.7,312.8-54.4,469.9-57.1V878H336V411.3z"/>
		<g>
			<path class="st4" d="M417.2,745.4c0,0-2.7-2.1-5.1-0.9c-3.5,1.8-5.3,0.9-5.3,0.9v-22.2h10.4V745.4z"/>
			<g>
				<g>
					<path class="st5" d="M440.6,678.8c0,0,16.3,13.7,29.8,7.1c0,0-27.8-22.6-33.9-43.4c0,0,10.9,4.2,23.5,0
						c0,0-27.4-20.8-31.3-49.3c0,0,3.9,2.4,15.6,3.6c0,0-33.5-31.5-33.5-85.6c0,54.1-33.5,85.6-33.5,85.6
						c11.7-1.2,15.6-3.6,15.6-3.6c-3.9,28.5-31.3,49.3-31.3,49.3c12.6,4.2,23.5,0,23.5,0c-6.1,20.8-33.9,43.4-33.9,43.4
						c13.5,6.5,29.8-7.1,29.8-7.1c-7.2,27.3-29.8,47.6-29.8,47.6c26.9,11.9,59.5,8.3,59.5,8.3s32.6,3.6,59.5-8.3
						C470.4,726.3,447.8,706.1,440.6,678.8z"/>
				</g>
				<path class="st2" d="M358.5,671.9c2.5-6.4,18-27.8,24.3-25.2c6.2,2.6,9.5,9.1,16.8,6.1c7.3-3.1,18,1.7,23,9.9s-2.4,25-17.3,23.5
					c-14.9-1.6-25.2-1.6-32.9,6.6c-7.8,8.2-26.8,0.8-25.8-6.6C347.5,678.8,355.2,680.1,358.5,671.9z"/>
			</g>
		</g>
		<path class="st6" d="M1048.3,709.7c0,0,25.6-10,62,0s107,0,107,0s-62.9,21.9-98.9,18.9C1082.5,725.6,1073.2,707.4,1048.3,709.7z"
			/>
		<path class="st6" d="M437.4,622c0,0,18.9-8.7,45.8,0c26.9,8.6,79,0,79,0s-46.5,19-73,16.4C462.6,635.8,455.8,620.1,437.4,622z"/>
		<path class="st6" d="M541.9,794.9c0,0,19.1-9,46.3,0s79.9,0,79.9,0s-47,19.6-73.8,17C567.4,809.2,560.5,792.9,541.9,794.9z"/>
		<path class="st6" d="M1515.1,642.5c0,0,18.9-8.7,45.8,0c26.9,8.6,79,0,79,0s-46.5,19-73,16.4
			C1540.3,656.3,1533.4,640.5,1515.1,642.5z"/>
		<path class="st6" d="M1584.5,851.9c0,0,18.9-8.7,45.8,0c26.9,8.6,79,0,79,0s-46.5,19-73,16.4
			C1609.7,865.7,1602.9,849.9,1584.5,851.9z"/>
		<g>
			<g>
				<g>
					<path class="st7" d="M414.6,389.8c0,0,7.1,6,13,3.1c0,0-12.2-9.9-14.9-19c0,0,4.8,1.8,10.3,0c0,0-12-9.1-13.7-21.6
						c0,0,1.7,1,6.9,1.6c0,0-14.7-13.8-14.7-37.5c0,23.7-14.7,37.5-14.7,37.5c5.1-0.5,6.9-1.6,6.9-1.6
						c-1.7,12.5-13.7,21.6-13.7,21.6c5.5,1.8,10.3,0,10.3,0c-2.7,9.1-14.9,19-14.9,19c5.9,2.9,13-3.1,13-3.1
						c-3.1,12-13,20.8-13,20.8c11.8,5.2,26.1,3.6,26.1,3.6s14.3,1.6,26.1-3.6C427.6,410.7,417.7,401.8,414.6,389.8z"/>
				</g>
			</g>
			<g>
				<g>
					<path class="st7" d="M467.7,398.3c0,0,7.1,6,13,3.1c0,0-12.2-9.9-14.9-19c0,0,4.8,1.8,10.3,0c0,0-12-9.1-13.7-21.6
						c0,0,1.7,1,6.9,1.6c0,0-14.7-13.8-14.7-37.5c0,23.7-14.7,37.5-14.7,37.5c5.1-0.5,6.9-1.6,6.9-1.6
						c-1.7,12.5-13.7,21.6-13.7,21.6c5.5,1.8,10.3,0,10.3,0c-2.7,9.1-14.9,19-14.9,19c5.9,2.9,13-3.1,13-3.1
						c-3.1,12-13,20.8-13,20.8c11.8,5.2,26.1,3.7,26.1,3.7s14.3,1.6,26.1-3.7C480.8,419.1,470.9,410.2,467.7,398.3z"/>
				</g>
			</g>
			<g>
				<g>
					<path class="st7" d="M512.9,399.4c0,0,5.6,4.7,10.3,2.5c0,0-9.6-7.8-11.7-15c0,0,3.8,1.4,8.1,0c0,0-9.4-7.2-10.8-17
						c0,0,1.3,0.8,5.4,1.2c0,0-11.5-10.9-11.5-29.5c0,18.7-11.5,29.5-11.5,29.5c4-0.4,5.4-1.2,5.4-1.2c-1.4,9.8-10.8,17-10.8,17
						c4.3,1.4,8.1,0,8.1,0c-2.1,7.2-11.7,15-11.7,15c4.6,2.3,10.3-2.5,10.3-2.5c-2.5,9.4-10.3,16.4-10.3,16.4
						c9.3,4.1,20.5,2.9,20.5,2.9s11.2,1.2,20.5-2.9C523.1,415.8,515.3,408.8,512.9,399.4z"/>
				</g>
			</g>
			<g>
				<g>
					<path class="st7" d="M571.6,403.1c0,0,6,5.1,11,2.6c0,0-10.3-8.4-12.5-16c0,0,4,1.5,8.7,0c0,0-10.1-7.7-11.6-18.2
						c0,0,1.4,0.9,5.8,1.3c0,0-12.4-11.6-12.4-31.6c0,20-12.4,31.6-12.4,31.6c4.3-0.4,5.8-1.3,5.8-1.3
						c-1.4,10.5-11.6,18.2-11.6,18.2c4.7,1.5,8.7,0,8.7,0c-2.2,7.7-12.5,16-12.5,16c5,2.4,11-2.6,11-2.6c-2.6,10.1-11,17.6-11,17.6
						c10,4.4,22,3.1,22,3.1s12,1.3,22-3.1C582.6,420.7,574.3,413.2,571.6,403.1z"/>
				</g>
			</g>
			<g>
				<g>
					<path class="st7" d="M626.6,414c0,0,7.1,6,13,3.1c0,0-12.2-9.9-14.9-19c0,0,4.8,1.8,10.3,0c0,0-12-9.1-13.7-21.6
						c0,0,1.7,1,6.9,1.6c0,0-14.7-13.8-14.7-37.5c0,23.7-14.7,37.5-14.7,37.5c5.1-0.5,6.9-1.6,6.9-1.6C604,389,592,398.1,592,398.1
						c5.5,1.8,10.3,0,10.3,0c-2.7,9.1-14.9,19-14.9,19c5.9,2.9,13-3.1,13-3.1c-3.1,12-13,20.8-13,20.8c11.8,5.2,26.1,3.7,26.1,3.7
						s14.3,1.6,26.1-3.7C639.6,434.9,629.7,426,626.6,414z"/>
				</g>
			</g>
			<g>
				<g>
					<path class="st8" d="M675.2,421.3c0,0,5.6,4.7,10.3,2.5c0,0-9.6-7.8-11.7-15c0,0,3.8,1.4,8.1,0c0,0-9.4-7.2-10.8-17
						c0,0,1.3,0.8,5.4,1.2c0,0-11.5-10.9-11.5-29.5c0,18.7-11.5,29.5-11.5,29.5c4-0.4,5.4-1.2,5.4-1.2c-1.4,9.8-10.8,17-10.8,17
						c4.3,1.4,8.1,0,8.1,0c-2.1,7.2-11.7,15-11.7,15c4.6,2.3,10.3-2.5,10.3-2.5c-2.5,9.4-10.3,16.4-10.3,16.4
						c9.3,4.1,20.5,2.9,20.5,2.9s11.2,1.2,20.5-2.9C685.5,437.7,677.7,430.7,675.2,421.3z"/>
				</g>
			</g>
			<g>
				<g>
					<path class="st7" d="M778.7,429.7c0,0,7.1,6,13,3.1c0,0-12.2-9.9-14.9-19c0,0,4.8,1.8,10.3,0c0,0-12-9.1-13.7-21.6
						c0,0,1.7,1,6.9,1.6c0,0-14.7-13.8-14.7-37.5c0,23.7-14.7,37.5-14.7,37.5c5.1-0.5,6.9-1.6,6.9-1.6
						c-1.7,12.5-13.7,21.6-13.7,21.6c5.5,1.8,10.3,0,10.3,0c-2.7,9.1-14.9,19-14.9,19c5.9,2.9,13-3.1,13-3.1
						c-3.1,12-13,20.8-13,20.8c11.8,5.2,26.1,3.7,26.1,3.7s14.3,1.6,26.1-3.7C791.7,450.5,781.8,441.7,778.7,429.7z"/>
				</g>
			</g>
			<g>
				<g>
					<path class="st7" d="M841.9,422c0,0,8.3,7,15.1,3.6c0,0-14.2-11.5-17.2-22.1c0,0,5.5,2.1,11.9,0c0,0-13.9-10.6-15.9-25.1
						c0,0,2,1.2,8,1.8c0,0-17-16-17-43.6c0,27.5-17,43.6-17,43.6c6-0.6,8-1.8,8-1.8c-2,14.5-15.9,25.1-15.9,25.1
						c6.4,2.1,11.9,0,11.9,0c-3.1,10.6-17.2,22.1-17.2,22.1c6.9,3.3,15.1-3.6,15.1-3.6c-3.6,13.9-15.1,24.2-15.1,24.2
						c13.7,6.1,30.3,4.2,30.3,4.2s16.6,1.8,30.3-4.2C857,446.2,845.6,435.9,841.9,422z"/>
				</g>
			</g>
			<g>
				<g>
					<path class="st7" d="M889.1,414.3c0,0,5.6,4.7,10.3,2.5c0,0-9.6-7.8-11.7-15c0,0,3.8,1.4,8.1,0c0,0-9.4-7.2-10.8-17
						c0,0,1.3,0.8,5.4,1.2c0,0-11.5-10.9-11.5-29.5c0,18.7-11.5,29.5-11.5,29.5c4-0.4,5.4-1.2,5.4-1.2c-1.4,9.8-10.8,17-10.8,17
						c4.3,1.4,8.1,0,8.1,0c-2.1,7.2-11.7,15-11.7,15c4.6,2.3,10.3-2.5,10.3-2.5c-2.5,9.4-10.3,16.4-10.3,16.4
						c9.3,4.1,20.5,2.9,20.5,2.9s11.2,1.2,20.5-2.9C899.3,430.7,891.5,423.8,889.1,414.3z"/>
				</g>
			</g>
			<g>
				<g>
					<path class="st7" d="M1096.1,397.5c0,0,7.1,6,13,3.1c0,0-12.2-9.9-14.9-19c0,0,4.8,1.8,10.3,0c0,0-12-9.1-13.7-21.6
						c0,0,1.7,1,6.9,1.6c0,0-14.7-13.8-14.7-37.5c0,23.7-14.7,37.5-14.7,37.5c5.1-0.5,6.9-1.6,6.9-1.6
						c-1.7,12.5-13.7,21.6-13.7,21.6c5.5,1.8,10.3,0,10.3,0c-2.7,9.1-14.9,19-14.9,19c5.9,2.9,13-3.1,13-3.1
						c-3.1,12-13,20.8-13,20.8c11.8,5.2,26.1,3.6,26.1,3.6s14.3,1.6,26.1-3.6C1109.1,418.3,1099.2,409.5,1096.1,397.5z"/>
				</g>
			</g>
			<g>
				<g>
					<path class="st7" d="M1163.9,412c0,0,8.6,7.2,15.7,3.8c0,0-14.7-11.9-17.9-23c0,0,5.7,2.2,12.4,0c0,0-14.5-11-16.5-26.1
						c0,0,2.1,1.3,8.3,1.9c0,0-17.7-16.7-17.7-45.3c0,28.6-17.7,45.3-17.7,45.3c6.2-0.6,8.3-1.9,8.3-1.9
						c-2.1,15.1-16.5,26.1-16.5,26.1c6.7,2.2,12.4,0,12.4,0c-3.2,11-17.9,23-17.9,23c7.1,3.5,15.7-3.8,15.7-3.8
						c-3.8,14.5-15.7,25.1-15.7,25.1c14.2,6.3,31.5,4.4,31.5,4.4s17.2,1.9,31.5-4.4C1179.7,437.1,1167.7,426.4,1163.9,412z"/>
				</g>
			</g>
			<g>
				<g>
					<path class="st7" d="M1223,408.9c0,0,7.1,6,13,3.1c0,0-12.2-9.9-14.9-19c0,0,4.8,1.8,10.3,0c0,0-12-9.1-13.7-21.6
						c0,0,1.7,1,6.9,1.6c0,0-14.7-13.8-14.7-37.5c0,23.7-14.7,37.5-14.7,37.5c5.1-0.5,6.9-1.6,6.9-1.6
						c-1.7,12.5-13.7,21.6-13.7,21.6c5.5,1.8,10.3,0,10.3,0c-2.7,9.1-14.9,19-14.9,19c5.9,2.9,13-3.1,13-3.1
						c-3.1,12-13,20.8-13,20.8c11.8,5.2,26.1,3.7,26.1,3.7s14.3,1.6,26.1-3.7C1236,429.7,1226.1,420.9,1223,408.9z"/>
				</g>
			</g>
			<g>
				<g>
					<path class="st7" d="M1280.5,403.7c0,0,7.1,6,13,3.1c0,0-12.2-9.9-14.9-19c0,0,4.8,1.8,10.3,0c0,0-12-9.1-13.7-21.6
						c0,0,1.7,1,6.9,1.6c0,0-14.7-13.8-14.7-37.5c0,23.7-14.7,37.5-14.7,37.5c5.1-0.5,6.9-1.6,6.9-1.6
						c-1.7,12.5-13.7,21.6-13.7,21.6c5.5,1.8,10.3,0,10.3,0c-2.7,9.1-14.9,19-14.9,19c5.9,2.9,13-3.1,13-3.1
						c-3.1,12-13,20.8-13,20.8c11.8,5.2,26.1,3.7,26.1,3.7s14.3,1.6,26.1-3.7C1293.5,424.5,1283.6,415.6,1280.5,403.7z"/>
				</g>
			</g>
			<g>
				<g>
					<path class="st7" d="M1344.3,412.7c0,0,8.6,7.2,15.7,3.8c0,0-14.7-11.9-17.9-22.9c0,0,5.7,2.2,12.4,0c0,0-14.5-11-16.5-26.1
						c0,0,2.1,1.3,8.3,1.9c0,0-17.7-16.7-17.7-45.3c0,28.6-17.7,45.3-17.7,45.3c6.2-0.6,8.3-1.9,8.3-1.9
						c-2.1,15.1-16.5,26.1-16.5,26.1c6.7,2.2,12.4,0,12.4,0c-3.2,11-17.9,22.9-17.9,22.9c7.1,3.5,15.7-3.8,15.7-3.8
						c-3.8,14.5-15.7,25.1-15.7,25.1c14.2,6.3,31.5,4.4,31.5,4.4s17.2,1.9,31.5-4.4C1360,437.9,1348,427.2,1344.3,412.7z"/>
				</g>
			</g>
			<g>
				<g>
					<path class="st7" d="M1417.3,411.1c0,0,8.6,7.2,15.7,3.8c0,0-14.7-11.9-17.9-22.9c0,0,5.7,2.2,12.4,0c0,0-14.5-11-16.5-26.1
						c0,0,2.1,1.3,8.3,1.9c0,0-17.7-16.7-17.7-45.3c0,28.6-17.7,45.3-17.7,45.3c6.2-0.6,8.3-1.9,8.3-1.9
						c-2.1,15.1-16.5,26.1-16.5,26.1c6.7,2.2,12.4,0,12.4,0c-3.2,11-17.9,22.9-17.9,22.9c7.1,3.5,15.7-3.8,15.7-3.8
						c-3.8,14.5-15.7,25.1-15.7,25.1c14.2,6.3,31.5,4.4,31.5,4.4s17.2,1.9,31.5-4.4C1433,436.2,1421.1,425.6,1417.3,411.1z"/>
				</g>
			</g>
			<g>
				<g>
					<path class="st7" d="M1536.7,389.5c0,0,7.1,6,13,3.1c0,0-12.2-9.9-14.9-19c0,0,4.8,1.8,10.3,0c0,0-12-9.1-13.7-21.6
						c0,0,1.7,1,6.9,1.6c0,0-14.7-13.8-14.7-37.5c0,23.7-14.7,37.5-14.7,37.5c5.1-0.5,6.9-1.6,6.9-1.6
						c-1.7,12.5-13.7,21.6-13.7,21.6c5.5,1.8,10.3,0,10.3,0c-2.7,9.1-14.9,19-14.9,19c5.9,2.9,13-3.1,13-3.1
						c-3.1,12-13,20.8-13,20.8c11.8,5.2,26.1,3.6,26.1,3.6s14.3,1.6,26.1-3.6C1549.7,410.4,1539.8,401.5,1536.7,389.5z"/>
				</g>
			</g>
			<g>
				<g>
					<path class="st7" d="M1590.5,403.7c0,0,7.1,6,13,3.1c0,0-12.2-9.9-14.9-19c0,0,4.8,1.8,10.3,0c0,0-12-9.1-13.7-21.6
						c0,0,1.7,1,6.9,1.6c0,0-14.7-13.8-14.7-37.5c0,23.7-14.7,37.5-14.7,37.5c5.1-0.5,6.9-1.6,6.9-1.6
						c-1.7,12.5-13.7,21.6-13.7,21.6c5.5,1.8,10.3,0,10.3,0c-2.7,9.1-14.9,19-14.9,19c5.9,2.9,13-3.1,13-3.1
						c-3.1,12-13,20.8-13,20.8c11.8,5.2,26.1,3.7,26.1,3.7s14.3,1.6,26.1-3.7C1603.6,424.5,1593.7,415.6,1590.5,403.7z"/>
				</g>
			</g>
			<g>
				<g>
					<path class="st7" d="M1650.3,385.6c0,0,8.6,7.2,15.7,3.8c0,0-14.7-11.9-17.9-22.9c0,0,5.7,2.2,12.4,0c0,0-14.5-11-16.5-26.1
						c0,0,2.1,1.3,8.3,1.9c0,0-17.7-16.7-17.7-45.3c0,28.6-17.7,45.3-17.7,45.3c6.2-0.6,8.3-1.9,8.3-1.9
						c-2.1,15.1-16.5,26.1-16.5,26.1c6.7,2.2,12.4,0,12.4,0c-3.2,11-17.9,22.9-17.9,22.9c7.1,3.5,15.7-3.8,15.7-3.8
						c-3.8,14.5-15.7,25.1-15.7,25.1c14.2,6.3,31.5,4.4,31.5,4.4s17.2,1.9,31.5-4.4C1666,410.8,1654.1,400.1,1650.3,385.6z"/>
				</g>
			</g>
			<g>
				<g>
					<path class="st7" d="M1707,372.9c0,0,7.1,6,13,3.1c0,0-12.2-9.9-14.9-19c0,0,4.8,1.8,10.3,0c0,0-12-9.1-13.7-21.6
						c0,0,1.7,1,6.9,1.6c0,0-14.7-13.8-14.7-37.5c0,23.7-14.7,37.5-14.7,37.5c5.1-0.5,6.9-1.6,6.9-1.6
						c-1.7,12.5-13.7,21.6-13.7,21.6c5.5,1.8,10.3,0,10.3,0c-2.7,9.1-14.9,19-14.9,19c5.9,2.9,13-3.1,13-3.1
						c-3.1,12-13,20.8-13,20.8c11.8,5.2,26.1,3.6,26.1,3.6s14.3,1.6,26.1-3.6C1720,393.7,1710.1,384.9,1707,372.9z"/>
				</g>
			</g>
		</g>
		<g>
			<path class="st4" d="M1696.1,745.4c0,0,2.7-2.1,5.1-0.9c3.5,1.8,5.3,0.9,5.3,0.9v-22.2h-10.4V745.4z"/>
			<g>
				<g>
					<path class="st5" d="M1672.7,678.8c0,0-16.3,13.7-29.8,7.1c0,0,27.8-22.6,33.9-43.4c0,0-10.9,4.2-23.5,0
						c0,0,27.4-20.8,31.3-49.3c0,0-3.9,2.4-15.6,3.6c0,0,33.5-31.5,33.5-85.6c0,54.1,33.5,85.6,33.5,85.6
						c-11.7-1.2-15.6-3.6-15.6-3.6c3.9,28.5,31.3,49.3,31.3,49.3c-12.6,4.2-23.5,0-23.5,0c6.1,20.8,33.9,43.4,33.9,43.4
						c-13.5,6.5-29.8-7.1-29.8-7.1c7.2,27.3,29.8,47.6,29.8,47.6c-26.9,11.9-59.5,8.3-59.5,8.3s-32.6,3.6-59.5-8.3
						C1642.9,726.3,1665.5,706.1,1672.7,678.8z"/>
				</g>
				<path class="st2" d="M1754.8,671.9c-2.5-6.4-18-27.8-24.3-25.2c-6.2,2.6-9.5,9.1-16.8,6.1c-7.3-3.1-18,1.7-23,9.9
					s2.4,25,17.3,23.5c14.9-1.6,25.2-1.6,32.9,6.6c7.8,8.2,26.8,0.8,25.8-6.6C1765.8,678.8,1758.1,680.1,1754.8,671.9z"/>
			</g>
		</g>
		<g>
			<path class="st4" d="M450.6,506.1c0,0-2.2-1.3-4.1-0.5c-2.8,1.1-4.3,0.5-4.3,0.5v-13.3h8.4V506.1z"/>
			<g>
				<path class="st5" d="M469.1,464.8c0,0,12.4,8.5,22.6,4.4c0,0-21.1-14-25.8-26.9c0,0,8.3,2.6,17.8,0c0,0-20.8-12.9-23.8-30.6
					c0,0,3,1.5,11.9,2.2c0,0-25.4-19.5-25.4-53.1c0,33.6-25.4,53.1-25.4,53.1c8.9-0.7,11.9-2.2,11.9-2.2
					c-3,17.7-23.8,30.6-23.8,30.6c9.6,2.6,17.8,0,17.8,0c-4.6,12.9-25.8,26.9-25.8,26.9c10.2,4.1,22.6-4.4,22.6-4.4
					c-5.4,17-22.6,29.5-22.6,29.5c20.5,7.4,45.3,5.2,45.3,5.2s24.8,2.2,45.3-5.2C491.7,494.3,474.5,481.8,469.1,464.8z"/>
				<path class="st2" d="M476.3,410.9c-4-4.5-12.6-12.6-19.8-27.6c-7.2-15.1-5-25.1-10.1-25.9s-12.9,26.9-17.8,37.7
					c-4.9,10.8-11.8,13.1-15,17.7c-3.1,4.5,8.2,3.8,12.4,2.4c-3.5,4.2-9.8,11.1-13.3,13.5c-7.8,5.3-15.5,9.9-5.6,13.4
					c6,2.1,16-10.1,20.7-14.3c13.1-11.3,30.2-14.7,37.8-11.9C473.4,418.8,480.3,415.5,476.3,410.9z"/>
			</g>
		</g>
		<g>
			<path class="st4" d="M558.2,507.3c0,0-2.2-1.3-4.1-0.5c-2.8,1.1-4.3,0.5-4.3,0.5V494h8.4V507.3L558.2,507.3z"/>
			<g>
				<g>
					<path class="st5" d="M577.2,467.4c0,0,13.3,8.2,24.2,4.3c0,0-22.6-13.5-27.6-26c0,0,8.8,2.5,19.1,0c0,0-22.3-12.5-25.5-29.5
						c0,0,3.2,1.4,12.7,2.1c0,0-27.2-18.9-27.2-51.3c0,32.4-27.2,51.3-27.2,51.3c9.5-0.7,12.7-2.1,12.7-2.1
						c-3.2,17.1-25.5,29.5-25.5,29.5c10.3,2.5,19.1,0,19.1,0c-4.9,12.5-27.6,26-27.6,26c11,3.9,24.2-4.3,24.2-4.3
						c-5.8,16.4-24.2,28.5-24.2,28.5c21.9,7.1,48.4,5,48.4,5s26.5,2.1,48.4-5C601.4,495.9,583,483.8,577.2,467.4z"/>
				</g>
				<path class="st2" d="M525,414.3c-2.2,2.9-1.2,6.4,3.3,5.5c4.5-0.8,6.3-4.1,12.6-5.5s10.4,5.3,15.5,4.7
					c5.1-0.6,13.9,3.5,14.8,11.8s4.1,13.7,8.4,15.8c4.3,2.1,15.5,2.5,15.9-1.6c0.4-4.1-12.2-9.2-15.9-12.9
					c-3.7-3.7-9.5-12.1-4.5-12.1c5.1,0,9.7-0.8,6.5-4.9c-3.3-4.1-21-22.5-23.4-32c-2.4-9.4-1.7-18.4-5.2-18
					C549.5,365.6,539.7,395.1,525,414.3z"/>
				<path class="st2" d="M510.4,463.3c2.1-3.8,14.7-16.7,19.7-15.1c5.1,1.6,7.7,5.5,13.6,3.6c5.9-1.8,14.7,1,18.7,5.9
					c4.1,4.9-2,15-14.1,14.1c-12.2-0.9-20.5-0.9-26.8,4s-21.8,0.4-21-4C501.4,467.4,507.7,468.2,510.4,463.3z"/>
				<path class="st2" d="M576,462.3c6.4-4.5,13.4-5,16.9-0.6s15.5,13.3,12.4,16C602.2,480.3,569.5,466.8,576,462.3z"/>
			</g>
		</g>
		<g>
			<path class="st4" d="M829.9,532.7c0,0-2.2-1.3-4.1-0.5c-2.8,1.1-4.3,0.5-4.3,0.5v-13.3h8.4V532.7z"/>
			<g>
				<g>
					<path class="st5" d="M805.2,487.1c0,0-11.3,9.6-20.6,5c0,0,19.2-15.9,23.4-30.5c0,0-7.5,2.9-16.2,0c0,0,18.9-14.6,21.6-34.7
						c0,0-2.7,1.7-10.8,2.5c0,0,23.1-22.2,23.1-60.2c0,38.1,23.1,60.2,23.1,60.2c-8.1-0.8-10.8-2.5-10.8-2.5
						c2.7,20.1,21.6,34.7,21.6,34.7c-8.7,2.9-16.2,0-16.2,0c4.2,14.6,23.4,30.5,23.4,30.5c-9.3,4.6-20.6-5-20.6-5
						c5,19.2,20.6,33.5,20.6,33.5c-18.6,8.4-41.1,5.9-41.1,5.9s-22.5,2.5-41.1-5.9C784.6,520.6,800.2,506.4,805.2,487.1z"/>
				</g>
				<path class="st2" d="M849.5,424.8c1.9,3.4,1,7.5-2.8,6.5s-5.4-4.8-10.7-6.5c-5.4-1.7-8.8,6.3-13.1,5.5
					c-4.3-0.7-11.8,4.2-12.6,13.9c-0.7,9.7-3.5,16-7.1,18.5c-3.6,2.5-13.1,3-13.5-1.8c-0.3-4.8,10.4-10.8,13.5-15.2
					c3.1-4.3,8.1-14.2,3.8-14.2c-4.3,0-8.3-1-5.5-5.8s17.8-26.5,19.9-37.5c2.1-11.1,1.5-21.7,4.4-21.2
					C828.7,367.5,837,402.2,849.5,424.8z"/>
				<path class="st2" d="M861.9,482.3c-1.7-4.5-12.4-19.6-16.8-17.7c-4.3,1.8-6.6,6.4-11.6,4.3c-5-2.2-12.4,1.2-15.9,7
					s1.7,17.6,12,16.5s17.4-1.1,22.8,4.7c5.4,5.8,18.5,0.5,17.8-4.7C869.5,487.1,864.2,488.1,861.9,482.3z"/>
				<path class="st2" d="M806.2,481c-5.4-5.3-11.4-5.9-14.3-0.7c-2.9,5.2-13.1,15.7-10.5,18.8C783.9,502.2,811.7,486.4,806.2,481z"
					/>
			</g>
		</g>
		<g>
			<g>
				<g>
					<g>
						<polygon class="st9" points="657.6,379.6 639.2,396.5 639.2,344.5 657.6,344.5 						"/>
						<rect x="651.8" y="344.5" class="st10" width="5.8" height="35.1"/>
					</g>
					<g>
						<path class="st2" d="M667.9,338.3c0,4.7-4.1,8.5-9.1,8.5h-20.3c-5,0-9.1-3.8-9.1-8.5l0,0c0-4.7,4.1-8.5,9.1-8.5h20.4
							C663.9,329.8,667.9,333.6,667.9,338.3L667.9,338.3z"/>
						<path class="st6" d="M638.5,346.8h20.4c5,0,9.1-3.8,9.1-8.5c0-2.3-1-4.4-2.6-6c0.4,9.8-12.1,10.8-22.5,10.6
							c-10.4-0.2-13.3-4.6-13.3-4.6C629.5,343,633.5,346.8,638.5,346.8z"/>
					</g>
				</g>
				<g>
					<g>
						<polygon class="st6" points="689.5,361 624.4,418.5 624.4,549.5 754.6,549.5 754.6,418.5 						"/>
						<g>
							<g>
								<g>
									<path class="st11" d="M669.1,414.8c0,11.3,9.1,20.5,20.4,20.5s20.4-9.2,20.4-20.5s-9.1-20.5-20.4-20.5
										S669.1,403.5,669.1,414.8z"/>
									<path class="st12" d="M672.6,414.8c0,9.4,7.6,17,16.9,17s16.9-7.6,16.9-17s-7.6-17-16.9-17S672.6,405.5,672.6,414.8z"/>
								</g>
								<polygon class="st11" points="671.3,412 686.7,412 686.7,396.5 692.3,396.5 692.3,412 707.7,412 707.7,417.7 692.3,417.7 
									692.3,433.2 686.7,433.2 686.7,417.7 671.3,417.7 								"/>
							</g>
							<g>
								<g>
									<polygon class="st12" points="670.1,472.7 673.1,462 685.1,454.5 697.1,455 706.1,461.8 707.1,469.1 707.5,472.5 									
										"/>
								</g>
								<g>
									<path class="st11" d="M711.9,472.7v76.9h-44.7v-76.9c0-6.7,4-19.2,18.9-21.1l2.9-0.3h0.6l3.3,0.2
										C707.8,453.5,711.9,466,711.9,472.7z M698.9,459.3l-6.3,11.1h13.2C705.3,467.4,703.7,462.3,698.9,459.3z M683.5,457.7
										l6,10.5l6-10.5c-1.6-0.5-3.4-0.9-5.6-0.9h-0.5H689C687,456.8,685.1,457.1,683.5,457.7z M673.2,470.4h13.2l-6.3-11.1
										C675.2,462.3,673.7,467.4,673.2,470.4z M706.1,544.3v-69.6h-33.2v69.6H706.1z"/>
									<g>
										<path class="st11" d="M681.9,508.3c0,1.3-1.2,2.4-2.6,2.4c-1.4,0-2.6-1.1-2.6-2.4c0-1.3,1.2-2.4,2.6-2.4
											C680.7,505.9,681.9,507,681.9,508.3z"/>
										<path class="st11" d="M676.7,478h24.8v28.8h-16.9c0,0-1.3-4.4-7.9-3.6V478z"/>
										<path class="st11" d="M676.7,540.6h24.8v-30.5h-16.9c0,0-1.3,4.4-7.9,3.6V540.6z"/>
									</g>
								</g>
							</g>
						</g>
					</g>
					<path class="st2" d="M768.6,407.7l-72.1-62c-2-1.7-4.5-2.5-7-2.4c-2.5-0.1-5,0.7-7,2.4l-72.1,62c-4.4,3.8-4.8,10.7-0.8,15.3
						c4,4.7,10.7,5.4,15.2,1.6l64.7-55.7l64.7,55.7c4.4,3.8,11.2,3.1,15.2-1.6C773.4,418.4,773,411.5,768.6,407.7z"/>
				</g>
				<path class="st6" d="M689.5,361c-5.6,0-54.3,43.1-65.1,52.1s-17.5,4.2-17.5,4.2c0.3,2,1.2,4,2.6,5.7c4,4.7,10.7,5.4,15.2,1.6
					l64.7-55.7l64.7,55.7c4.4,3.8,11.2,3.1,15.2-1.6s3.6-11.5-0.8-15.3C757.4,423.9,696.5,361,689.5,361z"/>
			</g>
			<path class="st2" d="M592.7,554.2c10.8-6.7,27.5-15.9,44.7-11.8c17.2,4.1,41.4,8.7,64.7,3.7c23.3-5,56.3-12.4,86.6,1.7v16.3h-196
				V554.2z"/>
		</g>
		<g>
			<path class="st2" d="M1112.4,582.4c-14-8.7-35.7-20.6-58-15.3c-22.3,5.4-53.8,11.3-84,4.8S897.3,555.8,858,574v21.1h254.4V582.4z
				"/>
		</g>
		<g>
			<path class="st4" d="M1672.2,475.7c0,0,2.1-1.1,4.1-0.5c2.8,1,4.2,0.5,4.2,0.5v-11.9h-8.3L1672.2,475.7L1672.2,475.7z"/>
			<g>
				<g>
					<path class="st5" d="M1696.6,434.8c0,0,11.1,8.6,20.2,4.5c0,0-18.9-14.3-23-27.4c0,0,7.4,2.6,16,0c0,0-18.6-13.1-21.3-31.1
						c0,0,2.7,1.5,10.6,2.2c0,0-22.7-19.9-22.7-54c0,34.1-22.7,54-22.7,54c8-0.8,10.6-2.2,10.6-2.2c-2.7,18-21.3,31.1-21.3,31.1
						c8.6,2.6,16,0,16,0c-4.1,13.1-23,27.4-23,27.4c9.2,4.1,20.2-4.5,20.2-4.5c-4.9,17.3-20.2,30-20.2,30
						c18.3,7.5,40.5,5.3,40.5,5.3s22.2,2.2,40.5-5.3C1716.8,464.8,1701.5,452,1696.6,434.8z"/>
				</g>
				<path class="st2" d="M1653,378.8c-1.8,3-1,6.7,2.7,5.8c3.7-0.9,5.3-4.3,10.5-5.8c5.3-1.5,8.7,5.6,12.9,5
					c4.3-0.6,11.6,3.7,12.4,12.4c0.7,8.7,3.5,14.4,7,16.6c3.6,2.2,12.9,2.7,13.3-1.6c0.3-4.3-10.2-9.7-13.3-13.6
					c-3.1-3.9-8-12.7-3.7-12.7c4.2,0,8.1-0.9,5.4-5.2c-2.7-4.3-17.5-23.8-19.6-33.7c-2-9.9-1.4-19.4-4.4-19
					C1673.4,327.5,1665.2,358.6,1653,378.8z"/>
				<path class="st2" d="M1640.8,430.5c1.7-4,12.2-17.6,16.5-15.9s6.5,5.8,11.4,3.8c4.9-1.9,12.2,1.1,15.6,6.3
					c3.4,5.2-1.6,15.8-11.8,14.8c-10.2-1-17.1-1-22.4,4.2s-18.2,0.5-17.5-4.2C1633.3,434.8,1638.6,435.6,1640.8,430.5z"/>
				<path class="st2" d="M1695.6,429.3c5.4-4.8,11.2-5.3,14.1-0.7c2.9,4.7,12.9,14,10.4,16.9
					C1717.5,448.3,1690.2,434.1,1695.6,429.3z"/>
			</g>
		</g>
		<path class="st6" d="M652.2,547.7c0,0,57.6,18.8,43.8,51.9c-13.8,33.1-45.2,73.6,4.9,115.3c76.7,63.9,82.3,92.5,56.4,163.1h220.2
			c0,0-7.1-105.1-91-144.5c-83.8-39.4-146.1-79.5-129.3-124.1c16.9-44.6-39.6-63.7-60.3-65.3L652.2,547.7z"/>
		<g>
			<ellipse class="st6" cx="1257.4" cy="480.3" rx="89.3" ry="15.2"/>
			<g>
				<polygon class="st12" points="1197.3,342.5 1192.7,323.3 1197.3,322 1207.9,322.2 1212.7,323.1 1208.5,342.5 1205.3,341.8 
					1200.3,341.7 				"/>
				<path class="st13" d="M1210.8,466.9l-2.6-25.6c0,0-2.2-2-0.6-3.6c0,0,0.6-0.8,0.6-1.6c0-0.8-0.6-1.3-0.6-1.3s-1.9-1.3-0.5-3.1
					l-1-1.8v-34.6c0,0,1.7-0.6,1.7-1.8c0-0.8-1.7-1.5-1.7-1.5l0,0v-47.8c1.8-0.3,3.1-0.8,3.1-0.8l4.1-20.2l0.7,0.1l1.8-0.6l-5.1-1.5
					c-0.5-0.6-1.7-2.1-1.8-3.7l-1.3-0.4c0,0-1.3-3.7-4.2-4.5c-0.4-1.3,0.5-1.8,0.5-1.8l-0.7-1c0.7-2-0.6-3.2-0.6-3.2
					c-1.3,1.6-0.4,3.3-0.4,3.3l-0.6,0.9c0.7,0.5,0.7,1.2,0.5,1.7c-3,0.8-4.3,4.5-4.3,4.5l-1.3,0.4c-0.1,1.7-1.5,3.1-1.9,3.5l-5,1.6
					l1.7,0.6l0.9-0.2l4.7,20.5c0,0,1,0.4,2.5,0.8V392c0,0-1.7,0.5-1.7,1.5s1.7,1.8,1.7,1.8v34.6l-1,1.8c1.4,1.8-0.5,3.1-0.5,3.1
					s-0.6,0.6-0.6,1.3c0,0.7,0.6,1.6,0.6,1.6c1.6,1.8-0.6,3.6-0.6,3.6l-2.6,25.6v4.5l-3.1,2.3v3.4h22.4v-3.4l-3.1-2.3v-4.5H1210.8z
					 M1206.9,322.7l-1.7,18.6h-4.9l-2.4-18.6H1206.9z M1208.2,341.9l-1.9-0.4l1.7-18.6l3.9,0.8L1208.2,341.9z M1197.8,341.9
					l-4.3-18.3l3.2-0.8l2.4,18.7L1197.8,341.9z"/>
			</g>
			<g>
				<g>
					<g>
						<rect x="1232.9" y="435.7" class="st13" width="4" height="37.2"/>
						<rect x="1308" y="435.7" class="st13" width="4" height="37.2"/>
					</g>
					<g>
						<g>
							<g>
								<rect x="1226.9" y="431.1" class="st14" width="91.2" height="8.8"/>
								<circle class="st13" cx="1235.3" cy="435.5" r="0.8"/>
							</g>
							<path class="st13" d="M1311.1,435.5c0,0.4-0.3,0.8-0.8,0.8c-0.4,0-0.8-0.3-0.8-0.8c0-0.4,0.3-0.8,0.8-0.8
								C1310.8,434.8,1311.1,435.1,1311.1,435.5z"/>
						</g>
						<g>
							<rect x="1226.9" y="441.3" class="st14" width="91.2" height="8.8"/>
							<g>
								<circle class="st13" cx="1235.4" cy="445.7" r="0.8"/>
								<circle class="st13" cx="1310.4" cy="445.7" r="0.8"/>
							</g>
						</g>
						<g>
							<rect x="1226.9" y="451.4" class="st14" width="91.2" height="8.8"/>
							<g>
								<circle class="st13" cx="1235.4" cy="455.8" r="0.8"/>
								<circle class="st13" cx="1310.4" cy="455.8" r="0.8"/>
							</g>
						</g>
					</g>
				</g>
				<g>
					<polygon class="st15" points="1318.1,461.6 1272.5,461.6 1226.9,461.6 1220.2,463.4 1220.2,466 1272.5,466 1324.7,466 
						1324.7,463.4 					"/>
					<g>
						<rect x="1222.1" y="466" class="st13" width="4" height="11"/>
						<rect x="1318.8" y="466" class="st13" width="4" height="11"/>
					</g>
				</g>
			</g>
		</g>
		<g>
			<path class="st4" d="M1123.9,502.5c0,0,2.4-1.3,4.5-0.5c3.1,1.1,4.7,0.5,4.7,0.5v-13.3h-9.2V502.5z"/>
			<g>
				<g>
					<path class="st5" d="M1151,456.9c0,0,12.3,9.6,22.6,5c0,0-21.1-15.9-25.7-30.5c0,0,8.2,2.9,17.8,0c0,0-20.8-14.6-23.7-34.7
						c0,0,3,1.7,11.9,2.5c0,0-25.4-22.2-25.4-60.2c0,38.1-25.4,60.2-25.4,60.2c8.9-0.8,11.9-2.5,11.9-2.5
						c-3,20.1-23.7,34.7-23.7,34.7c9.6,2.9,17.8,0,17.8,0c-4.6,14.6-25.7,30.5-25.7,30.5c10.2,4.6,22.6-5,22.6-5
						c-5.4,19.2-22.6,33.5-22.6,33.5c20.4,8.4,45.1,5.9,45.1,5.9s24.7,2.5,45.1-5.9C1173.6,490.3,1156.5,476.1,1151,456.9z"/>
				</g>
				<path class="st2" d="M1102.5,394.5c-2,3.4-1.1,7.5,3,6.5c4.2-1,5.9-4.8,11.8-6.5c5.9-1.7,9.7,6.3,14.4,5.5
					c4.7-0.7,13,4.2,13.8,13.9c0.8,9.7,3.9,16,7.8,18.5c4,2.5,14.4,3,14.8-1.8s-11.4-10.8-14.8-15.2c-3.4-4.3-8.9-14.2-4.2-14.2
					c4.7,0,9.1-1,6-5.8c-3-4.8-19.5-26.5-21.8-37.5c-2.3-11.1-1.6-21.7-4.9-21.2C1125.2,337.2,1116.1,371.9,1102.5,394.5z"/>
				<path class="st2" d="M1088.8,452c1.9-4.5,13.6-19.6,18.4-17.7c4.7,1.9,7.2,6.4,12.7,4.3c5.5-2.2,13.6,1.2,17.4,7
					s-1.8,17.6-13.1,16.5c-11.3-1.1-19.1-1.1-25,4.7s-20.3,0.5-19.5-4.7C1080.5,456.8,1086.4,457.8,1088.8,452z"/>
				<path class="st2" d="M1149.9,450.8c6-5.3,12.5-5.9,15.7-0.7c3.2,5.2,14.4,15.7,11.6,18.8C1174.4,472,1143.9,456.1,1149.9,450.8z
					"/>
			</g>
		</g>
		<g>
			<path class="st4" d="M1381.6,505.2c0,0,2.3-1.4,4.4-0.6c3,1.1,4.5,0.6,4.5,0.6V491h-8.9V505.2z"/>
			<path class="st4" d="M1490.9,504.5c0,0,2.3-1.4,4.4-0.6c3,1.1,4.5,0.6,4.5,0.6v-14.2h-8.9V504.5z"/>
			<g>
				<path class="st5" d="M1362,461.1c0,0-13.1,9.1-24,4.7c0,0,22.4-15,27.3-28.8c0,0-8.8,2.8-18.9,0c0,0,22-13.8,25.2-32.7
					c0,0-3.1,1.6-12.6,2.4c0,0,26.9-20.9,26.9-56.8c0,35.9,26.9,56.8,26.9,56.8c-9.4-0.8-12.6-2.4-12.6-2.4
					c3.2,18.9,25.2,32.7,25.2,32.7c-10.1,2.8-18.9,0-18.9,0c4.9,13.8,27.3,28.8,27.3,28.8c-10.9,4.3-24-4.7-24-4.7
					c5.8,18.1,24,31.6,24,31.6c-21.7,7.9-47.9,5.5-47.9,5.5s-26.2,2.4-47.9-5.5C1338,492.7,1356.2,479.3,1362,461.1z"/>
				<path class="st2" d="M1354.3,403.5c4.3-4.8,13.3-13.4,21-29.5c7.6-16.1,5.2-26.9,10.7-27.7c5.4-0.8,13.6,28.7,18.8,40.3
					c5.2,11.5,12.5,14,15.9,18.9c3.3,4.8-8.7,4-13.2,2.6c3.7,4.5,10.3,11.8,14.1,14.4c8.2,5.7,16.4,10.6,6,14.3
					c-6.4,2.3-16.9-10.8-22-15.2c-13.9-12.1-32-15.7-40.1-12.7C1357.4,411.9,1350,408.3,1354.3,403.5z"/>
			</g>
		</g>
		<g>
			<path class="st2" d="M1374.2,546.9c13.8-6.7,35.2-15.9,57.3-11.8c22.1,4.1,53.1,8.7,83,3.7s72.3-12.4,111.1,1.7v16.3h-251.4
				V546.9z"/>
		</g>
		<g>
			<path class="st4" d="M1599.9,567.2c0,0-2.2-1.7-4.1-0.7c-2.8,1.5-4.3,0.7-4.3,0.7v-18h8.4V567.2z"/>
			<g>
				<g>
					<path class="st5" d="M1618.9,513c0,0,13.3,11.1,24.2,5.8c0,0-22.6-18.4-27.6-35.3c0,0,8.8,3.4,19.1,0c0,0-22.3-16.9-25.5-40.2
						c0,0,3.2,1.9,12.7,2.9c0,0-27.2-25.6-27.2-69.7c0,44-27.2,69.7-27.2,69.7c9.5-1,12.7-2.9,12.7-2.9
						c-3.2,23.2-25.5,40.2-25.5,40.2c10.3,3.4,19.1,0,19.1,0c-4.9,16.9-27.6,35.3-27.6,35.3c11,5.3,24.2-5.8,24.2-5.8
						c-5.8,22.3-24.2,38.7-24.2,38.7c21.9,9.7,48.4,6.8,48.4,6.8s26.5,2.9,48.4-6.8C1643.2,551.7,1624.8,535.2,1618.9,513z"/>
				</g>
				<g>
					<path class="st5" d="M1515.4,448.5c0,0,13.3,11.1,24.2,5.8c0,0-22.6-18.4-27.6-35.3c0,0,8.8,3.4,19.1,0
						c0,0-22.3-16.9-25.5-40.2c0,0,3.2,1.9,12.7,2.9c0,0-27.2-25.6-27.2-69.7c0,44-27.2,69.7-27.2,69.7c9.5-1,12.7-2.9,12.7-2.9
						c-3.2,23.2-25.5,40.2-25.5,40.2c10.3,3.4,19.1,0,19.1,0c-4.9,16.9-27.6,35.3-27.6,35.3c11,5.3,24.2-5.8,24.2-5.8
						c-5.8,22.3-24.2,38.7-24.2,38.7c21.9,9.7,48.4,6.8,48.4,6.8s26.5,2.9,48.4-6.8C1539.7,487.2,1521.3,470.7,1515.4,448.5z"/>
				</g>
				<path class="st2" d="M1566.8,440.8c-2.2,3.9-1.2,8.6,3.3,7.5s6.3-5.6,12.6-7.5c6.3-2,10.4,7.2,15.5,6.4
					c5.1-0.8,13.9,4.8,14.8,16.1c0.9,11.2,4.1,18.6,8.4,21.4c4.3,2.9,15.5,3.4,15.9-2.1c0.4-5.6-12.2-12.5-15.9-17.5
					c-3.7-5-9.5-16.4-4.5-16.4c5.1,0,9.7-1.1,6.5-6.7c-3.3-5.6-21-30.6-23.4-43.4s-1.7-25.1-5.2-24.5
					C1591.2,374.5,1581.4,414.6,1566.8,440.8z"/>
				<path class="st2" d="M1464.8,385.3c-2.2,3.9-1.2,8.6,3.3,7.5s6.3-5.6,12.6-7.5c6.3-2,10.4,7.2,15.5,6.4
					c5.1-0.8,13.9,4.8,14.8,16.1c0.9,11.2,4.1,18.6,8.4,21.4c4.3,2.9,15.5,3.4,15.9-2.1c0.4-5.6-12.2-12.5-15.9-17.5
					c-3.7-5-9.5-16.4-4.5-16.4c5.1,0,9.7-1.1,6.5-6.7c-3.3-5.6-21-30.6-23.4-43.4s-1.7-25.1-5.2-24.5
					C1489.2,319,1479.4,359.1,1464.8,385.3z"/>
				<path class="st2" d="M1552.1,507.4c2.1-5.2,14.7-22.7,19.7-20.5c5.1,2.1,7.7,7.4,13.6,4.9s14.7,1.4,18.7,8.1
					c4.1,6.7-2,20.4-14.1,19.1c-12.2-1.3-20.5-1.3-26.8,5.4s-21.8,0.6-21-5.4C1543.2,512.9,1549.5,514.1,1552.1,507.4z"/>
				<path class="st2" d="M1617.7,505.9c6.4-6.2,13.4-6.9,16.9-0.9s15.5,18.1,12.4,21.7C1644,530.4,1611.3,512.1,1617.7,505.9z"/>
			</g>
		</g>
	</g>
</g>
<path class="st2" d="M1335.2,351.1c3.3,0,6,2.7,6,6s-2.7,6-6,6c-3.3,0-6-2.7-6-6C1329.2,353.8,1331.9,351.1,1335.2,351.1z"/>
<path class="st2" d="M1440.1,351.1c3.3,0,6,2.7,6,6s-2.7,6-6,6s-6-2.7-6-6C1434.1,353.8,1436.8,351.1,1440.1,351.1z"/>
<path class="st2" d="M1510.7,301.8c4.4,0,8,3.6,8,8s-3.6,8-8,8s-8-3.6-8-8C1502.7,305.3,1506.3,301.8,1510.7,301.8z"/>
<path class="st2" d="M1585.9,362.8c3.3,0,6,2.7,6,6s-2.7,6-6,6s-6-2.7-6-6S1582.6,362.8,1585.9,362.8z"/>
<path class="st2" d="M1620.5,271.2c4.4,0,8,3.6,8,8s-3.6,8-8,8s-8-3.6-8-8C1612.5,274.7,1616.1,271.2,1620.5,271.2z"/>
<path class="st2" d="M509.3,147.7c0,3.3-2.6,5.9-5.9,5.9s-5.9-2.6-5.9-5.9c0-3.3,2.6-5.9,5.9-5.9
	C506.7,141.8,509.3,144.4,509.3,147.7z"/>
<path class="st2" d="M802.6,222.8c0,4.3-3.5,7.8-7.8,7.8s-7.8-3.5-7.8-7.8s3.5-7.8,7.8-7.8S802.6,218.5,802.6,222.8z"/>
<path class="st2" d="M859.2,282.6c2.5-2.1,6.2-1.8,8.3,0.7s1.8,6.2-0.7,8.3c-2.5,2.1-6.2,1.8-8.3-0.7S856.7,284.7,859.2,282.6z"/>
<path class="st2" d="M967.5,307.8c2.5-2.1,6.2-1.8,8.3,0.7s1.8,6.2-0.7,8.3c-2.5,2.1-6.2,1.8-8.3-0.7
	C964.7,313.6,965,309.9,967.5,307.8z"/>
<path class="st2" d="M1667.1,176.3c2.3,3.7,1.2,8.7-2.5,11c-3.7,2.4-8.7,1.2-11-2.5s-1.2-8.7,2.5-11
	C1659.8,171.5,1664.8,172.6,1667.1,176.3z"/>
<path class="st2" d="M869.7,368.9c2.3,3.7,1.2,8.7-2.5,11c-3.7,2.4-8.7,1.2-11-2.5s-1.2-8.7,2.5-11
	C862.5,364,867.4,365.1,869.7,368.9z"/>
</svg>
