<?xml version="1.0" encoding="utf-8"?>
<!-- Generator: Adobe Illustrator 19.1.0, SVG Export Plug-In . SVG Version: 6.00 Build 0)  -->
<svg version="1.1" id="图层_1" xmlns="http://www.w3.org/2000/svg" xmlns:xlink="http://www.w3.org/1999/xlink" x="0px" y="0px"
	 viewBox="0 0 184.1 194.7" style="enable-background:new 0 0 184.1 194.7;" xml:space="preserve">
<style type="text/css">
	.st0{fill:#FADCDC;}
	.st1{fill-rule:evenodd;clip-rule:evenodd;fill:#C1CC97;}
	.st2{fill-rule:evenodd;clip-rule:evenodd;fill:#D28288;}
	.st3{fill-rule:evenodd;clip-rule:evenodd;fill:#FADCDC;}
</style>
<g>
	<path class="st0" d="M92.3,3.9c0.8-0.4,1.9-0.1,2.3,0.7c0.4,0.8,0.1,1.9-0.7,2.3c-0.1,0.1-0.3,0.1-0.4,0.2
		c-7.2,4-13.7,15.5-17,28.9c-3.3,13.4-3.3,28.4,2.4,39.4c0.2,0.3,0.3,0.6,0.5,0.9c0.5,0.8,0.2,1.8-0.6,2.3c-0.8,0.5-1.8,0.2-2.3-0.7
		c-0.2-0.3-0.4-0.7-0.6-1c-6.2-11.8-6.2-27.7-2.7-41.8C76.7,20.9,83.8,8.6,91.8,4.1C92,4,92.1,4,92.3,3.9L92.3,3.9z"/>
	<path class="st0" d="M6.5,64.3c-0.7,0.6-1.8,0.5-2.4-0.3c-0.6-0.7-0.5-1.8,0.2-2.4c0.2-0.1,0.3-0.3,0.5-0.4
		c7.3-5.6,21.5-7.2,36-4.9c14.4,2.3,29.3,8.6,37.8,18.8c0.3,0.3,0.5,0.6,0.7,0.9c0.6,0.7,0.5,1.8-0.3,2.4c-0.7,0.6-1.8,0.4-2.4-0.3
		c-0.2-0.3-0.5-0.6-0.7-0.8C68,67.7,54,61.9,40.3,59.7C26.6,57.5,13.4,58.9,6.8,64C6.7,64.1,6.6,64.2,6.5,64.3L6.5,64.3z"/>
	<path class="st1" d="M179.9,137.8c12.3-9.3-4.9-36.2-19.5-43.3c-14.6-7.1-56.4-11.1-61,2.6C94.8,110.8,156,155.9,179.9,137.8
		L179.9,137.8z"/>
	<path class="st1" d="M94.6,193.4C81.3,201,62.9,174.8,62,158.8c-0.9-16.1,11.7-55.7,26.2-54.6C102.8,105.3,120.8,178.6,94.6,193.4
		L94.6,193.4z"/>
	<path class="st2" d="M101.9,25.9c15.3-8.7,42.5,16.3,43.5,34.7c1,18.4-17.1,53.1-33.7,51.9C95,111.2,71.9,42.8,101.9,25.9
		L101.9,25.9z"/>
	<path class="st1" d="M73.2,69.9c3.9-2.6,9.2-1.4,11.8,2.5c2.6,4,1.6,9.2-2.3,11.8c-3.9,2.6-9.2,1.4-11.8-2.5
		C68.2,77.7,69.3,72.5,73.2,69.9L73.2,69.9z"/>
	<path class="st2" d="M90.1,0.9c2.5-1.6,5.8-0.9,7.5,1.6c1.7,2.5,1,5.8-1.4,7.4c-2.5,1.6-5.8,0.9-7.5-1.6C87,5.8,87.7,2.5,90.1,0.9
		L90.1,0.9z"/>
	<path class="st2" d="M2.4,58.4c-2.5,1.6-3.1,4.9-1.4,7.4c1.7,2.5,5,3.2,7.5,1.6c2.5-1.6,3.1-4.9,1.4-7.4
		C8.1,57.5,4.8,56.8,2.4,58.4L2.4,58.4z"/>
	<path class="st3" d="M116.7,55.4c1.8-12.9,18-10.1,18.8-1c1.1,13-18.3,21-19.9,40.5c-1.3-18.2-14.8-23.1-17.3-36
		C96.5,49.8,111.5,43.1,116.7,55.4L116.7,55.4z"/>
	<path class="st2" d="M21.1,78.5c-14,10.6-1.4,45.1,15.3,53.2c16.7,8.1,56.1,5.2,61.4-10.5C103.1,105.6,48.5,57.8,21.1,78.5
		L21.1,78.5z"/>
	<path class="st3" d="M42.7,103.6c-12.7-3.4-16.4,12.5-8.2,16.8c11.7,6.1,26.6-8.5,45.4-2.4c-16.4-8.3-15.7-22.5-26.7-29.8
		C45.5,82.9,33.4,94,42.7,103.6L42.7,103.6z"/>
</g>
</svg>
