<?xml version="1.0" encoding="utf-8"?>
<!-- Generator: Adobe Illustrator 19.1.0, SVG Export Plug-In . SVG Version: 6.00 Build 0)  -->
<svg version="1.1" id="图层_1" xmlns="http://www.w3.org/2000/svg" xmlns:xlink="http://www.w3.org/1999/xlink" x="0px" y="0px"
	 viewBox="0 0 213.2 213.2" style="enable-background:new 0 0 213.2 213.2;" xml:space="preserve">
<style type="text/css">
	.st0{fill-rule:evenodd;clip-rule:evenodd;fill:#D28288;}
	.st1{fill-rule:evenodd;clip-rule:evenodd;fill:#FADCDC;}
	.st2{fill-rule:evenodd;clip-rule:evenodd;fill:#FADDAC;}
</style>
<path class="st0" d="M117.8,105.9c6.1-9.4,71.9-24.8,95.4-5.8C192.2,121.8,125,114.5,117.8,105.9L117.8,105.9z M100.4,97.3
	C89.2,96.6,43,47.4,47.7,17.5C77,24.9,104.2,86.7,100.4,97.3L100.4,97.3z M96.6,101.6C86.6,106.7,21.9,87.2,11,59
	C40.1,50.7,94.6,90.6,96.6,101.6L96.6,101.6z M95.4,107.3c-6.1,9.4-71.9,24.8-95.4,5.8C21.1,91.4,88.2,98.7,95.4,107.3L95.4,107.3z
	 M97.3,112.8c-0.6,11.2-49.8,57.5-79.7,52.8C24.9,136.2,86.7,109,97.3,112.8L97.3,112.8z M101.6,116.7c5.1,10-14.4,74.7-42.7,85.6
	C50.7,173.1,90.6,118.6,101.6,116.7L101.6,116.7z M107.3,117.8c9.4,6.1,24.8,71.9,5.8,95.4C91.4,192.2,98.7,125,107.3,117.8
	L107.3,117.8z M112.8,116c11.2,0.6,57.4,49.8,52.8,79.7C136.2,188.3,109,126.5,112.8,116L112.8,116z M116.7,111.6
	c10-5.1,74.7,14.4,85.6,42.7C173.1,162.6,118.6,122.7,116.7,111.6L116.7,111.6z M116,100.4c0.6-11.2,49.8-57.4,79.7-52.8
	C188.3,77,126.5,104.2,116,100.4L116,100.4z M111.6,96.6c-5.1-10,14.4-74.7,42.7-85.6C162.6,40.1,122.7,94.6,111.6,96.6L111.6,96.6z
	 M105.9,95.4c-9.4-6.1-24.8-71.9-5.8-95.4C121.8,21.1,114.5,88.2,105.9,95.4L105.9,95.4z"/>
<path class="st1" d="M117.3,103.4c3.8-10.5,64.2-40.7,91.5-27.6C193.4,101.7,126.4,110,117.3,103.4L117.3,103.4z M98.4,98.9
	c-11,2-67.4-35.3-69.7-65.4C59,33.9,99.7,87.8,98.4,98.9L98.4,98.9z M95.7,104.1c-8.6,7.2-76,3.1-93.1-21.8
	C29,67.5,91.2,93.8,95.7,104.1L95.7,104.1z M95.9,109.9c-3.8,10.5-64.2,40.7-91.5,27.6C19.8,111.5,86.9,103.2,95.9,109.9L95.9,109.9
	z M98.9,114.8c2,11-35.3,67.4-65.4,69.7C33.9,154.2,87.8,113.5,98.9,114.8L98.9,114.8z M104.1,117.5c7.2,8.6,3.1,76-21.8,93.1
	C67.5,184.2,93.8,122,104.1,117.5L104.1,117.5z M109.9,117.4c10.5,3.8,40.7,64.2,27.6,91.5C111.5,193.4,103.2,126.4,109.9,117.4
	L109.9,117.4z M114.8,114.3c11-2,67.4,35.3,69.7,65.4C154.2,179.3,113.5,125.4,114.8,114.3L114.8,114.3z M117.5,109.2
	c8.6-7.2,76-3.1,93.1,21.8C184.2,145.8,122,119.5,117.5,109.2L117.5,109.2z M114.3,98.4c-2-11,35.3-67.4,65.4-69.7
	C179.3,59,125.4,99.7,114.3,98.4L114.3,98.4z M109.2,95.7c-7.2-8.6-3.1-76,21.8-93.1C145.8,29,119.5,91.2,109.2,95.7L109.2,95.7z
	 M103.4,95.9C92.8,92.1,62.7,31.6,75.7,4.4C101.7,19.8,110,86.9,103.4,95.9L103.4,95.9z"/>
<path class="st0" d="M111.7,105.1c1.8-5,30.5-19.3,43.5-13.1C147.8,104.3,116,108.2,111.7,105.1L111.7,105.1z M102.7,103
	c-5.2,0.9-32-16.8-33.1-31.1C84,72.1,103.3,97.7,102.7,103L102.7,103z M101.4,105.4c-4.1,3.4-36.1,1.5-44.2-10.4
	C69.8,88,99.3,100.5,101.4,105.4L101.4,105.4z M101.5,108.2c-1.8,5-30.5,19.3-43.5,13.1C65.4,108.9,97.2,105,101.5,108.2
	L101.5,108.2z M103,110.5c0.9,5.2-16.8,32-31.1,33.1C72.1,129.2,97.7,109.9,103,110.5L103,110.5z M105.4,111.8
	c3.4,4.1,1.5,36.1-10.4,44.2C88,143.5,100.5,113.9,105.4,111.8L105.4,111.8z M108.2,111.7c5,1.8,19.3,30.5,13.1,43.5
	C108.9,147.8,105,116,108.2,111.7L108.2,111.7z M110.5,110.3c5.2-0.9,32,16.8,33.1,31.1C129.2,141.2,109.9,115.6,110.5,110.3
	L110.5,110.3z M111.8,107.8c4.1-3.4,36.1-1.5,44.2,10.4C143.5,125.2,113.9,112.7,111.8,107.8L111.8,107.8z M110.3,102.7
	c-0.9-5.2,16.8-32,31.1-33.1C141.2,84,115.6,103.3,110.3,102.7L110.3,102.7z M107.8,101.4c-3.4-4.1-1.5-36.1,10.4-44.2
	C125.2,69.8,112.7,99.3,107.8,101.4L107.8,101.4z M105.1,101.5c-5-1.8-19.3-30.5-13.1-43.5C104.3,65.4,108.2,97.2,105.1,101.5
	L105.1,101.5z"/>
<path class="st2" d="M105.4,87.4c10.6-0.6,19.7,7.4,20.4,18c0.6,10.6-7.4,19.7-18,20.4c-10.6,0.6-19.7-7.4-20.4-18
	C86.8,97.2,94.8,88.1,105.4,87.4L105.4,87.4z"/>
</svg>
