<?xml version="1.0" encoding="utf-8"?>
<!-- Generator: Adobe Illustrator 19.1.0, SVG Export Plug-In . SVG Version: 6.00 Build 0)  -->
<svg version="1.1" id="图层_1" xmlns="http://www.w3.org/2000/svg" xmlns:xlink="http://www.w3.org/1999/xlink" x="0px" y="0px"
	 viewBox="0 0 268.4 271.5" style="enable-background:new 0 0 268.4 271.5;" xml:space="preserve">
<style type="text/css">
	.st0{fill-rule:evenodd;clip-rule:evenodd;fill:#D28288;}
	.st1{fill-rule:evenodd;clip-rule:evenodd;fill:#FADCDC;}
	.st2{fill-rule:evenodd;clip-rule:evenodd;fill:#FADDAC;}
</style>
<path class="st0" d="M135.6,124.6C105.8,117.5,97.7,27,112.5,7.7c20.2-26.3,38.1,22.9,41.2,23.5c3,0.6,38.3-38,47-6
	C207,48.7,166.3,129.5,135.6,124.6L135.6,124.6z"/>
<path class="st0" d="M145.1,135.5c-2.5-30.5,81.1-66.2,104.1-58.1c31.2,11.1-10,43.3-9.6,46.4c0.4,3,48,24.7,20.2,42.8
	C239.4,180,149.9,166.3,145.1,135.5L145.1,135.5z"/>
<path class="st0" d="M137.6,147.9c28.3-11.8,88,56.7,87.3,81.1c-0.9,33.1-44.3,3.9-47.1,5.2c-2.8,1.3-8.7,53.2-34.5,32.4
	C124.4,251.3,109.9,162,137.6,147.9L137.6,147.9z"/>
<path class="st0" d="M123.6,144.6c19.9,23.3-26.8,101.2-50.1,108.1c-31.8,9.3-17.4-40.9-19.5-43.2c-2.1-2.3-53.3,8.2-41.5-22.8
	C21.1,164,101.6,122.6,123.6,144.6L123.6,144.6z"/>
<path class="st0" d="M122.3,130.2C106.4,156.4,17.8,136,4,115.9c-18.7-27.3,33.6-29.1,35.1-31.9c1.5-2.7-24.2-48.2,8.9-46.5
	C72.3,38.8,136.5,102.6,122.3,130.2L122.3,130.2z"/>
<path class="st1" d="M142.4,141c9.3,4.2,21.7,11.3,25.5,17.2c-6.5-0.3-17.4-6.4-25.6-11.9c8.6,13.9,19.8,37.3,19.2,49.6
	c-10-8-20.8-33.7-25.4-49.2c-1.6,0.5-3.2,0.7-5,0.4c-0.8,10.2-3.7,25.7-8.4,31.6c-2.1-7.4,1.5-23.2,4.7-32.9
	c-0.6-0.3-1.1-0.7-1.6-1.1c-10.2,12.5-30,32.1-42.3,35.6c4.4-12.2,26.1-31.1,39.3-40.2l-0.1-0.2c-9.8,2.4-26.4,4.7-33.7,1.9
	c6.5-4.3,23.1-5.7,33.2-5.5c0-0.5,0.1-1.1,0.2-1.6c0.2-1.2,0.7-2.4,1.3-3.4c-14.5-5.2-42.2-19.1-49.8-30.5
	c12.6,0.5,35.9,14.4,48.9,24.1c-4.7-8.6-9.6-19.9-9.3-26.3c5.8,4.6,12,18.7,15.1,28.4c1.3-0.5,2.7-0.8,4.2-0.8
	c0-14.5,4.8-47.7,13.6-58.9c3.9,13.8-4.4,46.2-9.9,59.7c0.6,0.2,1.1,0.5,1.6,0.8c6.8-7.6,17.4-17.3,24.2-19.1
	c-2.4,6.5-12.9,16.1-21,22.1l0.1,0.2c14.3-4.4,46.2-9.8,59.3-4.9c-11.3,7.6-42.3,9.9-57.7,9.2c0.2,1.2,0.2,2.4-0.1,3.7
	C143,139.5,142.8,140.2,142.4,141L142.4,141z"/>
<path class="st2" d="M137.1,115.3c11.8,2.3,19.4,13.8,17.1,25.5c-2.3,11.8-13.8,19.4-25.5,17.1c-11.8-2.3-19.4-13.8-17.1-25.5
	C113.9,120.6,125.3,113,137.1,115.3L137.1,115.3z"/>
</svg>
