<?xml version="1.0" encoding="utf-8"?>
<!-- Generator: Adobe Illustrator 19.1.0, SVG Export Plug-In . SVG Version: 6.00 Build 0)  -->
<svg version="1.1" id="图层_1" xmlns="http://www.w3.org/2000/svg" xmlns:xlink="http://www.w3.org/1999/xlink" x="0px" y="0px"
	 viewBox="0 0 168.6 211.1" style="enable-background:new 0 0 168.6 211.1;" xml:space="preserve">
<style type="text/css">
	.st0{fill:#9BC5C5;}
	.st1{fill:#52090E;}
	.st2{fill:#FFFFFF;stroke:#040000;stroke-miterlimit:10;}
	.st3{fill:#D9372D;}
	.st4{fill:#B91E22;}
	.st5{fill:#3D3C3C;}
	.st6{fill:#EE782F;}
	.st7{fill:#CE2A27;}
	.st8{fill:#343434;}
</style>
<ellipse class="st0" cx="86.8" cy="204.1" rx="54.5" ry="7"/>
<g>
	<path class="st1" d="M131.2,109.8c2.6-1.6,9.8-6.5,11-9.1c1.4-3,4.6-8.7,6.7-10.6c0-4.3,0.2-9.5,1-10.6c0.8-1.2,5-6.1,5.2-6.3
		c0.4-0.5,1.1-0.5,1.6-0.1c0.5,0.4,0.5,1.1,0.1,1.6c0,0.1-4.3,5.1-5,6.1c-0.3,0.7-0.5,4.2-0.6,7.8c5.1-3.4,8-5.7,8.4-6.8
		c0-0.1,4.3-11,7.2-13.5c0.5-0.4,1.2-0.3,1.6,0.1c0.4,0.5,0.3,1.2-0.1,1.6c-1.9,1.6-5.4,9.6-6.5,12.6c-0.8,2.2-5.3,5.3-10,8.4
		c-0.4,0.3-0.7,0.5-1,0.6c-1.3,0.9-4.5,6.1-6.3,9.8c2.8,0.2,5.6,0.2,6.2,0c0.4-0.2,2.5-1.9,4.2-3.3c3-2.5,6.5-5.3,8.1-6.1
		c0.6-0.3,1.2,0,1.5,0.5c0.3,0.6,0,1.2-0.5,1.5c-1.4,0.7-5,3.7-7.7,5.8c-2.9,2.4-4.1,3.4-4.7,3.6c-0.6,0.3-1.9,0.3-3.4,0.3
		c-1.7,0-3.7-0.1-5.1-0.2c-3.1,3.6-9.7,7.7-10.6,8.3c-0.2,0.1-0.4,0.2-0.6,0.2c-0.4,0-0.7-0.2-1-0.5
		C130.5,110.8,130.7,110.1,131.2,109.8z"/>
	<path class="st1" d="M48.3,105.6c-3.1-1.2-11.6-5-13.5-7.7c-2.1-3-6.9-8.6-9.5-10.3c-1.1-4.8-2.5-10.5-3.7-11.6
		c-1.1-1.1-6.6-5.6-6.9-5.8c-0.5-0.4-1.3-0.3-1.6,0.2c-0.4,0.6-0.2,1.4,0.3,1.8c0.1,0,5.6,4.7,6.7,5.7c0.5,0.7,1.6,4.6,2.5,8.5
		c-6.1-2.6-9.5-4.5-10.3-5.7c-0.1-0.1-7.1-11.3-10.7-13.4c-0.6-0.3-1.3-0.1-1.6,0.5c-0.3,0.6,0,1.4,0.5,1.7
		c2.3,1.4,7.9,9.5,9.8,12.5c1.4,2.2,6.7,4.7,12.3,7.1c0.5,0.2,0.9,0.4,1.1,0.5c1.6,0.7,6.2,5.8,8.9,9.5c-2.8,0.8-5.7,1.5-6.3,1.4
		c-0.5-0.1-3.1-1.6-5.1-2.7c-3.7-2.1-7.9-4.5-9.8-5c-0.6-0.2-1.2,0.2-1.4,0.9c-0.1,0.7,0.3,1.4,0.9,1.6c1.6,0.4,6,2.9,9.3,4.8
		c3.5,2,5,2.8,5.7,3c0.7,0.2,2-0.1,3.6-0.4c1.8-0.4,3.8-1,5.1-1.4c4,3.3,11.9,6.4,12.9,6.8c0.2,0.1,0.4,0.1,0.6,0.1
		c0.4-0.1,0.7-0.4,0.8-0.8C49.3,106.6,49,105.8,48.3,105.6z"/>
	<g>
		<path class="st2" d="M129.1,72.1c0,8.8-4.1,16.9-10.9,23.1c-20.9-5.9-51.7-5.4-67.1,0.5c-0.1,0-0.1,0-0.2,0.1
			c-7.2-6.3-11.6-14.6-11.6-23.7c0-19.6,20.1-35.4,44.9-35.4C109.1,36.7,129.1,52.6,129.1,72.1z"/>
		<path class="st2" d="M139.5,111.8c-0.1,0.2-0.2,0.3-0.2,0.3c-12.5,6.3-46.5-3-52.7-3.9c-12.3-1.8-26,1.7-34.4,3.2
			c-7.3,1.3-13.3,0.1-15.3-2c-2.7,2.6-4.9,5.5-6.6,8.8C20,138.2,5.3,204,86.1,203.9c0,0,61,2.7,65.2-50.7
			C152.6,134.9,147.6,121.4,139.5,111.8z"/>
		<g>
			<path class="st3" d="M131.6,48.6c0.6-5.4-9-24.2-8.7-26.5c0.2-0.6-0.2-2.4-1.6-4.6c0,0,0,0,0,0l0,0c0,0,0,0,0,0
				c0-0.1,31.9,14.8,32,14.7c8.4-9.5-28-37.8-70.8-32.2C62,2.8,45.5,12.9,46.3,20.5c0.1,0.7-1.7,4.9-1.4,5.5l2-3.5
				c-3.4,3.6-14.1,24.9-13.4,29.2c9.5-6.2,37.3-30,50.8-30C97.7,21.7,122.1,42.5,131.6,48.6z"/>
			<path class="st3" d="M119.5,31.6c-8.2-6.6-16.2-12.3-36.2-12.8c-17.8-0.5-34.4,12.9-34.4,12.9c9.5-6.2,21.9-10,35.4-10
				C97.7,21.7,110,25.4,119.5,31.6z"/>
			<path class="st3" d="M138.9,63.6c0,12.9-7.6,24.4-19.5,32.1c-0.4-0.1-0.7-0.2-1.1-0.3c6.8-6.2,10.9-14.3,10.9-23.1
				c0-10.2-5.5-19.4-14.2-25.8c-8-6-18.8-9.6-30.7-9.6c-13.3,0-25.2,4.5-33.4,11.8c-7.1,6.3-11.5,14.6-11.5,23.7
				c0,9.1,4.4,17.4,11.6,23.7c-0.2,0.1-0.5,0.2-0.8,0.3c-12.5-7.7-20.5-19.5-20.5-32.7c0-12.8,7.5-24.2,19.2-31.9
				c9.5-6.2,21.9-10,35.4-10c13.4,0,25.7,3.7,35.2,9.9C131.4,39.3,138.9,50.7,138.9,63.6z"/>
		</g>
		<g>
			<g>
				<path class="st4" d="M99.4,54.5c0,0-9.4,10.8-29,1.4c0,0,1.7,4.9,5.3,9.1c0,0,13.1-4.9,18.9,3.4C100.1,63.8,99.4,54.5,99.4,54.5
					z"/>
				<path class="st5" d="M75.8,65c2.9,3.5,7.1,6.5,12.6,5.9c2.7-0.3,4.7-1.2,6.3-2.5C88.9,60.1,75.8,65,75.8,65z"/>
				<path class="st3" d="M75.8,65c2.9,3.5,7.1,6.5,12.6,5.9c2.7-0.3,4.7-1.2,6.3-2.5C88.9,60.1,75.8,65,75.8,65z"/>
			</g>
			<path class="st1" d="M62.9,46.5c0,0,0-0.2,0-0.5c0.1-0.3,0.2-0.8,0.5-1.2c0.1-0.2,0.3-0.5,0.5-0.7c0.2-0.2,0.4-0.5,0.7-0.7
				c0.3-0.2,0.6-0.4,0.9-0.6c0.3-0.2,0.7-0.3,1.1-0.4c0.4-0.1,0.8-0.1,1.1-0.1c0.4,0,0.7,0,1.1,0.1c0.3,0.1,0.7,0.2,1,0.3
				c0.3,0.1,0.5,0.3,0.8,0.4c0.2,0.1,0.4,0.3,0.6,0.4c0.2,0.1,0.3,0.3,0.4,0.4c0.2,0.2,0.3,0.3,0.3,0.3s-0.2,0-0.5,0
				c-0.3,0-0.7-0.1-1.2-0.1c-0.2,0-0.5,0-0.8,0c-0.3,0-0.5,0-0.8,0c-0.3,0-0.6,0.1-0.8,0.1c-0.3,0-0.5,0.1-0.8,0.1
				c-0.3,0.1-0.5,0.1-0.8,0.2c-0.1,0-0.3,0.1-0.4,0.1c-0.1,0.1-0.2,0.1-0.4,0.2c-0.2,0.1-0.5,0.2-0.7,0.4c-0.2,0.1-0.4,0.3-0.6,0.4
				c-0.4,0.3-0.7,0.5-0.9,0.7C63,46.4,62.9,46.5,62.9,46.5z"/>
			<path class="st1" d="M97.9,43.8c0,0,0.1-0.2,0.3-0.4c0.2-0.3,0.5-0.6,0.9-0.9c0.2-0.2,0.5-0.3,0.8-0.5c0.3-0.1,0.6-0.3,1-0.3
				c0.4-0.1,0.7-0.1,1.1-0.1c0.4,0,0.8,0.1,1.1,0.1c0.4,0.1,0.7,0.2,1.1,0.4c0.3,0.2,0.7,0.4,0.9,0.6c0.3,0.2,0.5,0.4,0.7,0.7
				c0.2,0.2,0.4,0.5,0.5,0.7c0.2,0.2,0.3,0.4,0.4,0.6c0.1,0.2,0.2,0.4,0.2,0.5c0.1,0.3,0.2,0.5,0.2,0.5s-0.2-0.1-0.4-0.2
				c-0.3-0.1-0.6-0.4-1.1-0.6c-0.2-0.1-0.4-0.2-0.7-0.4c-0.2-0.1-0.5-0.2-0.7-0.4c-0.2-0.1-0.5-0.2-0.8-0.3
				c-0.3-0.1-0.5-0.2-0.8-0.2c-0.3,0-0.5-0.1-0.8-0.1c-0.1,0-0.3,0-0.4,0c-0.1,0-0.3,0-0.4,0c-0.3,0-0.5,0-0.8,0
				c-0.3,0-0.5,0-0.7,0.1c-0.5,0.1-0.9,0.2-1.2,0.2C98.1,43.8,97.9,43.8,97.9,43.8z"/>
			<path class="st6" d="M84,26.7c-2,1.6-1.5,7.4-1.5,9.7c0,2.9-2,6.4-1.4,10.3c0.6,3.9,8.8,6.5,8.5-2.6c0,0,1.6-2.1-0.3-6.1
				c0,0,0.5-3.1-1.5-6.1C87.8,31.9,85.8,25.2,84,26.7z"/>
		</g>
		<g>
			<g>
				<path class="st3" d="M107.8,98.1c0.1,3.4,0.1,8.5-0.3,14.2c-9.6-1.6-18-3.7-20.8-4.2c-12.3-1.8-26,1.7-34.5,3.2
					c-7.3,1.3-13.3,0.1-15.3-2c-0.3-0.3-0.5-0.7-0.6-1.1c-0.7-2.6,8.9-9.7,13.9-12c0.3-0.1,0.6-0.3,0.8-0.3c0.1,0,0.1-0.1,0.2-0.1
					c13.2-5,37.6-6.2,57.5-2.7c-1,1.1-1.4,2.6-1,4.1C107.6,97.5,107.7,97.8,107.8,98.1z"/>
				<path class="st7" d="M107.6,97.2c-0.4-1.5,0.1-3,1-4.1c-0.9-0.2-1.9-0.3-2.8-0.5c0,0.1,0,0.2,0.1,0.4c0.1,0.3,0.1,0.6,0.2,0.8
					c0.1,3.4,0.1,8.5-0.3,14.2c-9.6-1.6-18-3.7-20.8-4.2c-12.3-1.8-26,1.7-34.5,3.2c-5.8,1-10.7,0.5-13.5-0.8
					c-0.5,0.8-0.8,1.4-0.7,1.9c0.1,0.4,0.3,0.7,0.6,1.1c2,2.1,7.9,3.3,15.3,2c8.5-1.5,22.1-5,34.5-3.2c2.8,0.4,11.2,2.5,20.8,4.2
					c0.4-5.8,0.4-10.8,0.3-14.2C107.7,97.8,107.6,97.5,107.6,97.2z"/>
				<path class="st3" d="M139.5,111.8c-0.1,0.2-0.2,0.3-0.2,0.3c-4.1,2.1-10.4,2.5-17.3,2c-1-7.4-2.3-14.1-3.3-18.7
					c0.2,0.1,0.4,0.1,0.7,0.2c2.6,0.8,5.1,1.7,7.3,2.6C142.4,105.3,140.3,110.6,139.5,111.8z"/>
				<path class="st7" d="M123.3,109.8c-0.6-5-1.5-9.7-2.2-13.6c-0.5-0.2-1.1-0.4-1.7-0.5c-0.2-0.1-0.4-0.1-0.7-0.2
					c1,4.6,2.3,11.3,3.3,18.7c6.9,0.4,13.2,0,17.3-2c0,0,0.1-0.1,0.2-0.3c0.3-0.5,0.9-1.8,0.2-3.6
					C135.7,109.9,129.8,110.2,123.3,109.8z"/>
				<path class="st7" d="M111.7,118.7c-1.1,9.8-3.3,20.8-7.7,30c-0.3,0.6-1.1,0.9-1.7,0.6l-2-1c-0.6-0.3-0.8-1.1-0.6-1.7
					c5.1-10.5,7-23.6,7.7-34.2c0.4-5.8,0.4-10.8,0.3-14.2c0.9,3.8,2.1,9.1,3,14.8C111.1,114.7,111.4,116.7,111.7,118.7z"/>
				<path class="st3" d="M121.7,146.1c-0.4,1.7-2.2,2.6-3.9,2l-4.2-1.4c-1.5-0.5-2.3-2-2-3.5c1.6-6.5,1.1-15.7,0-24.6
					c-0.3-2-0.6-3.9-0.9-5.8c-1-5.7-2.1-10.9-3-14.8c-0.1-0.3-0.1-0.6-0.2-0.8c-0.4-1.5,0.1-3,1-4.1c0.6-0.7,1.4-1.1,2.3-1.4
					c0.8-0.2,1.5-0.4,2.4-0.5c2.4-0.5,4.8,1.1,5.3,3.5c0,0.2,0.1,0.5,0.2,0.8c1,4.6,2.3,11.3,3.3,18.7
					C123.4,124.9,124.1,137.1,121.7,146.1z"/>
				<g>
					<g>
						<g>
							<path class="st3" d="M120.3,150.7c-0.2,0-0.5-0.1-0.7-0.3c-0.2-0.2-0.3-0.4-0.3-0.7c0-0.3,0.1-0.5,0.3-0.7
								c0.3-0.3,1-0.3,1.3,0c0.2,0.2,0.3,0.4,0.3,0.7c0,0.2-0.1,0.5-0.3,0.7C120.8,150.5,120.6,150.7,120.3,150.7z"/>
						</g>
					</g>
					<g>
						<g>
							<path class="st3" d="M117,151.1L117,151.1L117,151.1c-0.5-0.1-0.9-0.5-0.8-1.1l0,0c0.1-0.5,0.5-0.9,1.1-0.8l0,0
								c0.5,0.1,0.9,0.5,0.8,1.1l0,0c-0.1,0.5-0.5,0.8-0.9,0.8l0,0C117.1,151.1,117.1,151.1,117,151.1z M113.7,149.9
								C113.7,149.9,113.7,149.9,113.7,149.9L113.7,149.9c-0.5-0.3-0.6-0.8-0.4-1.3l0,0c0.3-0.5,0.8-0.6,1.3-0.4l0,0
								c0.5,0.3,0.6,0.8,0.4,1.3l0,0c-0.2,0.3-0.5,0.5-0.8,0.5l0,0C114,150,113.9,150,113.7,149.9z"/>
						</g>
					</g>
					<g>
						<g>
							<path class="st3" d="M111.4,148.4c-0.2,0-0.5-0.1-0.7-0.3c-0.2-0.2-0.3-0.4-0.3-0.7c0-0.3,0.1-0.5,0.3-0.7
								c0.3-0.3,1-0.3,1.3,0c0.2,0.2,0.3,0.4,0.3,0.7c0,0.2-0.1,0.5-0.3,0.7C111.9,148.3,111.6,148.4,111.4,148.4z"/>
						</g>
					</g>
				</g>
				<g>
					<g>
						<g>
							<path class="st3" d="M102.5,152.8c-0.2,0-0.5-0.1-0.7-0.3c-0.2-0.2-0.3-0.4-0.3-0.7c0-0.3,0.1-0.5,0.3-0.7
								c0.4-0.3,1-0.3,1.3,0c0.2,0.2,0.3,0.4,0.3,0.7c0,0.2-0.1,0.5-0.3,0.7C103,152.7,102.7,152.8,102.5,152.8z"/>
						</g>
						<g>
							<path class="st3" d="M99.9,151.6L99.9,151.6L99.9,151.6c-0.5-0.2-0.7-0.8-0.4-1.3l0,0c0.2-0.5,0.8-0.7,1.3-0.4l0,0
								c0.5,0.2,0.7,0.8,0.4,1.3l0,0c-0.2,0.3-0.5,0.5-0.8,0.5l0,0C100.2,151.7,100,151.7,99.9,151.6z"/>
						</g>
						<g>
							<path class="st3" d="M98.2,150.7c-0.3,0-0.5-0.1-0.7-0.3c-0.2-0.2-0.3-0.4-0.3-0.7c0-0.3,0.1-0.5,0.3-0.7
								c0.3-0.3,1-0.3,1.3,0c0.2,0.2,0.3,0.4,0.3,0.7c0,0.2-0.1,0.5-0.3,0.7C98.6,150.5,98.4,150.7,98.2,150.7z"/>
						</g>
					</g>
				</g>
			</g>
		</g>
		<circle class="st8" cx="90.7" cy="118.3" r="3.9"/>
		<circle class="st8" cx="90.7" cy="134.4" r="3.9"/>
		<circle class="st8" cx="90.7" cy="151.4" r="3.9"/>
	</g>
</g>
<circle class="st3" cx="154.2" cy="33" r="3.6"/>
</svg>
