<?xml version="1.0" encoding="utf-8"?>
<!-- Generator: Adobe Illustrator 19.1.0, SVG Export Plug-In . SVG Version: 6.00 Build 0)  -->
<svg version="1.1" id="图层_1" xmlns="http://www.w3.org/2000/svg" xmlns:xlink="http://www.w3.org/1999/xlink" x="0px" y="0px"
	 viewBox="0 0 168.8 211.8" style="enable-background:new 0 0 168.8 211.8;" xml:space="preserve">
<style type="text/css">
	.st0{fill:#99C0C0;}
	.st1{fill:#50080F;}
	.st2{fill:#FFFFFF;stroke:#070001;stroke-miterlimit:10;}
	.st3{fill:#CD392E;}
	.st4{fill:#B02223;}
	.st5{fill:#E37632;}
	.st6{fill:#C32D28;}
	.st7{fill:#343434;}
</style>
<ellipse class="st0" cx="86.9" cy="204.8" rx="54.5" ry="7"/>
<g>
	<path class="st1" d="M131.3,110.5c2.6-1.6,9.8-6.5,11-9.1c1.4-3,4.6-8.7,6.7-10.6c0-4.3,0.2-9.5,1-10.6c0.8-1.2,5-6.1,5.2-6.3
		c0.4-0.5,1.1-0.5,1.6-0.1s0.5,1.1,0.1,1.6c0,0.1-4.3,5.1-5,6.1c-0.3,0.7-0.5,4.2-0.6,7.8c5.1-3.4,8-5.7,8.4-6.8
		c0-0.1,4.3-11,7.2-13.5c0.5-0.4,1.2-0.3,1.6,0.1c0.4,0.5,0.3,1.2-0.1,1.6c-1.9,1.6-5.4,9.6-6.5,12.6c-0.8,2.2-5.3,5.3-10,8.4
		c-0.4,0.3-0.7,0.5-1,0.6c-1.3,0.9-4.5,6.1-6.3,9.8c2.8,0.2,5.6,0.2,6.2,0c0.4-0.2,2.5-1.9,4.2-3.3c3-2.5,6.5-5.3,8.1-6.1
		c0.6-0.3,1.2,0,1.5,0.5c0.3,0.6,0,1.2-0.5,1.5c-1.4,0.7-5,3.7-7.7,5.8c-2.9,2.4-4.1,3.4-4.7,3.6c-0.6,0.3-1.9,0.3-3.4,0.3
		c-1.7,0-3.7-0.1-5.1-0.2c-3.1,3.6-9.7,7.7-10.6,8.3c-0.2,0.1-0.4,0.2-0.6,0.2c-0.4,0-0.7-0.2-1-0.5
		C130.6,111.5,130.8,110.8,131.3,110.5z"/>
	<path class="st1" d="M48.4,106.3c-3.1-1.2-11.6-5-13.5-7.7c-2.1-3-6.9-8.6-9.5-10.3c-1.1-4.8-2.5-10.5-3.7-11.6
		c-1.1-1.1-6.6-5.6-6.9-5.8c-0.5-0.4-1.3-0.3-1.6,0.2c-0.4,0.6-0.2,1.4,0.3,1.8c0.1,0,5.6,4.7,6.7,5.7c0.5,0.7,1.6,4.6,2.5,8.5
		c-6.1-2.6-9.5-4.5-10.3-5.7C12.3,81.3,5.3,70.1,1.7,68c-0.6-0.3-1.3-0.1-1.6,0.5s0,1.4,0.5,1.7c2.3,1.4,7.9,9.5,9.8,12.5
		c1.4,2.2,6.7,4.7,12.3,7.1c0.5,0.2,0.9,0.4,1.1,0.5c1.6,0.7,6.2,5.8,8.9,9.5c-2.8,0.8-5.7,1.5-6.3,1.4c-0.5-0.1-3.1-1.6-5.1-2.7
		c-3.7-2.1-7.9-4.5-9.8-5c-0.6-0.2-1.2,0.2-1.4,0.9C10,95.1,10.4,95.8,11,96c1.6,0.4,6,2.9,9.3,4.8c3.5,2,5,2.8,5.7,3
		c0.7,0.2,2-0.1,3.6-0.4c1.8-0.4,3.8-1,5.1-1.4c4,3.3,11.9,6.4,12.9,6.8c0.2,0.1,0.4,0.1,0.6,0.1c0.4-0.1,0.7-0.4,0.8-0.8
		C49.4,107.3,49.1,106.5,48.4,106.3z"/>
	<g>
		<path class="st2" d="M129.2,72.8c0,8.8-4.1,16.9-10.9,23.1c-20.9-5.9-51.7-5.4-67.1,0.5c-0.1,0-0.1,0-0.2,0.1
			c-7.2-6.3-11.6-14.6-11.6-23.7c0-19.6,20.1-35.4,44.9-35.4C109.2,37.4,129.2,53.3,129.2,72.8z"/>
		<path class="st2" d="M139.6,112.5c-0.1,0.2-0.2,0.3-0.2,0.3c-12.5,6.3-46.5-3-52.7-3.9c-12.3-1.8-26,1.7-34.4,3.2
			c-7.3,1.3-13.3,0.1-15.3-2c-2.7,2.6-4.9,5.5-6.6,8.8c-10.3,20-25,85.8,55.8,85.7c0,0,61,2.7,65.2-50.7
			C152.7,135.6,147.7,122.1,139.6,112.5z"/>
		<g>
			<path class="st3" d="M131.7,49.3c0.6-5.4-9-24.2-8.7-26.5c0.2-0.6-0.2-2.4-1.6-4.6l0,0l0,0l0,0c0-0.1,31.9,14.8,32,14.7
				c8.4-9.5-28-37.8-70.8-32.2c-20.5,2.8-37,12.9-36.2,20.5c0.1,0.7-1.7,4.9-1.4,5.5l2-3.5c-3.4,3.6-14.1,24.9-13.4,29.2
				c9.5-6.2,37.3-30,50.8-30C97.8,22.4,122.2,43.2,131.7,49.3z"/>
			<path class="st3" d="M119.6,32.3c-8.2-6.6-16.2-12.3-36.2-12.8C65.6,19,49,32.4,49,32.4c9.5-6.2,21.9-10,35.4-10
				C97.8,22.4,110.1,26.1,119.6,32.3z"/>
			<path class="st3" d="M139,64.3c0,12.9-7.6,24.4-19.5,32.1c-0.4-0.1-0.7-0.2-1.1-0.3c6.8-6.2,10.9-14.3,10.9-23.1
				c0-10.2-5.5-19.4-14.2-25.8c-8-6-18.8-9.6-30.7-9.6c-13.3,0-25.2,4.5-33.4,11.8C43.9,55.7,39.5,64,39.5,73.1s4.4,17.4,11.6,23.7
				c-0.2,0.1-0.5,0.2-0.8,0.3c-12.5-7.7-20.5-19.5-20.5-32.7c0-12.8,7.5-24.2,19.2-31.9c9.5-6.2,21.9-10,35.4-10
				c13.4,0,25.7,3.7,35.2,9.9C131.5,40,139,51.4,139,64.3z"/>
		</g>
		<g>
			<g>
				<path class="st4" d="M72.2,80.6c0,0,3.1-7.7,23.7-0.6c0,0,1.6-8.8-2.5-12.6c0,0-11.9,6.1-18.6-1.5
					C69.9,71.2,72.2,80.6,72.2,80.6z"/>
				<path class="st4" d="M93.3,67.6c-3.3-3.2-7.3-6.2-12.7-5c-2.6,0.6-4.4,2-5.8,3.5C81.5,73.6,93.3,67.6,93.3,67.6z"/>
				<path class="st3" d="M73.9,72.3c3.4,3,7.6,5.9,12.9,4.4c2.6-0.7,4.3-2.2,5.7-3.7C85.4,65.7,73.9,72.3,73.9,72.3z"/>
			</g>
			<path class="st1" d="M71.3,51.9c0,0-0.1,0.2-0.2,0.4c-0.2,0.2-0.6,0.6-1,0.8c-0.2,0.1-0.5,0.3-0.8,0.4c-0.3,0.1-0.6,0.2-0.9,0.3
				c-0.4,0-0.7,0.1-1.1,0.1c-0.4,0-0.8-0.1-1.2-0.2c-0.4-0.1-0.8-0.3-1-0.4c-0.4-0.2-0.6-0.3-0.9-0.6c-0.2-0.2-0.5-0.5-0.7-0.7
				s-0.3-0.5-0.5-0.7c-0.1-0.2-0.2-0.5-0.3-0.6s-0.1-0.4-0.2-0.5c-0.1-0.3-0.1-0.4-0.1-0.4s0.2,0.1,0.4,0.2c0.3,0.1,0.6,0.4,1,0.7
				c0.2,0.1,0.4,0.2,0.7,0.4s0.4,0.2,0.7,0.4c0.3,0.1,0.6,0.2,0.8,0.3c0.3,0.1,0.5,0.1,0.8,0.3c0.3,0.1,0.5,0.1,0.8,0.2
				c0.1,0,0.3,0.1,0.4,0.1c0.1,0,0.2,0,0.4,0s0.5,0.1,0.8,0c0.2,0,0.5-0.1,0.7-0.1c0.5-0.1,0.9-0.1,1.1-0.2
				C71.2,51.9,71.3,51.9,71.3,51.9z"/>
			<path class="st1" d="M108.2,49.3c0,0,0,0.2-0.1,0.5c-0.1,0.4-0.2,0.7-0.5,1.2c-0.1,0.3-0.4,0.5-0.6,0.8c-0.2,0.2-0.4,0.5-0.8,0.6
				c-0.3,0.2-0.6,0.3-1,0.5s-0.8,0.2-1.1,0.3c-0.4,0.1-0.7,0.1-1.2,0c-0.4-0.1-0.8-0.1-1.1-0.2c-0.4-0.1-0.6-0.2-0.9-0.4
				c-0.3-0.1-0.6-0.3-0.7-0.5c-0.3-0.1-0.4-0.3-0.6-0.4c-0.2-0.1-0.3-0.3-0.4-0.4C99.1,51,99,50.8,99,50.8s0.2,0,0.4,0
				c0.3,0,0.7,0.2,1.2,0.2c0.2,0,0.4,0,0.8,0.1c0.2,0,0.5,0,0.8,0.1c0.2,0,0.5,0,0.9,0c0.3,0,0.5,0,0.8-0.1c0.3-0.1,0.5-0.1,0.8-0.2
				c0.1,0,0.3-0.1,0.4-0.1c0.1,0,0.3-0.1,0.4-0.1c0.3-0.1,0.5-0.2,0.7-0.3c0.3-0.1,0.5-0.2,0.6-0.3c0.4-0.3,0.8-0.5,1-0.6
				C108.1,49.3,108.2,49.3,108.2,49.3z"/>
			<path class="st5" d="M84.1,27.4c-2,1.6-1.5,7.4-1.5,9.7c0,2.9-2,6.4-1.4,10.3s8.8,6.5,8.5-2.6c0,0,1.6-2.1-0.3-6.1
				c0,0,0.5-3.1-1.5-6.1C87.9,32.6,85.9,25.9,84.1,27.4z"/>
		</g>
		<g>
			<g>
				<path class="st3" d="M107.9,98.8c0.1,3.4,0.1,8.5-0.3,14.2c-9.6-1.6-18-3.7-20.8-4.2c-12.3-1.8-26,1.7-34.5,3.2
					c-7.3,1.3-13.3,0.1-15.3-2c-0.3-0.3-0.5-0.7-0.6-1.1c-0.7-2.6,8.9-9.7,13.9-12c0.3-0.1,0.6-0.3,0.8-0.3c0.1,0,0.1-0.1,0.2-0.1
					c13.2-5,37.6-6.2,57.5-2.7c-1,1.1-1.4,2.6-1,4.1C107.7,98.2,107.8,98.5,107.9,98.8z"/>
				<path class="st6" d="M107.7,97.9c-0.4-1.5,0.1-3,1-4.1c-0.9-0.2-1.9-0.3-2.8-0.5c0,0.1,0,0.2,0.1,0.4c0.1,0.3,0.1,0.6,0.2,0.8
					c0.1,3.4,0.1,8.5-0.3,14.2c-9.6-1.6-18-3.7-20.8-4.2c-12.3-1.8-26,1.7-34.5,3.2c-5.8,1-10.7,0.5-13.5-0.8
					c-0.5,0.8-0.8,1.4-0.7,1.9c0.1,0.4,0.3,0.7,0.6,1.1c2,2.1,7.9,3.3,15.3,2c8.5-1.5,22.1-5,34.5-3.2c2.8,0.4,11.2,2.5,20.8,4.2
					c0.4-5.8,0.4-10.8,0.3-14.2C107.8,98.5,107.7,98.2,107.7,97.9z"/>
				<path class="st3" d="M139.6,112.5c-0.1,0.2-0.2,0.3-0.2,0.3c-4.1,2.1-10.4,2.5-17.3,2c-1-7.4-2.3-14.1-3.3-18.7
					c0.2,0.1,0.4,0.1,0.7,0.2c2.6,0.8,5.1,1.7,7.3,2.6C142.5,106,140.4,111.3,139.6,112.5z"/>
				<path class="st6" d="M123.4,110.5c-0.6-5-1.5-9.7-2.2-13.6c-0.5-0.2-1.1-0.4-1.7-0.5c-0.2-0.1-0.4-0.1-0.7-0.2
					c1,4.6,2.3,11.3,3.3,18.7c6.9,0.4,13.2,0,17.3-2c0,0,0.1-0.1,0.2-0.3c0.3-0.5,0.9-1.8,0.2-3.6
					C135.8,110.6,129.9,110.9,123.4,110.5z"/>
				<path class="st6" d="M111.8,119.4c-1.1,9.8-3.3,20.8-7.7,30c-0.3,0.6-1.1,0.9-1.7,0.6l-2-1c-0.6-0.3-0.8-1.1-0.6-1.7
					c5.1-10.5,7-23.6,7.7-34.2c0.4-5.8,0.4-10.8,0.3-14.2c0.9,3.8,2.1,9.1,3,14.8C111.2,115.4,111.5,117.4,111.8,119.4z"/>
				<path class="st3" d="M121.8,146.8c-0.4,1.7-2.2,2.6-3.9,2l-4.2-1.4c-1.5-0.5-2.3-2-2-3.5c1.6-6.5,1.1-15.7,0-24.6
					c-0.3-2-0.6-3.9-0.9-5.8c-1-5.7-2.1-10.9-3-14.8c-0.1-0.3-0.1-0.6-0.2-0.8c-0.4-1.5,0.1-3,1-4.1c0.6-0.7,1.4-1.1,2.3-1.4
					c0.8-0.2,1.5-0.4,2.4-0.5c2.4-0.5,4.8,1.1,5.3,3.5c0,0.2,0.1,0.5,0.2,0.8c1,4.6,2.3,11.3,3.3,18.7
					C123.5,125.6,124.2,137.8,121.8,146.8z"/>
				<g>
					<g>
						<g>
							<path class="st3" d="M120.4,151.4c-0.2,0-0.5-0.1-0.7-0.3s-0.3-0.4-0.3-0.7s0.1-0.5,0.3-0.7c0.3-0.3,1-0.3,1.3,0
								c0.2,0.2,0.3,0.4,0.3,0.7c0,0.2-0.1,0.5-0.3,0.7C120.9,151.2,120.7,151.4,120.4,151.4z"/>
						</g>
					</g>
					<g>
						<g>
							<path class="st3" d="M117.1,151.8L117.1,151.8L117.1,151.8c-0.5-0.1-0.9-0.5-0.8-1.1l0,0c0.1-0.5,0.5-0.9,1.1-0.8l0,0
								c0.5,0.1,0.9,0.5,0.8,1.1l0,0c-0.1,0.5-0.5,0.8-0.9,0.8l0,0C117.2,151.8,117.2,151.8,117.1,151.8z M113.8,150.6L113.8,150.6
								L113.8,150.6c-0.5-0.3-0.6-0.8-0.4-1.3l0,0c0.3-0.5,0.8-0.6,1.3-0.4l0,0c0.5,0.3,0.6,0.8,0.4,1.3l0,0
								c-0.2,0.3-0.5,0.5-0.8,0.5l0,0C114.1,150.7,114,150.7,113.8,150.6z"/>
						</g>
					</g>
					<g>
						<g>
							<path class="st3" d="M111.5,149.1c-0.2,0-0.5-0.1-0.7-0.3s-0.3-0.4-0.3-0.7s0.1-0.5,0.3-0.7c0.3-0.3,1-0.3,1.3,0
								c0.2,0.2,0.3,0.4,0.3,0.7c0,0.2-0.1,0.5-0.3,0.7C112,149,111.7,149.1,111.5,149.1z"/>
						</g>
					</g>
				</g>
				<g>
					<g>
						<g>
							<path class="st3" d="M102.6,153.5c-0.2,0-0.5-0.1-0.7-0.3s-0.3-0.4-0.3-0.7s0.1-0.5,0.3-0.7c0.4-0.3,1-0.3,1.3,0
								c0.2,0.2,0.3,0.4,0.3,0.7c0,0.2-0.1,0.5-0.3,0.7C103.1,153.4,102.8,153.5,102.6,153.5z"/>
						</g>
						<g>
							<path class="st3" d="M100,152.3L100,152.3L100,152.3c-0.5-0.2-0.7-0.8-0.4-1.3l0,0c0.2-0.5,0.8-0.7,1.3-0.4l0,0
								c0.5,0.2,0.7,0.8,0.4,1.3l0,0c-0.2,0.3-0.5,0.5-0.8,0.5l0,0C100.3,152.4,100.1,152.4,100,152.3z"/>
						</g>
						<g>
							<path class="st3" d="M98.3,151.4c-0.3,0-0.5-0.1-0.7-0.3s-0.3-0.4-0.3-0.7s0.1-0.5,0.3-0.7c0.3-0.3,1-0.3,1.3,0
								c0.2,0.2,0.3,0.4,0.3,0.7c0,0.2-0.1,0.5-0.3,0.7C98.7,151.2,98.5,151.4,98.3,151.4z"/>
						</g>
					</g>
				</g>
			</g>
		</g>
		<circle class="st7" cx="90.8" cy="119" r="3.9"/>
		<circle class="st7" cx="90.8" cy="135.1" r="3.9"/>
		<circle class="st7" cx="90.8" cy="152.1" r="3.9"/>
	</g>
</g>
<circle class="st3" cx="154.3" cy="33.7" r="3.6"/>
</svg>
