<?xml version="1.0" encoding="utf-8"?>
<!-- Generator: Adobe Illustrator 19.1.0, SVG Export Plug-In . SVG Version: 6.00 Build 0)  -->
<svg version="1.1" id="图层_1" xmlns="http://www.w3.org/2000/svg" xmlns:xlink="http://www.w3.org/1999/xlink" x="0px" y="0px"
	 viewBox="-311 201.2 168.8 211.8" style="enable-background:new -311 201.2 168.8 211.8;" xml:space="preserve">
<style type="text/css">
	.st0{fill:#540606;}
	.st1{fill:#99C0C0;}
	.st2{fill:#FFFFFF;stroke:#070001;stroke-miterlimit:10;}
	.st3{fill:#CD392E;}
	.st4{fill:#E37632;}
	.st5{fill:#C32D28;}
	.st6{fill:#343434;}
	.st7{fill:#52090E;}
	.st8{fill:#D9372D;}
	.st9{fill:#E6332B;}
	.st10{fill:#FFFFFF;stroke:#000000;stroke-width:0.5;stroke-miterlimit:10;}
</style>
<g>
	<path class="st0" d="M-152.2,346.3c-0.1,0-0.1,0-0.2,0c-1.4-0.1-2.5-1.3-2.4-2.8c0.6-7.6-1.1-13.5-4.8-17.5
		c-5.4-5.8-13.4-5.9-13.5-5.9c-1.4,0-2.6-1.2-2.6-2.6c0-1.4,1.2-2.6,2.6-2.6c0.4,0,10.4,0.1,17.3,7.5c4.7,5.1,6.8,12.3,6.2,21.4
		C-149.7,345.2-150.9,346.3-152.2,346.3z"/>
</g>
<g>
	<path class="st0" d="M-298,347.8c-1.3,0-2.5-1-2.6-2.4c-1.8-24.8,22.5-28.8,22.8-28.8c1.4-0.2,2.7,0.8,2.9,2.2
		c0.2,1.4-0.8,2.7-2.2,2.9c-0.8,0.1-19.9,3.3-18.4,23.4c0.1,1.4-1,2.7-2.4,2.8C-297.9,347.8-297.9,347.8-298,347.8z"/>
</g>
<ellipse class="st1" cx="-224.1" cy="406" rx="54.5" ry="7"/>
<g>
	<g>
		<path class="st2" d="M-181.8,274c0,8.8-4.1,16.9-10.9,23.1c-20.9-5.9-51.7-5.4-67.1,0.5c-0.1,0-0.1,0-0.2,0.1
			c-7.2-6.3-11.6-14.6-11.6-23.7c0-19.6,20.1-35.4,44.9-35.4C-201.8,238.6-181.8,254.5-181.8,274z"/>
		<path class="st2" d="M-171.4,313.7c-0.1,0.2-0.2,0.3-0.2,0.3c-12.5,6.3-46.5-3-52.7-3.9c-12.3-1.8-26,1.7-34.4,3.2
			c-7.3,1.3-13.3,0.1-15.3-2c-2.7,2.6-4.9,5.5-6.6,8.8c-10.3,20-25,85.8,55.8,85.7c0,0,61,2.7,65.2-50.7
			C-158.3,336.8-163.3,323.3-171.4,313.7z"/>
		<g>
			<path class="st3" d="M-179.3,250.5c0.6-5.4-9-24.2-8.7-26.5c0.2-0.6-0.2-2.4-1.6-4.6l0,0l0,0l0,0c0-0.1,31.9,14.8,32,14.7
				c8.4-9.5-28-37.8-70.8-32.2c-20.5,2.8-37,12.9-36.2,20.5c0.1,0.7-1.7,4.9-1.4,5.5l2-3.5c-3.4,3.6-14.1,24.9-13.4,29.2
				c9.5-6.2,37.3-30,50.8-30C-213.2,223.6-188.8,244.4-179.3,250.5z"/>
			<path class="st3" d="M-191.4,233.5c-8.2-6.6-16.2-12.3-36.2-12.8c-17.8-0.5-34.4,12.9-34.4,12.9c9.5-6.2,21.9-10,35.4-10
				C-213.2,223.6-200.9,227.3-191.4,233.5z"/>
			<path class="st3" d="M-172,265.5c0,12.9-7.6,24.4-19.5,32.1c-0.4-0.1-0.7-0.2-1.1-0.3c6.8-6.2,10.9-14.3,10.9-23.1
				c0-10.2-5.5-19.4-14.2-25.8c-8-6-18.8-9.6-30.7-9.6c-13.3,0-25.2,4.5-33.4,11.8c-7.1,6.3-11.5,14.6-11.5,23.7
				c0,9.1,4.4,17.4,11.6,23.7c-0.2,0.1-0.5,0.2-0.8,0.3c-12.5-7.7-20.5-19.5-20.5-32.7c0-12.8,7.5-24.2,19.2-31.9
				c9.5-6.2,21.9-10,35.4-10c13.4,0,25.7,3.7,35.2,9.9C-179.5,241.2-172,252.6-172,265.5z"/>
		</g>
		<g>
			<path class="st4" d="M-210.5,275.3c-0.6-2.5-6.1-4.5-8.2-5.4c-2.6-1.2-5-4.5-8.8-5.6c-3.8-1.1-9.6,5.2-1.2,8.8
				c0,0,1.2,2.3,5.7,2.3c0,0,2.6,1.8,6.2,1.2C-216.8,276.6-209.9,277.6-210.5,275.3z"/>
		</g>
		<g>
			<g>
				<path class="st3" d="M-203.1,300c0.1,3.4,0.1,8.5-0.3,14.2c-9.6-1.6-18-3.7-20.8-4.2c-12.3-1.8-26,1.7-34.5,3.2
					c-7.3,1.3-13.3,0.1-15.3-2c-0.3-0.3-0.5-0.7-0.6-1.1c-0.7-2.6,8.9-9.7,13.9-12c0.3-0.1,0.6-0.3,0.8-0.3c0.1,0,0.1-0.1,0.2-0.1
					c13.2-5,37.6-6.2,57.5-2.7c-1,1.1-1.4,2.6-1,4.1C-203.3,299.4-203.2,299.7-203.1,300z"/>
				<path class="st5" d="M-203.3,299.1c-0.4-1.5,0.1-3,1-4.1c-0.9-0.2-1.9-0.3-2.8-0.5c0,0.1,0,0.2,0.1,0.4c0.1,0.3,0.1,0.6,0.2,0.8
					c0.1,3.4,0.1,8.5-0.3,14.2c-9.6-1.6-18-3.7-20.8-4.2c-12.3-1.8-26,1.7-34.5,3.2c-5.8,1-10.7,0.5-13.5-0.8
					c-0.5,0.8-0.8,1.4-0.7,1.9c0.1,0.4,0.3,0.7,0.6,1.1c2,2.1,7.9,3.3,15.3,2c8.5-1.5,22.1-5,34.5-3.2c2.8,0.4,11.2,2.5,20.8,4.2
					c0.4-5.8,0.4-10.8,0.3-14.2C-203.2,299.7-203.3,299.4-203.3,299.1z"/>
				<path class="st3" d="M-171.4,313.7c-0.1,0.2-0.2,0.3-0.2,0.3c-4.1,2.1-10.4,2.5-17.3,2c-1-7.4-2.3-14.1-3.3-18.7
					c0.2,0.1,0.4,0.1,0.7,0.2c2.6,0.8,5.1,1.7,7.3,2.6C-168.5,307.2-170.6,312.5-171.4,313.7z"/>
				<path class="st5" d="M-187.6,311.7c-0.6-5-1.5-9.7-2.2-13.6c-0.5-0.2-1.1-0.4-1.7-0.5c-0.2-0.1-0.4-0.1-0.7-0.2
					c1,4.6,2.3,11.3,3.3,18.7c6.9,0.4,13.2,0,17.3-2c0,0,0.1-0.1,0.2-0.3c0.3-0.5,0.9-1.8,0.2-3.6
					C-175.2,311.8-181.1,312.1-187.6,311.7z"/>
				<path class="st5" d="M-199.2,320.6c-1.1,9.8-3.3,20.8-7.7,30c-0.3,0.6-1.1,0.9-1.7,0.6l-2-1c-0.6-0.3-0.8-1.1-0.6-1.7
					c5.1-10.5,7-23.6,7.7-34.2c0.4-5.8,0.4-10.8,0.3-14.2c0.9,3.8,2.1,9.1,3,14.8C-199.8,316.6-199.5,318.6-199.2,320.6z"/>
				<path class="st3" d="M-189.2,348c-0.4,1.7-2.2,2.6-3.9,2l-4.2-1.4c-1.5-0.5-2.3-2-2-3.5c1.6-6.5,1.1-15.7,0-24.6
					c-0.3-2-0.6-3.9-0.9-5.8c-1-5.7-2.1-10.9-3-14.8c-0.1-0.3-0.1-0.6-0.2-0.8c-0.4-1.5,0.1-3,1-4.1c0.6-0.7,1.4-1.1,2.3-1.4
					c0.8-0.2,1.5-0.4,2.4-0.5c2.4-0.5,4.8,1.1,5.3,3.5c0,0.2,0.1,0.5,0.2,0.8c1,4.6,2.3,11.3,3.3,18.7
					C-187.5,326.8-186.8,339-189.2,348z"/>
				<g>
					<g>
						<g>
							<path class="st3" d="M-190.6,352.6c-0.2,0-0.5-0.1-0.7-0.3c-0.2-0.2-0.3-0.4-0.3-0.7c0-0.3,0.1-0.5,0.3-0.7
								c0.3-0.3,1-0.3,1.3,0c0.2,0.2,0.3,0.4,0.3,0.7c0,0.2-0.1,0.5-0.3,0.7C-190.1,352.4-190.3,352.6-190.6,352.6z"/>
						</g>
					</g>
					<g>
						<g>
							<path class="st3" d="M-193.9,353L-193.9,353L-193.9,353c-0.5-0.1-0.9-0.5-0.8-1.1l0,0c0.1-0.5,0.5-0.9,1.1-0.8l0,0
								c0.5,0.1,0.9,0.5,0.8,1.1l0,0c-0.1,0.5-0.5,0.8-0.9,0.8l0,0C-193.8,353-193.8,353-193.9,353z M-197.2,351.8L-197.2,351.8
								L-197.2,351.8c-0.5-0.3-0.6-0.8-0.4-1.3l0,0c0.3-0.5,0.8-0.6,1.3-0.4l0,0c0.5,0.3,0.6,0.8,0.4,1.3l0,0
								c-0.2,0.3-0.5,0.5-0.8,0.5l0,0C-196.9,351.9-197,351.9-197.2,351.8z"/>
						</g>
					</g>
					<g>
						<g>
							<path class="st3" d="M-199.5,350.3c-0.2,0-0.5-0.1-0.7-0.3s-0.3-0.4-0.3-0.7c0-0.3,0.1-0.5,0.3-0.7c0.3-0.3,1-0.3,1.3,0
								c0.2,0.2,0.3,0.4,0.3,0.7c0,0.2-0.1,0.5-0.3,0.7C-199,350.2-199.3,350.3-199.5,350.3z"/>
						</g>
					</g>
				</g>
				<g>
					<g>
						<g>
							<path class="st3" d="M-208.4,354.7c-0.2,0-0.5-0.1-0.7-0.3c-0.2-0.2-0.3-0.4-0.3-0.7c0-0.3,0.1-0.5,0.3-0.7
								c0.4-0.3,1-0.3,1.3,0c0.2,0.2,0.3,0.4,0.3,0.7c0,0.2-0.1,0.5-0.3,0.7C-207.9,354.6-208.2,354.7-208.4,354.7z"/>
						</g>
						<g>
							<path class="st3" d="M-211,353.5L-211,353.5L-211,353.5c-0.5-0.2-0.7-0.8-0.4-1.3l0,0c0.2-0.5,0.8-0.7,1.3-0.4l0,0
								c0.5,0.2,0.7,0.8,0.4,1.3l0,0c-0.2,0.3-0.5,0.5-0.8,0.5l0,0C-210.7,353.6-210.9,353.6-211,353.5z"/>
						</g>
						<g>
							<path class="st3" d="M-212.7,352.6c-0.3,0-0.5-0.1-0.7-0.3s-0.3-0.4-0.3-0.7c0-0.3,0.1-0.5,0.3-0.7c0.3-0.3,1-0.3,1.3,0
								c0.2,0.2,0.3,0.4,0.3,0.7c0,0.2-0.1,0.5-0.3,0.7C-212.3,352.4-212.5,352.6-212.7,352.6z"/>
						</g>
					</g>
				</g>
			</g>
		</g>
		<circle class="st6" cx="-220.2" cy="320.2" r="3.9"/>
		<circle class="st6" cx="-220.2" cy="336.3" r="3.9"/>
		<circle class="st6" cx="-220.2" cy="353.3" r="3.9"/>
	</g>
</g>
<circle class="st3" cx="-156.7" cy="234.9" r="3.6"/>
<circle class="st7" cx="-243" cy="260.3" r="3.3"/>
<circle class="st7" cx="-211.9" cy="259.9" r="3.3"/>
<g>
	<g>
		<path class="st8" d="M-209.1,280.2c0,0,0,0.1-0.2,0.4c-0.1,0.2-0.3,0.6-0.6,1c-0.3,0.4-0.6,0.9-1,1.4s-0.9,1.1-1.6,1.6
			c-0.3,0.3-0.6,0.6-1,0.9c-0.4,0.3-0.8,0.5-1.2,0.8c-0.4,0.3-0.9,0.5-1.3,0.8c-0.5,0.3-0.9,0.5-1.4,0.7c-0.5,0.2-1,0.4-1.6,0.6
			c-0.5,0.2-1.1,0.3-1.7,0.4c-1.1,0.3-2.3,0.3-3.5,0.4c-1.2,0-2.3-0.2-3.5-0.3c-0.6-0.1-1.1-0.3-1.6-0.4c-0.5-0.2-1.1-0.3-1.6-0.5
			c-1-0.4-1.9-0.9-2.8-1.3c-0.8-0.5-1.6-1-2.2-1.5c-0.3-0.2-0.7-0.5-0.9-0.7c-0.3-0.2-0.5-0.5-0.8-0.8c-0.5-0.5-0.9-0.9-1.2-1.3
			c-0.3-0.3-0.5-0.7-0.7-0.9s-0.2-0.3-0.2-0.3l0.2-0.2c0,0,0.4,0.3,1.2,0.8c0.4,0.2,0.9,0.5,1.4,0.9c0.3,0.2,0.5,0.4,0.9,0.5
			c0.3,0.2,0.7,0.3,1,0.5c0.7,0.3,1.4,0.7,2.3,1.1c0.8,0.3,1.7,0.6,2.6,0.9c0.9,0.2,1.9,0.4,2.9,0.6c1,0.1,2,0.2,3.1,0.2
			c1-0.1,2.1,0,3.1-0.2c0.5-0.1,1-0.2,1.5-0.3s0.9-0.3,1.4-0.4c0.5-0.1,0.9-0.3,1.3-0.5c0.4-0.2,0.9-0.3,1.3-0.5
			c0.8-0.4,1.5-0.8,2.2-1.2c0.7-0.4,1.2-0.8,1.8-1.2c0.5-0.4,0.9-0.7,1.3-1C-209.5,280.6-209.2,280.2-209.1,280.2L-209.1,280.2z"/>
	</g>
</g>
<path class="st9" d="M-153.1,357.5c-5,3.7-8-0.1-8-0.1c-4.6,2.1-5.6-4.6-5.6-4.6c-1.9-0.9-2.6-2-2.8-3.2l-0.2,0.1
	c-0.4-0.1-7.6,0-9.1,2.2c-1.5,2.1,0.1,6.4,5.7,6.8c0,0-13.3,20.2,6,24.4c0,0,15.5,3.2,21.2-20c0,0,0.1-0.9-0.3-2.4
	C-149.9,361.1-153.1,357.5-153.1,357.5z"/>
<path class="st10" d="M-149.4,342.3c-1-0.2-8.3-3.9-15.3-0.2c0,0-9.5,7.3-2.1,10.7c0,0,1,6.7,5.6,4.6c0,0,3,3.7,8,0.1
	c0,0,5.6,6.2,10.5,1.3C-142.6,358.8-139.6,344.2-149.4,342.3z"/>
<path class="st9" d="M-297.1,359c5,3.7,8-0.1,8-0.1c4.6,2.1,5.6-4.6,5.6-4.6c1.9-0.9,2.6-2,2.8-3.2l0.2,0.1c0.4-0.1,7.6,0,9.1,2.2
	c1.5,2.1-0.1,6.4-5.7,6.8c0,0,13.3,20.2-6,24.4c0,0-15.5,3.2-21.2-20c0,0-0.1-0.9,0.3-2.4C-300.3,362.6-297.1,359-297.1,359z"/>
<path class="st10" d="M-300.8,343.9c1-0.2,9.2-2.9,15.3-0.2c0,0,9.5,7.3,2.1,10.7c0,0-1,6.7-5.6,4.6c0,0-3,3.7-8,0.1
	c0,0-5.6,6.2-10.5,1.3C-307.6,360.3-310.6,345.7-300.8,343.9z"/>
</svg>
