<?xml version="1.0" encoding="utf-8"?>
<!-- Generator: Adobe Illustrator 19.1.0, SVG Export Plug-In . SVG Version: 6.00 Build 0)  -->
<svg version="1.1" id="图层_1" xmlns="http://www.w3.org/2000/svg" xmlns:xlink="http://www.w3.org/1999/xlink" x="0px" y="0px"
	 viewBox="-362 273.9 66.4 66.1" style="enable-background:new -362 273.9 66.4 66.1;" xml:space="preserve">
<style type="text/css">
	.st0{fill:#00A0D9;}
</style>
<path class="st0" d="M-329.9,323.8c-0.1-0.2-0.2-0.3-0.3-0.4l7.7-31.8c0.2-0.1,0.3-0.1,0.5-0.2l12.3-7.5c1.2-0.7,1.6-2.3,0.8-3.5
	c-0.7-1.2-2.3-1.6-3.5-0.8l-8.5,5.2l1.9-7.4c0.3-1.4-0.5-2.7-1.9-3s-2.7,0.5-3,1.9l-1.8,7.4l-5.2-8.5c-0.7-1.2-2.3-1.6-3.5-0.8
	c-1.2,0.7-1.6,2.3-0.8,3.5l7.5,12.3c0.1,0.1,0.2,0.3,0.3,0.4l-7.7,31.8c-0.2,0.1-0.3,0.1-0.5,0.2l-12.3,7.5
	c-1.2,0.7-1.6,2.3-0.8,3.5c0.7,1.2,2.3,1.6,3.5,0.8l8.5-5.2l-1.8,7.3c-0.3,1.4,0.5,2.7,1.9,3c1.4,0.3,2.7-0.5,3-1.9l1.8-7.3l5.2,8.5
	c0.7,1.2,2.3,1.6,3.5,0.8c1.2-0.7,1.6-2.3,0.8-3.5L-329.9,323.8z"/>
<path class="st0" d="M-314.8,316.5c-0.2,0-0.4,0-0.5,0.1l-23.4-22.9c0-0.2,0.1-0.3,0-0.5l-0.1-14.4c0-1.4-1.2-2.5-2.6-2.5
	s-2.5,1.2-2.5,2.6l0.1,9.9l-5.4-5.3c-1-1-2.6-1-3.6,0s-1,2.6,0,3.6l5.4,5.3l-9.9,0.1c-1.4,0-2.5,1.2-2.5,2.6c0,1.4,1.2,2.5,2.6,2.5
	l14.4-0.2c0.2,0,0.3,0,0.5-0.1l23.4,22.8c0,0.2,0,0.3,0,0.5l0.2,14.4c0,1.4,1.2,2.5,2.6,2.5s2.5-1.2,2.5-2.6l-0.1-9.9l5.4,5.3
	c1,1,2.6,1,3.6,0s1-2.6,0-3.6l-5.4-5.3l9.9-0.1c1.4,0,2.5-1.2,2.5-2.6c0-1.4-1.2-2.5-2.6-2.5L-314.8,316.5z"/>
<path class="st0" d="M-344,314.4c0.1-0.2,0.2-0.3,0.2-0.5l31.4-9.2c0.1,0.1,0.3,0.2,0.4,0.3l12.6,6.9c1.2,0.7,2.8,0.2,3.4-1
	c0.7-1.2,0.2-2.8-1-3.4l-8.7-4.8l7.3-2.1c1.3-0.4,2.1-1.8,1.7-3.1c-0.4-1.3-1.8-2.1-3.1-1.7l-7.2,2.1l4.8-8.7c0.7-1.2,0.2-2.8-1-3.4
	c-1.2-0.7-2.8-0.2-3.4,1l-6.9,12.6c-0.1,0.2-0.2,0.3-0.2,0.5l-31.4,9.2c-0.1-0.1-0.3-0.2-0.4-0.3l-12.8-6.9c-1.2-0.7-2.8-0.2-3.4,1
	c-0.7,1.2-0.2,2.8,1,3.4l8.7,4.8l-7.2,2.1c-1.3,0.4-2.1,1.8-1.7,3.1s1.8,2.1,3.1,1.7l7.2-2.1l-4.8,8.7c-0.7,1.2-0.2,2.8,1,3.4
	c1.2,0.7,2.8,0.2,3.4-1L-344,314.4z"/>
</svg>
