<?xml version="1.0" encoding="utf-8"?>
<!-- Generator: Adobe Illustrator 19.1.0, SVG Export Plug-In . SVG Version: 6.00 Build 0)  -->
<svg version="1.1" id="图层_1" xmlns="http://www.w3.org/2000/svg" xmlns:xlink="http://www.w3.org/1999/xlink" x="0px" y="0px"
	 viewBox="-925.7 652.1 37.7 37.5" style="enable-background:new -925.7 652.1 37.7 37.5;" xml:space="preserve">
<style type="text/css">
	.st0{fill:#00A0D9;}
</style>
<path class="st0" d="M-907.4,680.5c-0.1-0.1-0.1-0.2-0.2-0.2l4.4-18.1c0.1-0.1,0.2-0.1,0.3-0.1l7-4.3c0.7-0.4,0.9-1.3,0.5-2
	c-0.4-0.7-1.3-0.9-2-0.5l-4.8,3l1.1-4.2c0.2-0.8-0.3-1.5-1.1-1.7c-0.8-0.2-1.5,0.3-1.7,1.1l-1,4.2l-3-4.8c-0.4-0.7-1.3-0.9-2-0.5
	c-0.7,0.4-0.9,1.3-0.5,2l4.3,7c0.1,0.1,0.1,0.2,0.2,0.2l-4.4,18.1c-0.1,0.1-0.2,0.1-0.3,0.1l-7,4.3c-0.7,0.4-0.9,1.3-0.5,2
	c0.4,0.7,1.3,0.9,2,0.5l4.8-3l-1,4.2c-0.2,0.8,0.3,1.5,1.1,1.7c0.8,0.2,1.5-0.3,1.7-1.1l1-4.2l3,4.8c0.4,0.7,1.3,0.9,2,0.5
	c0.7-0.4,0.9-1.3,0.5-2L-907.4,680.5z"/>
<path class="st0" d="M-898.9,676.3c-0.1,0-0.2,0-0.3,0.1l-13.3-13c0-0.1,0.1-0.2,0-0.3l-0.1-8.2c0-0.8-0.7-1.4-1.5-1.4
	s-1.4,0.7-1.4,1.5l0.1,5.6l-3.1-3c-0.6-0.6-1.5-0.6-2,0c-0.6,0.6-0.6,1.5,0,2l3.1,3l-5.6,0.1c-0.8,0-1.4,0.7-1.4,1.5
	s0.7,1.4,1.5,1.4l8.2-0.1c0.1,0,0.2,0,0.3-0.1l13.3,13c0,0.1,0,0.2,0,0.3l0.1,8.2c0,0.8,0.7,1.4,1.5,1.4c0.8,0,1.4-0.7,1.4-1.5
	l-0.1-5.6l3.1,3c0.6,0.6,1.5,0.6,2,0c0.6-0.6,0.6-1.5,0-2l-3.1-3l5.6-0.1c0.8,0,1.4-0.7,1.4-1.5s-0.7-1.4-1.5-1.4L-898.9,676.3z"/>
<path class="st0" d="M-915.5,675.1c0.1-0.1,0.1-0.2,0.1-0.3l17.9-5.2c0.1,0.1,0.2,0.1,0.2,0.2l7.2,3.9c0.7,0.4,1.6,0.1,1.9-0.6
	c0.4-0.7,0.1-1.6-0.6-1.9l-4.9-2.7l4.2-1.2c0.7-0.2,1.2-1,1-1.8c-0.2-0.7-1-1.2-1.8-1l-4.1,1.2l2.7-4.9c0.4-0.7,0.1-1.6-0.6-1.9
	c-0.7-0.4-1.6-0.1-1.9,0.6l-3.9,7.2c-0.1,0.1-0.1,0.2-0.1,0.3l-17.9,5.2c-0.1-0.1-0.2-0.1-0.2-0.2l-7.3-3.9
	c-0.7-0.4-1.6-0.1-1.9,0.6c-0.4,0.7-0.1,1.6,0.6,1.9l4.9,2.7l-4.1,1.2c-0.7,0.2-1.2,1-1,1.8s1,1.2,1.8,1l4.1-1.2l-2.7,4.9
	c-0.4,0.7-0.1,1.6,0.6,1.9c0.7,0.4,1.6,0.1,1.9-0.6L-915.5,675.1z"/>
</svg>
